<svg width="25" height="24" viewBox="0 0 25 24" fill="none" xmlns="http://www.w3.org/2000/svg">
<g id="add">
<rect x="0.5" width="24" height="24" rx="6" fill="#242734"/>
<mask id="mask0_4794_4458" style="mask-type:alpha" maskUnits="userSpaceOnUse" x="0" y="0" width="25" height="24">
<rect id="Bounding box" x="0.5" width="24" height="24" fill="#D9D9D9"/>
</mask>
<g mask="url(#mask0_4794_4458)">
<path id="add_2" d="M11.6667 12.8333H6.33332C6.09722 12.8333 5.89931 12.7532 5.73957 12.5929C5.57986 12.4326 5.5 12.234 5.5 11.9971C5.5 11.7601 5.57986 11.5625 5.73957 11.4042C5.89931 11.2458 6.09722 11.1667 6.33332 11.1667H11.6667V5.83333C11.6667 5.59723 11.7468 5.39931 11.9071 5.23958C12.0674 5.07986 12.266 5 12.5029 5C12.7399 5 12.9375 5.07986 13.0958 5.23958C13.2542 5.39931 13.3333 5.59723 13.3333 5.83333V11.1667H18.6667C18.9028 11.1667 19.1007 11.2468 19.2604 11.4071C19.4201 11.5674 19.5 11.766 19.5 12.0029C19.5 12.2399 19.4201 12.4375 19.2604 12.5958C19.1007 12.7542 18.9028 12.8333 18.6667 12.8333H13.3333V18.1667C13.3333 18.4028 13.2532 18.6007 13.0929 18.7604C12.9326 18.9201 12.734 19 12.4971 19C12.2601 19 12.0625 18.9201 11.9042 18.7604C11.7458 18.6007 11.6667 18.4028 11.6667 18.1667V12.8333Z" fill="white"/>
</g>
</g>
</svg>
