<svg width="33" height="32" viewBox="0 0 33 32" fill="none" xmlns="http://www.w3.org/2000/svg">
<g id="add">
<mask id="mask0_5235_6538" style="mask-type:alpha" maskUnits="userSpaceOnUse" x="0" y="0" width="33" height="32">
<rect id="Bounding box" x="0.5" width="32" height="32" fill="#D9D9D9"/>
</mask>
<g mask="url(#mask0_5235_6538)">
<path id="add_2" d="M15.3892 17.1109H8.27809C7.96329 17.1109 7.6994 17.0041 7.48643 16.7904C7.27347 16.5767 7.16699 16.3118 7.16699 15.9959C7.16699 15.68 7.27347 15.4165 7.48643 15.2054C7.6994 14.9943 7.96329 14.8887 8.27809 14.8887H15.3892V7.7776C15.3892 7.4628 15.4961 7.19892 15.7098 6.98594C15.9235 6.77298 16.1883 6.6665 16.5042 6.6665C16.8201 6.6665 17.0836 6.77298 17.2948 6.98594C17.5059 7.19892 17.6114 7.4628 17.6114 7.7776V14.8887H24.7226C25.0374 14.8887 25.3012 14.9956 25.5142 15.2093C25.7272 15.423 25.8337 15.6878 25.8337 16.0037C25.8337 16.3196 25.7272 16.5832 25.5142 16.7943C25.3012 17.0054 25.0374 17.1109 24.7226 17.1109H17.6114V24.2221C17.6114 24.5369 17.5046 24.8008 17.2909 25.0137C17.0771 25.2267 16.8123 25.3332 16.4964 25.3332C16.1805 25.3332 15.917 25.2267 15.7059 25.0137C15.4948 24.8008 15.3892 24.5369 15.3892 24.2221V17.1109Z" fill="white"/>
</g>
</g>
</svg>
