<svg xmlns="http://www.w3.org/2000/svg" width="20" height="19" viewBox="0 0 20 19" fill="none">
  <path d="M4.75 9C4.96667 9 5.14583 8.92917 5.2875 8.7875C5.42917 8.64583 5.5 8.46667 5.5 8.25V7.75C5.5 7.53333 5.42917 7.35417 5.2875 7.2125C5.14583 7.07083 4.96667 7 4.75 7C4.53333 7 4.35417 7.07083 4.2125 7.2125C4.07083 7.35417 4 7.53333 4 7.75V8.25C4 8.46667 4.07083 8.64583 4.2125 8.7875C4.35417 8.92917 4.53333 9 4.75 9ZM7.25 11C7.46667 11 7.64583 10.9292 7.7875 10.7875C7.92917 10.6458 8 10.4667 8 10.25V5.75C8 5.53333 7.92917 5.35417 7.7875 5.2125C7.64583 5.07083 7.46667 5 7.25 5C7.03333 5 6.85417 5.07083 6.7125 5.2125C6.57083 5.35417 6.5 5.53333 6.5 5.75V10.25C6.5 10.4667 6.57083 10.6458 6.7125 10.7875C6.85417 10.9292 7.03333 11 7.25 11ZM10 13C10.2167 13 10.3958 12.9292 10.5375 12.7875C10.6792 12.6458 10.75 12.4667 10.75 12.25V3.75C10.75 3.53333 10.6792 3.35417 10.5375 3.2125C10.3958 3.07083 10.2167 3 10 3C9.78333 3 9.60417 3.07083 9.4625 3.2125C9.32083 3.35417 9.25 3.53333 9.25 3.75V12.25C9.25 12.4667 9.32083 12.6458 9.4625 12.7875C9.60417 12.9292 9.78333 13 10 13ZM12.75 11C12.9667 11 13.1458 10.9292 13.2875 10.7875C13.4292 10.6458 13.5 10.4667 13.5 10.25V5.75C13.5 5.53333 13.4292 5.35417 13.2875 5.2125C13.1458 5.07083 12.9667 5 12.75 5C12.5333 5 12.3542 5.07083 12.2125 5.2125C12.0708 5.35417 12 5.53333 12 5.75V10.25C12 10.4667 12.0708 10.6458 12.2125 10.7875C12.3542 10.9292 12.5333 11 12.75 11ZM15.25 9C15.4667 9 15.6458 8.92917 15.7875 8.7875C15.9292 8.64583 16 8.46667 16 8.25V7.75C16 7.53333 15.9292 7.35417 15.7875 7.2125C15.6458 7.07083 15.4667 7 15.25 7C15.0333 7 14.8542 7.07083 14.7125 7.2125C14.5708 7.35417 14.5 7.53333 14.5 7.75V8.25C14.5 8.46667 14.5708 8.64583 14.7125 8.7875C14.8542 8.92917 15.0333 9 15.25 9ZM4 16L1.7 18.3C1.38333 18.6167 1.02083 18.6875 0.6125 18.5125C0.204167 18.3375 0 18.025 0 17.575V2C0 1.45 0.195833 0.979167 0.5875 0.5875C0.979167 0.195833 1.45 0 2 0H18C18.55 0 19.0208 0.195833 19.4125 0.5875C19.8042 0.979167 20 1.45 20 2V14C20 14.55 19.8042 15.0208 19.4125 15.4125C19.0208 15.8042 18.55 16 18 16H4Z" fill="white"/>
</svg>