<svg xmlns="http://www.w3.org/2000/svg" width="32" height="32" viewBox="0 0 32 32" fill="none">
<mask id="mask0_4913_3346" style="mask-type:alpha" maskUnits="userSpaceOnUse" x="0" y="0" width="32" height="32">
<rect width="32" height="32" fill="#D9D9D9"/>
</mask>
<g mask="url(#mask0_4913_3346)">
<path d="M9.5668 17.111L16.7891 24.3333C17.0113 24.5555 17.1205 24.8147 17.1168 25.1111C17.1131 25.4073 17.0002 25.6666 16.7779 25.8888C16.5557 26.1036 16.2965 26.2129 16.0002 26.2166C15.7039 26.2203 15.4446 26.111 15.2224 25.8888L6.11126 16.7777C5.99275 16.6592 5.90942 16.537 5.86126 16.411C5.81313 16.2851 5.78906 16.1481 5.78906 15.9999C5.78906 15.8518 5.81313 15.7147 5.86126 15.5888C5.90942 15.4629 5.99275 15.3407 6.11126 15.2222L15.2224 6.11102C15.4372 5.89622 15.6946 5.78882 15.9946 5.78882C16.2946 5.78882 16.5557 5.89622 16.7779 6.11102C17.0002 6.33324 17.1113 6.59435 17.1113 6.89435C17.1113 7.19435 17.0002 7.45546 16.7779 7.67769L9.5668 14.8888H25.5557C25.8742 14.8888 26.1391 14.9944 26.3502 15.2055C26.5613 15.4166 26.6668 15.6814 26.6668 15.9999C26.6668 16.3184 26.5613 16.5832 26.3502 16.7944C26.1391 17.0055 25.8742 17.111 25.5557 17.111H9.5668Z" fill="white"/>
</g>
</svg>
