<svg xmlns="http://www.w3.org/2000/svg" width="40" height="40" viewBox="0 0 40 40" fill="none">
<mask id="mask0_1192_8563" style="mask-type:alpha" maskUnits="userSpaceOnUse" x="0" y="0" width="40" height="40">
<rect width="40" height="40" fill="#D9D9D9"/>
</mask>
<g mask="url(#mask0_1192_8563)">
<path fill-rule="evenodd" clip-rule="evenodd" d="M19.6667 36.3333C17.3796 36.3333 15.2222 35.8958 13.1945 35.0208C11.1667 34.1458 9.39815 32.9537 7.88888 31.4445C6.37963 29.9352 5.1875 28.1667 4.3125 26.1389C3.4375 24.1111 3 21.9537 3 19.6667C3 17.3611 3.4375 15.1944 4.3125 13.1667C5.1875 11.1389 6.37963 9.375 7.88888 7.875C9.39815 6.375 11.1667 5.1875 13.1945 4.3125C15.2222 3.4375 17.3796 3 19.6667 3C21.9722 3 24.1389 3.4375 26.1667 4.3125C28.1944 5.1875 29.9583 6.375 31.4583 7.875C32.9583 9.375 34.1458 11.1389 35.0208 13.1667C35.8958 15.1944 36.3333 17.3611 36.3333 19.6667C36.3333 21.9537 35.8958 24.1111 35.0208 26.1389C34.1458 28.1667 32.9583 29.9352 31.4583 31.4445C29.9583 32.9537 28.1944 34.1458 26.1667 35.0208C24.1389 35.8958 21.9722 36.3333 19.6667 36.3333ZM20.5375 28.156L13.6189 21.0851H28.9356C29.2407 21.0851 29.4944 20.9817 29.6966 20.775C29.8989 20.5683 30 20.3091 30 19.9972C30 19.6854 29.8989 19.4261 29.6966 19.2194C29.4944 19.0127 29.2407 18.9094 28.9356 18.9094H13.6189L20.5269 11.8493C20.7397 11.6317 20.8462 11.3761 20.8462 11.0824C20.8462 10.7887 20.7397 10.533 20.5269 10.3155C20.314 10.1052 20.0638 10 19.7765 10C19.4891 10 19.2425 10.1052 19.0367 10.3155L10.3087 19.2358C10.1951 19.3518 10.1153 19.4714 10.0692 19.5947C10.0231 19.718 10 19.8522 10 19.9972C10 20.1423 10.0231 20.2764 10.0692 20.3997C10.1153 20.523 10.1951 20.6427 10.3087 20.7587L19.0367 29.679C19.2496 29.8966 19.498 30.0035 19.7818 29.9999C20.0656 29.9963 20.314 29.8893 20.5269 29.679C20.7397 29.4614 20.848 29.2076 20.8515 28.9175C20.855 28.6274 20.7504 28.3736 20.5375 28.156Z" fill="white"/>
</g>
</svg>