<svg xmlns="http://www.w3.org/2000/svg" width="30" height="30" viewBox="0 0 30 30">
    <defs>
        <style>
            .cls-1{fill:#fff}
        </style>
    </defs>
    <path id="home-page" d="M29.32-.024L16.546-12.943a2.215 2.215 0 0 0-3.15 0L.623-.024a2.28 2.28 0 0 0-.484 2.461A2.224 2.224 0 0 0 2.2 3.827h1.731v9.657A2.9 2.9 0 0 0 6.814 16.4h4.058v-4.677a4.1 4.1 0 1 1 8.2 0V16.4h4.058a2.9 2.9 0 0 0 2.883-2.916V3.827h1.733a2.224 2.224 0 0 0 2.054-1.39 2.289 2.289 0 0 0-.48-2.461z" class="cls-1" transform="translate(.03 13.6)"/>
</svg>
