<svg xmlns="http://www.w3.org/2000/svg" width="24" height="24" viewBox="0 0 24 24" fill="none">
  <g opacity="0.5">
    <mask id="mask0_1898_2264" style="mask-type:alpha" maskUnits="userSpaceOnUse" x="0" y="0" width="24" height="24">
      <rect width="24" height="24" fill="#D9D9D9"/>
    </mask>
    <g mask="url(#mask0_1898_2264)">
      <path d="M9.35167 12.827H10.9544V10.1475H13.0439V12.827H14.6467V8.48075L11.9992 6.72575L9.35167 8.48075V12.827ZM11.9992 19.8417C14.0437 18.0161 15.6034 16.2719 16.6784 14.6092C17.7534 12.9467 18.2909 11.493 18.2909 10.248C18.2909 8.35067 17.688 6.79275 16.4822 5.57425C15.2763 4.35592 13.782 3.74675 11.9992 3.74675C10.2163 3.74675 8.722 4.35592 7.51617 5.57425C6.31034 6.79275 5.70742 8.35067 5.70742 10.248C5.70742 11.493 6.25117 12.9467 7.33867 14.6092C8.426 16.2719 9.9795 18.0161 11.9992 19.8417ZM11.9992 21.025C11.8292 21.025 11.6608 20.9975 11.4942 20.9425C11.3275 20.8877 11.1777 20.7987 11.0447 20.6755C10.3345 20.0247 9.59175 19.2922 8.81642 18.478C8.04125 17.6637 7.3305 16.8035 6.68417 15.8975C6.03784 14.9915 5.50409 14.0582 5.08292 13.0975C4.66176 12.1368 4.45117 11.187 4.45117 10.248C4.45117 7.94033 5.19759 6.07208 6.69042 4.64325C8.18342 3.21442 9.953 2.5 11.9992 2.5C14.0453 2.5 15.8149 3.21442 17.3079 4.64325C18.8008 6.07208 19.5472 7.94033 19.5472 10.248C19.5472 11.187 19.3366 12.1362 18.9154 13.0957C18.4943 14.0554 17.9621 14.9877 17.3189 15.8927C16.6758 16.7976 15.9666 17.6567 15.1914 18.47C14.4163 19.2832 13.6735 20.0152 12.9632 20.666C12.8303 20.789 12.679 20.8796 12.5092 20.9377C12.3392 20.9959 12.1692 21.025 11.9992 21.025Z" fill="currentColor"/>
    </g>
  </g>
</svg>