<svg xmlns="http://www.w3.org/2000/svg" width="20" height="20" viewBox="0 0 20 20" fill="none">
  <mask id="mask0_247_2541" style="mask-type:alpha" maskUnits="userSpaceOnUse" x="0" y="0" width="20" height="20">
    <rect width="20" height="20" fill="#D9D9D9"/>
  </mask>
  <g mask="url(#mask0_247_2541)">
    <path d="M8.33369 11.169L13.1706 6.33195C13.35 6.15264 13.5711 6.06299 13.8337 6.06299C14.0963 6.06299 14.3174 6.15264 14.4968 6.33195C14.6761 6.51139 14.7658 6.73327 14.7658 6.99757C14.7658 7.26188 14.6761 7.48375 14.4968 7.6632L9.00182 13.1632C8.81182 13.3531 8.58911 13.448 8.33369 13.448C8.07828 13.448 7.85557 13.3531 7.66557 13.1632L5.4989 10.9965C5.3196 10.8171 5.23078 10.5952 5.23244 10.3309C5.23411 10.0666 5.3246 9.84472 5.5039 9.66528C5.68335 9.48597 5.90522 9.39632 6.16953 9.39632C6.43383 9.39632 6.65571 9.48597 6.83515 9.66528L8.33369 11.169Z" fill="#1C1B1F"/>
  </g>
</svg>