<svg xmlns="http://www.w3.org/2000/svg" width="40" height="40" viewBox="0 0 40 40" fill="none">
<mask id="mask0_4811_8682" style="mask-type:alpha" maskUnits="userSpaceOnUse" x="0" y="0" width="40" height="40">
<rect width="40" height="40" fill="#D9D9D9"/>
</mask>
<g mask="url(#mask0_4811_8682)">
<path d="M11.9585 21.3888L20.9863 30.4166C21.2641 30.6944 21.4006 31.0185 21.396 31.3889C21.3914 31.7592 21.2502 32.0833 20.9724 32.3611C20.6946 32.6296 20.3706 32.7662 20.0002 32.7708C19.6298 32.7754 19.3058 32.6389 19.028 32.3611L7.63908 20.9722C7.49094 20.824 7.38677 20.6713 7.32658 20.5138C7.26641 20.3564 7.23633 20.1852 7.23633 20C7.23633 19.8148 7.26641 19.6435 7.32658 19.4861C7.38677 19.3287 7.49094 19.1759 7.63908 19.0278L19.028 7.63883C19.2965 7.37033 19.6182 7.23608 19.9932 7.23608C20.3682 7.23608 20.6946 7.37033 20.9724 7.63883C21.2502 7.91661 21.3891 8.243 21.3891 8.618C21.3891 8.993 21.2502 9.31939 20.9724 9.59717L11.9585 18.6111H31.9447C32.3428 18.6111 32.6738 18.743 32.9377 19.0069C33.2016 19.2708 33.3335 19.6018 33.3335 20C33.3335 20.3981 33.2016 20.7291 32.9377 20.993C32.6738 21.2569 32.3428 21.3888 31.9447 21.3888H11.9585Z" fill="currentColor"/>
</g>
</svg>