<svg xmlns="http://www.w3.org/2000/svg" width="24" height="24" viewBox="0 0 24 24" fill="none">
  <mask id="mask0_1005_5799" style="mask-type:alpha" maskUnits="userSpaceOnUse" x="0" y="0" width="24" height="24">
    <rect width="24" height="24" fill="#D9D9D9"/>
  </mask>
  <g mask="url(#mask0_1005_5799)">
    <path d="M11.997 4.83343C11.7602 4.83343 11.5626 4.7536 11.4043 4.59393C11.246 4.43427 11.1668 4.23635 11.1668 4.00018V1.83343C11.1668 1.59743 11.2469 1.39952 11.407 1.23968C11.5674 1.08002 11.766 1.00018 12.003 1.00018C12.2399 1.00018 12.4375 1.08002 12.5958 1.23968C12.7541 1.39952 12.8333 1.59743 12.8333 1.83343V4.00018C12.8333 4.23635 12.7532 4.43427 12.593 4.59393C12.4327 4.7536 12.234 4.83343 11.997 4.83343ZM17.0668 6.93343C16.9056 6.77243 16.825 6.57527 16.825 6.34193C16.825 6.1086 16.9056 5.91135 17.0668 5.75018L18.5833 4.22518C18.7508 4.05852 18.9496 3.97518 19.1798 3.97518C19.41 3.97518 19.6084 4.05852 19.775 4.22518C19.9362 4.38635 20.0168 4.58077 20.0168 4.80843C20.0168 5.03627 19.9362 5.23077 19.775 5.39193L18.2333 6.93343C18.0723 7.0946 17.8779 7.17518 17.65 7.17518C17.4222 7.17518 17.2278 7.0946 17.0668 6.93343ZM20 12.8334C19.7639 12.8334 19.566 12.7534 19.4063 12.5932C19.2466 12.4329 19.1668 12.2342 19.1668 11.9972C19.1668 11.7604 19.2466 11.5628 19.4063 11.4044C19.566 11.2461 19.7639 11.1669 20 11.1669H22.1668C22.4028 11.1669 22.6007 11.247 22.7605 11.4072C22.9202 11.5675 23 11.7662 23 12.0032C23 12.24 22.9202 12.4376 22.7605 12.5959C22.6007 12.7543 22.4028 12.8334 22.1668 12.8334H20ZM18.6 19.7752L17.0833 18.2502C16.9223 18.089 16.8418 17.8918 16.8418 17.6584C16.8418 17.4251 16.9223 17.2279 17.0833 17.0669C17.2445 16.9058 17.4417 16.8252 17.675 16.8252C17.9084 16.8252 18.1056 16.9058 18.2668 17.0669L19.7918 18.5834C19.9585 18.7509 20.0418 18.9498 20.0418 19.1799C20.0418 19.4101 19.9581 19.6085 19.7908 19.7752C19.6236 19.9419 19.425 20.0252 19.195 20.0252C18.965 20.0252 18.7667 19.9419 18.6 19.7752ZM5.7668 6.93343L4.22505 5.39193C4.06388 5.23077 3.9833 5.03627 3.9833 4.80843C3.9833 4.58077 4.06388 4.38635 4.22505 4.22518C4.38955 4.05852 4.5848 3.97518 4.8108 3.97518C5.03696 3.97518 5.23338 4.05852 5.40005 4.22518L6.9333 5.76693C7.09446 5.92793 7.17505 6.12235 7.17505 6.35018C7.17505 6.57802 7.09446 6.77243 6.9333 6.93343C6.7723 7.0946 6.57788 7.17518 6.35005 7.17518C6.12221 7.17518 5.9278 7.0946 5.7668 6.93343ZM6.00005 19.3334H10.5C11.0094 19.3334 11.4422 19.1556 11.7985 18.7999C12.155 18.4443 12.3333 18.0124 12.3333 17.5042C12.3333 16.996 12.1596 16.5599 11.8123 16.1959C11.465 15.8321 11.0359 15.6502 10.525 15.6502H9.3668L8.90005 14.5669C8.65405 13.9863 8.26738 13.5244 7.74005 13.1814C7.21271 12.8384 6.63271 12.6669 6.00005 12.6669C5.07405 12.6669 4.28705 12.9906 3.63905 13.6379C2.99088 14.2853 2.6668 15.0714 2.6668 15.9962C2.6668 16.921 2.99088 17.7084 3.63905 18.3584C4.28705 19.0084 5.07405 19.3334 6.00005 19.3334ZM6.00005 21.0002C4.61671 21.0002 3.43755 20.5127 2.46255 19.5377C1.48755 18.5627 1.00005 17.3835 1.00005 16.0002C1.00005 14.6169 1.48755 13.4377 2.46255 12.4627C3.43755 11.4877 4.61671 11.0002 6.00005 11.0002C6.97488 11.0002 7.86446 11.271 8.6688 11.8127C9.47296 12.3544 10.0695 13.0779 10.4583 13.9834C11.4485 13.9834 12.2808 14.3451 12.9553 15.0684C13.6296 15.7916 13.9668 16.6578 13.9668 17.6669C13.9001 18.6058 13.5374 19.396 12.8785 20.0377C12.2199 20.6794 11.427 21.0002 10.5 21.0002H6.00005ZM13.9668 17.6669C13.9056 17.3848 13.8445 17.1098 13.7833 16.8419C13.7223 16.5739 13.6612 16.2989 13.6 16.0169C14.4279 15.6891 15.0904 15.1611 15.5875 14.4329C16.0847 13.7048 16.3333 12.8946 16.3333 12.0024C16.3333 10.8009 15.9111 9.77794 15.0668 8.93343C14.2223 8.0891 13.2 7.66693 12 7.66693C10.9199 7.66693 9.97471 8.01235 9.16455 8.70318C8.35438 9.39385 7.8773 10.2706 7.7333 11.3334C7.44446 11.2724 7.15563 11.2169 6.8668 11.1669C6.5778 11.1169 6.28888 11.0614 6.00005 11.0002C6.23338 9.53352 6.92088 8.33352 8.06255 7.40018C9.20421 6.46685 10.5167 6.00018 12 6.00018C13.6667 6.00018 15.0834 6.58352 16.25 7.75018C17.4167 8.91685 18 10.3354 18 12.0059C18 13.2966 17.6306 14.4572 16.8918 15.4877C16.1528 16.5182 15.1778 17.2446 13.9668 17.6669Z" fill="#242734"/>
  </g>
</svg>