<svg xmlns="http://www.w3.org/2000/svg" width="40" height="40" viewBox="0 0 40 40" fill="none">
  <mask id="mask0_366_14299" style="mask-type:alpha" maskUnits="userSpaceOnUse" x="0" y="0" width="40" height="40">
    <rect width="40" height="40" fill="#D9D9D9"/>
  </mask>
  <g mask="url(#mask0_366_14299)">
    <path d="M19.7218 35C19.3284 35 18.9986 34.8664 18.7322 34.5992C18.4661 34.3322 18.333 34.0013 18.333 33.6063C18.333 33.2113 18.4661 32.8818 18.7322 32.6179C18.9986 32.354 19.3284 32.2221 19.7218 32.2221H32.2218V19.8333C32.2218 16.4594 31.0359 13.5975 28.6643 11.2475C26.2926 8.89722 23.4044 7.72208 19.9997 7.72208C16.595 7.72208 13.7068 8.89722 11.3351 11.2475C8.96342 13.5975 7.77759 16.4594 7.77759 19.8333V28.8887C7.77759 29.2037 7.67106 29.4676 7.45801 29.6804C7.24495 29.8935 6.98106 30 6.66634 30C5.74967 30 4.96495 29.6736 4.31217 29.0208C3.6594 28.3681 3.33301 27.5833 3.33301 26.6667V23.3333C3.33301 22.75 3.47884 22.2014 3.77051 21.6875C4.06217 21.1736 4.4719 20.7639 4.99967 20.4583L5.12467 18.25C5.3469 16.3611 5.89551 14.6111 6.77051 13C7.64551 11.3889 8.74273 9.98611 10.0622 8.79167C11.3816 7.59722 12.8955 6.66667 14.6038 6C16.3122 5.33333 18.1108 5 19.9997 5C21.8886 5 23.6802 5.33333 25.3747 6C27.0691 6.66667 28.583 7.59028 29.9163 8.77083C31.2497 9.95139 32.3469 11.3472 33.208 12.9583C34.0691 14.5694 34.6247 16.3194 34.8747 18.2083L34.9997 20.375C35.5275 20.625 35.9372 21 36.2288 21.5C36.5205 22 36.6663 22.5278 36.6663 23.0833V26.9167C36.6663 27.4722 36.5205 28 36.2288 28.5C35.9372 29 35.5275 29.375 34.9997 29.625V32.2221C34.9997 32.986 34.7277 33.64 34.1838 34.1842C33.6397 34.7281 32.9857 35 32.2218 35H19.7218ZM14.9947 23.0554C14.6 23.0554 14.2706 22.9219 14.0068 22.655C13.7429 22.3878 13.6109 22.0567 13.6109 21.6617C13.6109 21.2669 13.7444 20.9376 14.0113 20.6738C14.2786 20.4099 14.6097 20.2779 15.0047 20.2779C15.3994 20.2779 15.7287 20.4114 15.9926 20.6783C16.2565 20.9456 16.3884 21.2767 16.3884 21.6717C16.3884 22.0664 16.255 22.3957 15.988 22.6596C15.7208 22.9235 15.3897 23.0554 14.9947 23.0554ZM24.9947 23.0554C24.6 23.0554 24.2706 22.9219 24.0068 22.655C23.7429 22.3878 23.6109 22.0567 23.6109 21.6617C23.6109 21.2669 23.7444 20.9376 24.0113 20.6738C24.2786 20.4099 24.6097 20.2779 25.0047 20.2779C25.3994 20.2779 25.7287 20.4114 25.9926 20.6783C26.2565 20.9456 26.3884 21.2767 26.3884 21.6717C26.3884 22.0664 26.255 22.3957 25.988 22.6596C25.7208 22.9235 25.3897 23.0554 24.9947 23.0554ZM10.0413 20.75C9.8469 17.8056 10.7358 15.2778 12.708 13.1667C14.6802 11.0556 17.1386 10 20.083 10C22.5183 10 24.6409 10.794 26.4509 12.3821C28.2612 13.9699 29.3608 15.9675 29.7497 18.375C27.2588 18.3472 24.9787 17.6574 22.9093 16.3054C20.8398 14.9538 19.2423 13.1575 18.1168 10.9167C17.6776 13.1389 16.7427 15.1181 15.3122 16.8542C13.8816 18.5903 12.1247 19.8889 10.0413 20.75Z" fill="currentColor"/>
  </g>
</svg>