<svg xmlns="http://www.w3.org/2000/svg" width="41" height="40" viewBox="0 0 41 40" fill="none">
<g id="call">
<mask id="mask0_4379_12888" style="mask-type:alpha" maskUnits="userSpaceOnUse" x="0" y="0" width="41" height="40">
<rect id="Bounding box" x="0.61377" width="40" height="40" fill="#D9D9D9"/>
</mask>
<g mask="url(#mask0_4379_12888)">
<path id="call_2" d="M33.7804 35C30.4749 35 27.1415 34.2292 23.7804 32.6875C20.4193 31.1458 17.3221 28.9583 14.4888 26.125C11.6554 23.2917 9.46794 20.1944 7.92627 16.8333C6.3846 13.4722 5.61377 10.1389 5.61377 6.83333C5.61377 6.31481 5.7897 5.87962 6.14156 5.52779C6.49339 5.17593 6.92858 5 7.4471 5H13.586C13.9749 5 14.3128 5.13657 14.5999 5.40971C14.8869 5.68288 15.0767 6.01853 15.1693 6.41667L16.2804 11.8611C16.336 12.2685 16.3267 12.6296 16.2526 12.9444C16.1786 13.2593 16.0304 13.5278 15.8082 13.75L11.6832 17.9167C12.3499 19.0741 13.079 20.1644 13.8707 21.1875C14.6624 22.2106 15.535 23.1852 16.4888 24.1111C17.461 25.1019 18.4841 26.0116 19.5582 26.8403C20.6323 27.669 21.7619 28.4074 22.9471 29.0556L26.8916 25.0278C27.1601 24.7408 27.4819 24.5394 27.8569 24.4236C28.2319 24.3079 28.6045 24.2778 28.9749 24.3333L34.1971 25.4445C34.6045 25.5556 34.9425 25.7708 35.211 26.0903C35.4795 26.4097 35.6138 26.7685 35.6138 27.1667V33.1667C35.6138 33.6852 35.4378 34.1204 35.086 34.4722C34.7341 34.8241 34.299 35 33.7804 35Z" fill="#242734"/>
</g>
</g>
</svg>
