<svg xmlns="http://www.w3.org/2000/svg" width="24" height="24" viewBox="0 0 24 24" fill="none">
  <g opacity="0.5">
    <mask id="mask0_1898_2258" style="mask-type:alpha" maskUnits="userSpaceOnUse" x="0" y="0" width="24" height="24">
      <rect width="24" height="24" fill="#D9D9D9"/>
    </mask>
    <g mask="url(#mask0_1898_2258)">
      <path d="M19.4032 20.5C17.5929 20.5 15.743 20.0557 13.8535 19.167C11.964 18.2783 10.2104 17.0235 8.59275 15.4025C6.97492 13.7817 5.72167 12.0281 4.833 10.1417C3.94433 8.25542 3.5 6.40708 3.5 4.59675C3.5 4.28342 3.60358 4.02233 3.81075 3.8135C4.01775 3.6045 4.27658 3.5 4.58725 3.5H7.5765C7.8345 3.5 8.0555 3.58408 8.2395 3.75225C8.42333 3.92042 8.54842 4.13467 8.61475 4.395L9.20325 7.162C9.23958 7.42117 9.23125 7.6505 9.17825 7.85C9.12525 8.0495 9.0265 8.21725 8.882 8.35325L6.539 10.6345C6.9605 11.3718 7.41617 12.0592 7.906 12.6965C8.396 13.3338 8.92608 13.9357 9.49625 14.502C10.0944 15.1113 10.7307 15.6705 11.4052 16.1795C12.0796 16.6885 12.8033 17.1545 13.5763 17.5775L15.8372 15.2668C16.0004 15.0903 16.1879 14.9699 16.3997 14.9058C16.6116 14.8418 16.8322 14.8264 17.0615 14.8598L19.605 15.4045C19.8687 15.4668 20.0837 15.6002 20.2502 15.8045C20.4167 16.0087 20.5 16.2401 20.5 16.4988V19.4128C20.5 19.7234 20.3955 19.9823 20.1865 20.1892C19.9777 20.3964 19.7166 20.5 19.4032 20.5ZM5.92425 9.47575L7.895 7.57175C7.92267 7.54608 7.94133 7.51083 7.951 7.466C7.96067 7.42117 7.96117 7.3795 7.9525 7.341L7.4435 4.91025C7.435 4.85892 7.41367 4.82042 7.3795 4.79475C7.34533 4.76925 7.30258 4.7565 7.25125 4.7565H4.89625C4.85775 4.7565 4.82567 4.76925 4.8 4.79475C4.77433 4.82042 4.7615 4.8525 4.7615 4.891C4.788 5.58117 4.89708 6.30533 5.08875 7.0635C5.28042 7.82167 5.55892 8.62575 5.92425 9.47575ZM14.7628 18.1757C15.4392 18.5026 16.1684 18.7557 16.9502 18.935C17.7321 19.1142 18.4517 19.2157 19.109 19.2397C19.1475 19.2397 19.1796 19.2269 19.2053 19.2012C19.2308 19.1756 19.2435 19.1435 19.2435 19.105V16.768C19.2435 16.7167 19.2308 16.6739 19.2053 16.6397C19.1796 16.6056 19.1411 16.5843 19.0897 16.5758L16.8783 16.1217C16.8398 16.1132 16.8061 16.1138 16.7773 16.1235C16.7484 16.133 16.718 16.1517 16.686 16.1795L14.7628 18.1757Z" fill="currentColor"/>
    </g>
  </g>
</svg>