<svg xmlns="http://www.w3.org/2000/svg" width="41" height="40" viewBox="0 0 41 40" fill="none">
<g id="call">
<mask id="mask0_7128_3303" style="mask-type:alpha" maskUnits="userSpaceOnUse" x="0" y="0" width="41" height="40">
<rect id="Bounding box" x="0.0517578" width="40" height="40" fill="#D9D9D9"/>
</mask>
<g mask="url(#mask0_7128_3303)">
<path id="call_2" d="M33.2184 35C29.9129 35 26.5795 34.2292 23.2184 32.6875C19.8573 31.1458 16.7601 28.9583 13.9268 26.125C11.0934 23.2917 8.90592 20.1944 7.36426 16.8333C5.82259 13.4722 5.05176 10.1389 5.05176 6.83333C5.05176 6.31481 5.22769 5.87962 5.57955 5.52779C5.93138 5.17593 6.36656 5 6.88509 5H13.024C13.4129 5 13.7508 5.13657 14.0378 5.40971C14.3249 5.68288 14.5147 6.01853 14.6073 6.41667L15.7184 11.8611C15.774 12.2685 15.7647 12.6296 15.6906 12.9444C15.6166 13.2593 15.4684 13.5278 15.2462 13.75L11.1212 17.9167C11.7878 19.0741 12.517 20.1644 13.3087 21.1875C14.1003 22.2106 14.973 23.1852 15.9268 24.1111C16.899 25.1019 17.9221 26.0116 18.9962 26.8403C20.0703 27.669 21.1999 28.4074 22.3851 29.0556L26.3295 25.0278C26.5981 24.7408 26.9198 24.5394 27.2948 24.4236C27.6698 24.3079 28.0425 24.2778 28.4129 24.3333L33.6351 25.4445C34.0425 25.5556 34.3805 25.7708 34.649 26.0903C34.9175 26.4097 35.0518 26.7685 35.0518 27.1667V33.1667C35.0518 33.6852 34.8758 34.1204 34.524 34.4722C34.1721 34.8241 33.737 35 33.2184 35Z" fill="#AFAFAF"/>
</g>
</g>
</svg>