<svg width="20" height="20" viewBox="0 0 20 20"  xmlns="http://www.w3.org/2000/svg">
<g id="call">
<mask id="mask0_4770_655" style="mask-type:alpha" maskUnits="userSpaceOnUse" x="0" y="0" width="20" height="20">
<rect id="Bounding box" width="20" height="20" fill="#242734"/>
</mask>
<g mask="url(#mask0_4770_655)">
<path id="call_2" d="M16.5833 17.5C14.9306 17.5 13.2639 17.1146 11.5833 16.3438C9.90278 15.5729 8.35417 14.4792 6.9375 13.0625C5.52083 11.6458 4.42708 10.0972 3.65625 8.41667C2.88542 6.73611 2.5 5.06944 2.5 3.41667C2.5 3.1574 2.58797 2.93981 2.7639 2.7639C2.93981 2.58797 3.1574 2.5 3.41667 2.5H6.4861C6.68055 2.5 6.84953 2.56828 6.99304 2.70485C7.13657 2.84144 7.23148 3.00926 7.27777 3.20833L7.83333 5.93054C7.86111 6.13425 7.85648 6.31481 7.81944 6.47221C7.7824 6.62963 7.70832 6.76389 7.59721 6.875L5.53471 8.95833C5.86804 9.53704 6.23262 10.0822 6.62846 10.5938C7.02429 11.1053 7.46064 11.5926 7.9375 12.0556C8.42361 12.5509 8.93519 13.0058 9.47223 13.4201C10.0093 13.8345 10.5741 14.2037 11.1667 14.5278L13.1389 12.5139C13.2732 12.3704 13.434 12.2697 13.6215 12.2118C13.809 12.1539 13.9954 12.1389 14.1806 12.1667L16.7917 12.7222C16.9954 12.7778 17.1644 12.8854 17.2986 13.0451C17.4329 13.2049 17.5 13.3843 17.5 13.5833V16.5833C17.5 16.8426 17.412 17.0602 17.2361 17.2361C17.0602 17.412 16.8426 17.5 16.5833 17.5Z" fill="#242734"/>
</g>
</g>
</svg>
