<svg xmlns="http://www.w3.org/2000/svg" width="40" height="40" viewBox="0 0 40 40" fill="none">
<g id="close">
<mask id="mask0_4855_1928" style="mask-type:alpha" maskUnits="userSpaceOnUse" x="0" y="0" width="40" height="40">
<rect id="Bounding box" width="40" height="40" fill="#D9D9D9"/>
</mask>
<g mask="url(#mask0_4855_1928)">
<path id="close_2" d="M20.0004 21.9444L11.4449 30.5C11.1764 30.7685 10.8523 30.9028 10.4727 30.9028C10.093 30.9028 9.76898 30.7685 9.50045 30.5C9.23192 30.2314 9.09766 29.9074 9.09766 29.5278C9.09766 29.1481 9.23192 28.824 9.50045 28.5555L18.056 20L9.50045 11.4444C9.23192 11.1759 9.09766 10.8518 9.09766 10.4722C9.09766 10.0926 9.23192 9.76849 9.50045 9.49996C9.76898 9.23143 10.093 9.09717 10.4727 9.09717C10.8523 9.09717 11.1764 9.23143 11.4449 9.49996L20.0004 18.0555L28.556 9.49996C28.8245 9.23143 29.1486 9.09717 29.5282 9.09717C29.9079 9.09717 30.2319 9.23143 30.5004 9.49996C30.769 9.76849 30.9032 10.0926 30.9032 10.4722C30.9032 10.8518 30.769 11.1759 30.5004 11.4444L21.9449 20L30.5004 28.5555C30.769 28.824 30.9032 29.1481 30.9032 29.5278C30.9032 29.9074 30.769 30.2314 30.5004 30.5C30.2319 30.7685 29.9079 30.9028 29.5282 30.9028C29.1486 30.9028 28.8245 30.7685 28.556 30.5L20.0004 21.9444Z" fill="#242734"/>
</g>
</g>
</svg>
