<svg xmlns="http://www.w3.org/2000/svg" width="17" height="16" viewBox="0 0 17 16" fill="none">
  <mask id="mask0_1612_1965" style="mask-type:alpha" maskUnits="userSpaceOnUse" x="0" y="0" width="17" height="16">
    <rect x="0.5" width="16" height="16" fill="#D9D9D9"/>
  </mask>
  <g mask="url(#mask0_1612_1965)">
    <path d="M8.66602 2.80005C9.10289 2.80005 9.47362 2.95164 9.77734 3.25513C10.0809 3.55884 10.2333 3.92957 10.2334 4.36646C10.2334 4.63679 10.1765 4.878 10.0635 5.08911C9.95062 5.30012 9.80135 5.47572 9.61621 5.61646L11.6309 14.0784C11.6899 14.2486 11.667 14.4057 11.5615 14.55C11.456 14.6944 11.3145 14.7668 11.1367 14.7668C11.0256 14.7668 10.9247 14.7351 10.834 14.6721C10.7433 14.6093 10.6796 14.5224 10.6426 14.4114L10.292 13.3225H7.08691L6.71973 14.4114C6.68272 14.5113 6.62007 14.5959 6.53125 14.6643C6.44247 14.7327 6.34239 14.7668 6.23145 14.7668C6.05376 14.7668 5.91114 14.6954 5.80371 14.553C5.69645 14.4104 5.67237 14.2522 5.73145 14.0784L7.71582 5.61646C7.53089 5.47581 7.38231 5.29991 7.26953 5.08911C7.15653 4.878 7.09961 4.63679 7.09961 4.36646C7.09967 3.92957 7.25108 3.55884 7.55469 3.25513C7.8584 2.95153 8.22913 2.80011 8.66602 2.80005ZM7.44238 12.2112H9.91992L8.66602 6.59985L7.44238 12.2112ZM6.5 7.59985C6.72073 7.60007 6.89941 7.77946 6.89941 8.00024C6.89931 8.22094 6.72067 8.39944 6.5 8.39966H3.2998C3.07895 8.39966 2.89951 8.22107 2.89941 8.00024C2.89941 7.77933 3.07889 7.59985 3.2998 7.59985H6.5ZM13.6992 7.59985C13.9201 7.59985 14.0996 7.77933 14.0996 8.00024C14.0995 8.22107 13.9201 8.39966 13.6992 8.39966H10.8994C10.6786 8.39956 10.5001 8.22101 10.5 8.00024C10.5 7.77939 10.6786 7.59996 10.8994 7.59985H13.6992ZM6.54102 5.20239C6.74239 5.22312 6.89931 5.39302 6.89941 5.59985C6.89941 5.8068 6.74249 5.97759 6.54102 5.99829L6.5 6.00024H2.5C2.27909 6.00024 2.09961 5.82077 2.09961 5.59985C2.09972 5.37903 2.27916 5.20044 2.5 5.20044H6.5L6.54102 5.20239ZM14.9404 5.20239C15.142 5.22292 15.2997 5.39288 15.2998 5.59985C15.2998 5.80692 15.1421 5.97776 14.9404 5.99829L14.8994 6.00024H10.8994C10.6786 6.00014 10.5 5.8207 10.5 5.59985C10.5001 5.3791 10.6787 5.20054 10.8994 5.20044H14.8994L14.9404 5.20239Z" fill="white"/>
  </g>
</svg>