<svg xmlns="http://www.w3.org/2000/svg" width="17" height="16" viewBox="0 0 17 16" fill="none">
  <mask id="mask0_1535_5541" style="mask-type:alpha" maskUnits="userSpaceOnUse" x="0" y="0" width="17" height="16">
    <rect x="0.5" width="16" height="16" fill="#D9D9D9"/>
  </mask>
  <g mask="url(#mask0_1535_5541)">
    <path d="M8.6665 2.80005C9.10338 2.80005 9.4741 2.95164 9.77783 3.25513C10.0814 3.55884 10.2338 3.92957 10.2339 4.36646C10.2339 4.63679 10.177 4.878 10.064 5.08911C9.9511 5.30012 9.80183 5.47572 9.6167 5.61646L11.6313 14.0784C11.6904 14.2486 11.6675 14.4057 11.562 14.55C11.4565 14.6944 11.3149 14.7668 11.1372 14.7668C11.0261 14.7668 10.9251 14.7351 10.8345 14.6721C10.7438 14.6093 10.6801 14.5224 10.6431 14.4114L10.2925 13.3225H7.0874L6.72021 14.4114C6.6832 14.5113 6.62056 14.5959 6.53174 14.6643C6.44296 14.7327 6.34288 14.7668 6.23193 14.7668C6.05425 14.7668 5.91162 14.6954 5.8042 14.553C5.69694 14.4104 5.67286 14.2522 5.73193 14.0784L7.71631 5.61646C7.53138 5.47581 7.3828 5.29991 7.27002 5.08911C7.15702 4.878 7.1001 4.63679 7.1001 4.36646C7.10016 3.92957 7.25157 3.55884 7.55518 3.25513C7.85889 2.95153 8.22962 2.80011 8.6665 2.80005ZM7.44287 12.2112H9.92041L8.6665 6.59985L7.44287 12.2112ZM6.50049 7.59985C6.72122 7.60007 6.8999 7.77946 6.8999 8.00024C6.8998 8.22094 6.72116 8.39944 6.50049 8.39966H3.30029C3.07944 8.39966 2.9 8.22107 2.8999 8.00024C2.8999 7.77933 3.07938 7.59985 3.30029 7.59985H6.50049ZM13.6997 7.59985C13.9206 7.59985 14.1001 7.77933 14.1001 8.00024C14.1 8.22107 13.9206 8.39966 13.6997 8.39966H10.8999C10.6791 8.39956 10.5006 8.22101 10.5005 8.00024C10.5005 7.77939 10.6791 7.59996 10.8999 7.59985H13.6997ZM6.5415 5.20239C6.74288 5.22312 6.8998 5.39302 6.8999 5.59985C6.8999 5.8068 6.74298 5.97759 6.5415 5.99829L6.50049 6.00024H2.50049C2.27957 6.00024 2.1001 5.82077 2.1001 5.59985C2.10021 5.37903 2.27964 5.20044 2.50049 5.20044H6.50049L6.5415 5.20239ZM14.9409 5.20239C15.1425 5.22292 15.3002 5.39288 15.3003 5.59985C15.3003 5.80692 15.1426 5.97776 14.9409 5.99829L14.8999 6.00024H10.8999C10.6791 6.00014 10.5005 5.8207 10.5005 5.59985C10.5006 5.3791 10.6791 5.20054 10.8999 5.20044H14.8999L14.9409 5.20239Z" fill="#232734"/>
  </g>
</svg>