<svg xmlns="http://www.w3.org/2000/svg" width="32" height="32" viewBox="0 0 32 32" fill="none">
  <mask id="mask0_1697_1002" style="mask-type:alpha" maskUnits="userSpaceOnUse" x="0" y="0" width="32" height="32">
    <rect width="32" height="32" fill="#D9D9D9"/>
  </mask>
  <g mask="url(#mask0_1697_1002)">
    <path d="M26.889 17.0333L5.55567 26.011C5.18522 26.1592 4.83333 26.1278 4.5 25.9167C4.16667 25.7055 4 25.4 4 25V6.99999C4 6.59999 4.16667 6.29443 4.5 6.08332C4.83333 5.87221 5.18522 5.84077 5.55567 5.98899L26.889 14.9667C27.3408 15.1667 27.5667 15.5111 27.5667 16C27.5667 16.4889 27.3408 16.8333 26.889 17.0333ZM6.22233 23.2667L23.5777 16L6.22233 8.66666V13.9557L14.2667 16L6.22233 18V23.2667Z" fill="#7E7E7E"/>
  </g>
</svg>