<svg xmlns="http://www.w3.org/2000/svg" width="41" height="40" viewBox="0 0 41 40" fill="none">
  <mask id="mask0_1674_9969" style="mask-type:alpha" maskUnits="userSpaceOnUse" x="0" y="0" width="41" height="40">
    <rect x="0.5" width="40" height="40" fill="#D9D9D9"/>
  </mask>
  <g mask="url(#mask0_1674_9969)">
    <path fill-rule="evenodd" clip-rule="evenodd" d="M6.19426 36.3054L10.4997 32H34.3884C35.1384 32 35.789 31.7246 36.3401 31.1737C36.8909 30.6226 37.1663 29.9721 37.1663 29.2221V19.5696C37.1663 19.1712 36.9858 18.8703 36.6247 18.6667C36.2636 18.4631 35.884 18.4492 35.4859 18.625C34.9581 18.875 34.4211 19.0601 33.8747 19.1804C33.3283 19.301 32.7588 19.3612 32.1663 19.3612C31.1386 19.3612 30.164 19.1737 29.2426 18.7987C28.3215 18.4237 27.4998 17.9075 26.7776 17.25C25.8609 16.4258 25.1687 15.449 24.7009 14.3196C24.2334 13.1899 24.0459 12.0185 24.1384 10.8054C24.1848 10.4165 24.0807 10.074 23.8259 9.77791C23.5715 9.48152 23.2498 9.33333 22.8609 9.33333H6.61092C5.86092 9.33333 5.21037 9.60875 4.65926 10.1596C4.10842 10.7107 3.83301 11.3612 3.83301 12.1112V35.3196C3.83301 35.9399 4.11773 36.3681 4.68717 36.6042C5.25662 36.8403 5.75898 36.7407 6.19426 36.3054ZM9.99324 20.8053H24.1599C24.5535 20.8053 24.8834 20.6719 25.1495 20.4049C25.4159 20.1377 25.5491 19.8066 25.5491 19.4116C25.5491 19.0169 25.4159 18.6876 25.1495 18.4237C24.8834 18.1598 24.5535 18.0278 24.1599 18.0278H9.99324C9.59991 18.0278 9.27005 18.1613 9.00366 18.4283C8.73755 18.6955 8.60449 19.0266 8.60449 19.4216C8.60449 19.8163 8.73755 20.1456 9.00366 20.4095C9.27005 20.6734 9.59991 20.8053 9.99324 20.8053ZM9.99324 26.0832H27.2157C27.6091 26.0832 27.9389 25.9496 28.2053 25.6824C28.4714 25.4155 28.6045 25.0845 28.6045 24.6895C28.6045 24.2945 28.4714 23.9651 28.2053 23.7012C27.9389 23.4373 27.6091 23.3053 27.2157 23.3053H9.99324C9.59991 23.3053 9.27005 23.4389 9.00366 23.7062C8.73755 23.9734 8.60449 24.3044 8.60449 24.6991C8.60449 25.0941 8.73755 25.4235 9.00366 25.6874C9.27005 25.9513 9.59991 26.0832 9.99324 26.0832Z" fill="#242734"/>
    <path d="M31.5621 6.5345C31.8843 5.66389 33.1157 5.66389 33.4379 6.53451L34.5012 9.40803C34.6024 9.68175 34.8182 9.89756 35.092 9.99885L37.9655 11.0621C38.8361 11.3843 38.8361 12.6157 37.9655 12.9379L35.092 14.0012C34.8182 14.1024 34.6024 14.3182 34.5012 14.592L33.4379 17.4655C33.1157 18.3361 31.8843 18.3361 31.5621 17.4655L30.4988 14.592C30.3976 14.3182 30.1818 14.1024 29.908 14.0012L27.0345 12.9379C26.1639 12.6157 26.1639 11.3843 27.0345 11.0621L29.908 9.99885C30.1818 9.89756 30.3976 9.68175 30.4988 9.40803L31.5621 6.5345Z" fill="#242734"/>
  </g>
</svg>