<svg width="32" height="32" viewBox="0 0 32 32" fill="none" xmlns="http://www.w3.org/2000/svg">
<g id="check_circle">
<mask id="mask0_331_7298" style="mask-type:alpha" maskUnits="userSpaceOnUse" x="0" y="0" width="32" height="32">
<rect id="Bounding box" width="32" height="32" fill="#D9D9D9"/>
</mask>
<g mask="url(#mask0_331_7298)">
<path id="check_circle_2" d="M14.0667 18.8227L10.9334 15.6893C10.7185 15.4744 10.4519 15.367 10.1334 15.367C9.81497 15.367 9.54086 15.4818 9.31108 15.7113C9.09642 15.9262 8.98908 16.1929 8.98908 16.5113C8.98908 16.83 9.09642 17.0967 9.31108 17.3113L13.2891 21.3113C13.5113 21.5335 13.7705 21.6447 14.0667 21.6447C14.363 21.6447 14.6222 21.5335 14.8444 21.3113L22.6668 13.4893C22.8963 13.2595 23.0111 12.9854 23.0111 12.667C23.0111 12.3485 22.8963 12.0744 22.6668 11.8447C22.4372 11.63 22.1594 11.5263 21.8334 11.5337C21.5074 11.541 21.2371 11.6521 21.0224 11.867L14.0667 18.8227ZM16.0001 29.3337C14.1705 29.3337 12.4446 28.9837 10.8224 28.2837C9.20019 27.5837 7.7853 26.63 6.57775 25.4227C5.37041 24.2151 4.41675 22.8002 3.71675 21.178C3.01675 19.5558 2.66675 17.8299 2.66675 16.0003C2.66675 14.1559 3.01675 12.4225 3.71675 10.8003C4.41675 9.1781 5.37041 7.76699 6.57775 6.56699C7.7853 5.36699 9.20019 4.41699 10.8224 3.71699C12.4446 3.01699 14.1705 2.66699 16.0001 2.66699C17.8445 2.66699 19.5779 3.01699 21.2001 3.71699C22.8223 4.41699 24.2334 5.36699 25.4334 6.56699C26.6334 7.76699 27.5834 9.1781 28.2834 10.8003C28.9834 12.4225 29.3334 14.1559 29.3334 16.0003C29.3334 17.8299 28.9834 19.5558 28.2834 21.178C27.5834 22.8002 26.6334 24.2151 25.4334 25.4227C24.2334 26.63 22.8223 27.5837 21.2001 28.2837C19.5779 28.9837 17.8445 29.3337 16.0001 29.3337Z" fill="#73BE44"/>
</g>
</g>
</svg>
