<svg xmlns="http://www.w3.org/2000/svg" width="16" height="17" viewBox="0 0 16 17" fill="none">
  <mask id="mask0_211_1352" style="mask-type:alpha" maskUnits="userSpaceOnUse" x="0" y="0" width="16" height="17">
    <rect y="0.5" width="16" height="16" fill="#D9D9D9"/>
  </mask>
  <g mask="url(#mask0_211_1352)">
    <path d="M8.00004 11.6778C8.88523 11.6778 9.63616 11.3695 10.2528 10.7528C10.8695 10.1362 11.1778 9.38523 11.1778 8.50004C11.1778 7.61485 10.8695 6.86392 10.2528 6.24726C9.63616 5.6306 8.88523 5.32227 8.00004 5.32227C7.11485 5.32227 6.36393 5.6306 5.74727 6.24726C5.13061 6.86392 4.82227 7.61485 4.82227 8.50004C4.82227 9.38523 5.13061 10.1362 5.74727 10.7528C6.36393 11.3695 7.11485 11.6778 8.00004 11.6778ZM8.00004 15.1667C7.08523 15.1667 6.22227 14.9917 5.41116 14.6417C4.60005 14.2917 3.89264 13.8149 3.28892 13.2112C2.68522 12.6074 2.20837 11.9 1.85837 11.0889C1.50837 10.2778 1.33337 9.41485 1.33337 8.50004C1.33337 7.57782 1.50837 6.71115 1.85837 5.90004C2.20837 5.08893 2.68522 4.38337 3.28892 3.78337C3.89264 3.18337 4.60005 2.70837 5.41116 2.35837C6.22227 2.00837 7.08523 1.83337 8.00004 1.83337C8.92226 1.83337 9.78893 2.00837 10.6 2.35837C11.4112 2.70837 12.1167 3.18337 12.7167 3.78337C13.3167 4.38337 13.7917 5.08893 14.1417 5.90004C14.4917 6.71115 14.6667 7.57782 14.6667 8.50004C14.6667 9.41485 14.4917 10.2778 14.1417 11.0889C13.7917 11.9 13.3167 12.6074 12.7167 13.2112C12.1167 13.8149 11.4112 14.2917 10.6 14.6417C9.78893 14.9917 8.92226 15.1667 8.00004 15.1667ZM8.00004 14.0556C9.54819 14.0556 10.8612 13.5149 11.9389 12.4334C13.0167 11.3519 13.5556 10.0408 13.5556 8.50004C13.5556 6.9519 13.0167 5.63893 11.9389 4.56114C10.8612 3.48336 9.54819 2.94447 8.00004 2.94447C6.4593 2.94447 5.14819 3.48336 4.06671 4.56114C2.98522 5.63893 2.44447 6.9519 2.44447 8.50004C2.44447 10.0408 2.98522 11.3519 4.06671 12.4334C5.14819 13.5149 6.4593 14.0556 8.00004 14.0556Z" fill="#242734"/>
  </g>
</svg>