<svg xmlns="http://www.w3.org/2000/svg" width="16" height="16" viewBox="0 0 16 16" fill="none">
  <mask id="mask0_211_1344" style="mask-type:alpha" maskUnits="userSpaceOnUse" x="0" y="0" width="16" height="16">
    <rect width="16" height="16" fill="#D9D9D9"/>
  </mask>
  <g mask="url(#mask0_211_1344)">
    <path d="M8.00004 14.6667C7.08523 14.6667 6.22227 14.4917 5.41116 14.1417C4.60005 13.7917 3.89264 13.3149 3.28892 12.7112C2.68522 12.1074 2.20837 11.4 1.85837 10.5889C1.50837 9.77781 1.33337 8.91485 1.33337 8.00004C1.33337 7.07782 1.50837 6.21115 1.85837 5.40004C2.20837 4.58893 2.68522 3.88337 3.28892 3.28337C3.89264 2.68337 4.60005 2.20837 5.41116 1.85837C6.22227 1.50837 7.08523 1.33337 8.00004 1.33337C8.92226 1.33337 9.78893 1.50837 10.6 1.85837C11.4112 2.20837 12.1167 2.68337 12.7167 3.28337C13.3167 3.88337 13.7917 4.58893 14.1417 5.40004C14.4917 6.21115 14.6667 7.07782 14.6667 8.00004C14.6667 8.91485 14.4917 9.77781 14.1417 10.5889C13.7917 11.4 13.3167 12.1074 12.7167 12.7112C12.1167 13.3149 11.4112 13.7917 10.6 14.1417C9.78893 14.4917 8.92226 14.6667 8.00004 14.6667ZM8.00004 13.5556C9.54819 13.5556 10.8612 13.0149 11.9389 11.9334C13.0167 10.8519 13.5556 9.54078 13.5556 8.00004C13.5556 6.4519 13.0167 5.13893 11.9389 4.06114C10.8612 2.98336 9.54819 2.44447 8.00004 2.44447C6.4593 2.44447 5.14819 2.98336 4.06671 4.06114C2.98522 5.13893 2.44447 6.4519 2.44447 8.00004C2.44447 9.54078 2.98522 10.8519 4.06671 11.9334C5.14819 13.0149 6.4593 13.5556 8.00004 13.5556Z" fill="#7E7E7E"/>
  </g>
</svg>