<svg xmlns="http://www.w3.org/2000/svg" xmlns:xlink="http://www.w3.org/1999/xlink" width="55.2" height="55.2" viewBox="0 0 55.2 55.2">
  <defs>
    <filter id="Path_1" x="0" y="0" width="55.2" height="55.2" filterUnits="userSpaceOnUse">
      <feOffset dy="8" input="SourceAlpha"/>
      <feGaussianBlur stdDeviation="4" result="blur"/>
      <feFlood flood-opacity="0.255"/>
      <feComposite operator="in" in2="blur"/>
      <feComposite in="SourceGraphic"/>
    </filter>
  </defs>
  <g id="signs" transform="translate(12 3.995)">
    <g transform="matrix(1, 0, 0, 1, -12, -4)" filter="url(#Path_1)">
      <path id="Path_1-2" data-name="Path 1" d="M26.636,4.569a15.6,15.6,0,1,0,0,22.073A15.625,15.625,0,0,0,26.636,4.569ZM22.037,20.2A1.3,1.3,0,1,1,20.2,22.043l-4.6-4.6-4.6,4.6A1.3,1.3,0,1,1,9.165,20.2l4.6-4.6-4.6-4.6A1.3,1.3,0,0,1,11,9.168l4.6,4.6,4.6-4.6a1.3,1.3,0,1,1,1.839,1.839l-4.6,4.6Z" transform="translate(12 4)" fill="#fff"/>
    </g>
  </g>
</svg>
