<svg width="32" height="32" viewBox="0 0 32 32" fill="none" xmlns="http://www.w3.org/2000/svg">
<g id="close">
<mask id="mask0_4907_35961" style="mask-type:alpha" maskUnits="userSpaceOnUse" x="0" y="0" width="32" height="32">
<rect id="Bounding box" width="32" height="32" fill="#D9D9D9"/>
</mask>
<g mask="url(#mask0_4907_35961)">
<path id="close_2" d="M16.0001 17.5551L9.1556 24.3996C8.9408 24.6144 8.68154 24.7218 8.37783 24.7218C8.07414 24.7218 7.81489 24.6144 7.60007 24.3996C7.38524 24.1848 7.27783 23.9255 7.27783 23.6218C7.27783 23.3181 7.38524 23.0588 7.60007 22.844L14.4445 15.9996L7.60007 9.15511C7.38524 8.94031 7.27783 8.68105 7.27783 8.37734C7.27783 8.07365 7.38524 7.8144 7.60007 7.59958C7.81489 7.38475 8.07414 7.27734 8.37783 7.27734C8.68154 7.27734 8.9408 7.38475 9.1556 7.59958L16.0001 14.444L22.8445 7.59958C23.0593 7.38475 23.3186 7.27734 23.6223 7.27734C23.926 7.27734 24.1852 7.38475 24.4001 7.59958C24.6149 7.8144 24.7223 8.07365 24.7223 8.37734C24.7223 8.68105 24.6149 8.94031 24.4001 9.15511L17.5556 15.9996L24.4001 22.844C24.6149 23.0588 24.7223 23.3181 24.7223 23.6218C24.7223 23.9255 24.6149 24.1848 24.4001 24.3996C24.1852 24.6144 23.926 24.7218 23.6223 24.7218C23.3186 24.7218 23.0593 24.6144 22.8445 24.3996L16.0001 17.5551Z" fill="white"/>
</g>
</g>
</svg>
