<svg xmlns="http://www.w3.org/2000/svg" width="17" height="16" viewBox="0 0 17 16" fill="none">
  <mask id="mask0_1535_5533" style="mask-type:alpha" maskUnits="userSpaceOnUse" x="0" y="0" width="17" height="16">
    <rect x="0.5" width="16" height="16" fill="#D9D9D9"/>
  </mask>
  <g mask="url(#mask0_1535_5533)">
    <path d="M3.16689 12.8888V7.46113L2.27806 8.14446C2.15206 8.24068 2.015 8.27768 1.86689 8.25546C1.71878 8.23324 1.59656 8.15918 1.50023 8.03329C1.40389 7.9074 1.36684 7.77035 1.38906 7.62213C1.41128 7.47402 1.4835 7.35179 1.60573 7.25546L3.16689 6.06663V4.66663C3.16689 4.5074 3.21967 4.37501 3.32523 4.26946C3.43078 4.1639 3.56317 4.11113 3.72239 4.11113C3.88173 4.11113 4.01417 4.1639 4.11973 4.26946C4.22528 4.37501 4.27806 4.5074 4.27806 4.66663V5.21663L7.82806 2.51663C7.92806 2.44251 8.0345 2.38513 8.14739 2.34446C8.26039 2.30368 8.378 2.28329 8.50023 2.28329C8.62245 2.28329 8.74006 2.30368 8.85306 2.34446C8.96595 2.38513 9.07239 2.44251 9.17239 2.51663L15.4057 7.26663C15.5279 7.36296 15.5983 7.48518 15.6169 7.63329C15.6354 7.7814 15.5966 7.91846 15.5002 8.04446C15.4039 8.16668 15.2835 8.23702 15.1391 8.25546C14.9946 8.27402 14.8613 8.23513 14.7391 8.13879L13.8336 7.46113V12.8888C13.8336 13.1962 13.7252 13.4583 13.5086 13.675C13.2919 13.8916 13.0298 14 12.7224 14H9.33356C9.25945 14 9.19462 13.9722 9.13906 13.9166C9.08351 13.8611 9.05573 13.7962 9.05573 13.7221V10.7778C9.05573 10.6185 9.00295 10.486 8.89739 10.3805C8.79184 10.2749 8.65945 10.2221 8.50023 10.2221C8.341 10.2221 8.20862 10.2749 8.10306 10.3805C7.99751 10.486 7.94473 10.6185 7.94473 10.7778V13.7221C7.94473 13.7962 7.91695 13.8611 7.86139 13.9166C7.80584 13.9722 7.741 14 7.66689 14H4.27806C3.97062 14 3.70856 13.8916 3.49189 13.675C3.27523 13.4583 3.16689 13.1962 3.16689 12.8888ZM3.84473 3.33329C3.64839 3.33329 3.49189 3.25735 3.37523 3.10546C3.25856 2.95368 3.23912 2.79257 3.31689 2.62213C3.46134 2.2629 3.69189 1.97679 4.00856 1.76379C4.32523 1.5509 4.67428 1.44446 5.05573 1.44446C5.20017 1.44446 5.33539 1.40835 5.46139 1.33613C5.58728 1.2639 5.68173 1.16113 5.74473 1.02779C5.80028 0.927792 5.87156 0.842571 5.95856 0.772126C6.04556 0.701793 6.15017 0.666626 6.27239 0.666626C6.46873 0.666626 6.62428 0.74257 6.73906 0.894459C6.85395 1.04624 6.87251 1.20735 6.79473 1.37779C6.64284 1.73701 6.41039 2.02313 6.09739 2.23613C5.7845 2.44901 5.43728 2.55546 5.05573 2.55546C4.91128 2.55546 4.77795 2.59251 4.65573 2.66663C4.5335 2.74074 4.43723 2.84257 4.36689 2.97213C4.31134 3.07213 4.24095 3.15735 4.15573 3.22779C4.07062 3.29813 3.96695 3.33329 3.84473 3.33329Z" fill="#232734"/>
  </g>
</svg>