<svg xmlns="http://www.w3.org/2000/svg" width="17" height="16" viewBox="0 0 17 16" fill="none">
  <mask id="mask0_1612_1978" style="mask-type:alpha" maskUnits="userSpaceOnUse" x="0" y="0" width="17" height="17">
    <rect x="0.5" y="0.00012207" width="16" height="16" fill="#D9D9D9"/>
  </mask>
  <g mask="url(#mask0_1612_1978)">
    <path d="M9.97184 11.5113C10.0867 11.4076 10.1478 11.2798 10.1552 11.128C10.1626 10.9761 10.1126 10.8428 10.0052 10.728L8.09968 8.70016L8.11634 8.65016H8.22751C8.82006 8.65016 9.32468 8.47794 9.74134 8.1335C10.158 7.78905 10.4108 7.35016 10.4997 6.81683H10.7718C10.883 6.81683 10.9746 6.77794 11.0468 6.70016C11.1191 6.62239 11.1552 6.52794 11.1552 6.41683C11.1552 6.30572 11.1191 6.21405 11.0468 6.14183C10.9746 6.06961 10.883 6.0335 10.7718 6.0335H10.483C10.4497 5.86683 10.3932 5.70666 10.3135 5.553C10.234 5.39922 10.1405 5.25383 10.033 5.11683H10.7718C10.883 5.11683 10.9746 5.07794 11.0468 5.00016C11.1191 4.92239 11.1552 4.82794 11.1552 4.71683C11.1552 4.60572 11.1172 4.51405 11.0413 4.44183C10.9655 4.36961 10.872 4.3335 10.7608 4.3335H6.26084C6.14229 4.3335 6.04317 4.37516 5.96351 4.4585C5.88395 4.54183 5.84417 4.64277 5.84417 4.76133C5.84417 4.87977 5.88584 4.97789 5.96917 5.05566C6.05251 5.13344 6.1534 5.17233 6.27184 5.17233H8.17751C8.52562 5.17233 8.80245 5.252 9.00801 5.41133C9.21356 5.57055 9.3534 5.77794 9.42751 6.0335H6.22751C6.1164 6.0335 6.02473 6.07239 5.95251 6.15016C5.88029 6.22794 5.84417 6.32239 5.84417 6.4335C5.84417 6.54461 5.88029 6.63627 5.95251 6.7085C6.02473 6.78072 6.1164 6.81683 6.22751 6.81683H9.43301C9.37379 7.0835 9.23673 7.30477 9.02184 7.48066C8.80706 7.65666 8.50895 7.74466 8.12751 7.74466H7.00517C6.88295 7.74466 6.77651 7.77427 6.68584 7.8335C6.59506 7.89272 6.52929 7.97233 6.48851 8.07233C6.44784 8.17233 6.43306 8.27327 6.44418 8.37516C6.45529 8.47705 6.5034 8.57611 6.58851 8.67233L9.17751 11.4947C9.28117 11.6094 9.41079 11.6668 9.56634 11.6668C9.7219 11.6668 9.85706 11.615 9.97184 11.5113ZM8.49967 14.6668C7.5849 14.6668 6.72195 14.4918 5.91084 14.1418C5.09973 13.7918 4.39229 13.315 3.78851 12.7113C3.18484 12.1076 2.70801 11.4001 2.35801 10.589C2.00801 9.77788 1.83301 8.91494 1.83301 8.00016C1.83301 7.07794 2.00801 6.21127 2.35801 5.40016C2.70801 4.58905 3.18484 3.8835 3.78851 3.2835C4.39229 2.6835 5.09973 2.2085 5.91084 1.8585C6.72195 1.5085 7.5849 1.3335 8.49967 1.3335C9.4219 1.3335 10.2886 1.5085 11.0997 1.8585C11.9108 2.2085 12.6163 2.6835 13.2163 3.2835C13.8163 3.8835 14.2913 4.58905 14.6413 5.40016C14.9913 6.21127 15.1663 7.07794 15.1663 8.00016C15.1663 8.91494 14.9913 9.77788 14.6413 10.589C14.2913 11.4001 13.8163 12.1076 13.2163 12.7113C12.6163 13.315 11.9108 13.7918 11.0997 14.1418C10.2886 14.4918 9.4219 14.6668 8.49967 14.6668Z" fill="white"/>
  </g>
</svg>