<svg xmlns="http://www.w3.org/2000/svg" width="17" height="16" viewBox="0 0 17 16" fill="none">
  <mask id="mask0_1535_5554" style="mask-type:alpha" maskUnits="userSpaceOnUse" x="0" y="0" width="17" height="17">
    <rect x="0.5" y="0.00012207" width="16" height="16" fill="#D9D9D9"/>
  </mask>
  <g mask="url(#mask0_1535_5554)">
    <path d="M9.97233 11.5113C10.0872 11.4076 10.1483 11.2798 10.1557 11.128C10.1631 10.9761 10.1131 10.8428 10.0057 10.728L8.10016 8.70016L8.11683 8.65016H8.228C8.82055 8.65016 9.32516 8.47794 9.74183 8.1335C10.1585 7.78905 10.4113 7.35016 10.5002 6.81683H10.7723C10.8834 6.81683 10.9751 6.77794 11.0473 6.70016C11.1196 6.62239 11.1557 6.52794 11.1557 6.41683C11.1557 6.30572 11.1196 6.21405 11.0473 6.14183C10.9751 6.06961 10.8834 6.0335 10.7723 6.0335H10.4835C10.4502 5.86683 10.3937 5.70666 10.314 5.553C10.2344 5.39922 10.1409 5.25383 10.0335 5.11683H10.7723C10.8834 5.11683 10.9751 5.07794 11.0473 5.00016C11.1196 4.92239 11.1557 4.82794 11.1557 4.71683C11.1557 4.60572 11.1177 4.51405 11.0418 4.44183C10.9659 4.36961 10.8724 4.3335 10.7613 4.3335H6.26133C6.14277 4.3335 6.04366 4.37516 5.964 4.4585C5.88444 4.54183 5.84466 4.64277 5.84466 4.76133C5.84466 4.87977 5.88633 4.97789 5.96966 5.05566C6.053 5.13344 6.15388 5.17233 6.27233 5.17233H8.178C8.52611 5.17233 8.80294 5.252 9.0085 5.41133C9.21405 5.57055 9.35389 5.77794 9.428 6.0335H6.228C6.11689 6.0335 6.02522 6.07239 5.953 6.15016C5.88077 6.22794 5.84466 6.32239 5.84466 6.4335C5.84466 6.54461 5.88077 6.63627 5.953 6.7085C6.02522 6.78072 6.11689 6.81683 6.228 6.81683H9.4335C9.37427 7.0835 9.23722 7.30477 9.02233 7.48066C8.80755 7.65666 8.50944 7.74466 8.128 7.74466H7.00566C6.88344 7.74466 6.777 7.77427 6.68633 7.8335C6.59555 7.89272 6.52977 7.97233 6.489 8.07233C6.44833 8.17233 6.43355 8.27327 6.44466 8.37516C6.45577 8.47705 6.50389 8.57611 6.589 8.67233L9.178 11.4947C9.28166 11.6094 9.41127 11.6668 9.56683 11.6668C9.72239 11.6668 9.85755 11.615 9.97233 11.5113ZM8.50016 14.6668C7.58538 14.6668 6.72244 14.4918 5.91133 14.1418C5.10022 13.7918 4.39277 13.315 3.789 12.7113C3.18533 12.1076 2.7085 11.4001 2.3585 10.589C2.0085 9.77788 1.8335 8.91494 1.8335 8.00016C1.8335 7.07794 2.0085 6.21127 2.3585 5.40016C2.7085 4.58905 3.18533 3.8835 3.789 3.2835C4.39277 2.6835 5.10022 2.2085 5.91133 1.8585C6.72244 1.5085 7.58538 1.3335 8.50016 1.3335C9.42239 1.3335 10.2891 1.5085 11.1002 1.8585C11.9113 2.2085 12.6168 2.6835 13.2168 3.2835C13.8168 3.8835 14.2918 4.58905 14.6418 5.40016C14.9918 6.21127 15.1668 7.07794 15.1668 8.00016C15.1668 8.91494 14.9918 9.77788 14.6418 10.589C14.2918 11.4001 13.8168 12.1076 13.2168 12.7113C12.6168 13.315 11.9113 13.7918 11.1002 14.1418C10.2891 14.4918 9.42239 14.6668 8.50016 14.6668Z" fill="#232734"/>
  </g>
</svg>