<svg width="136" height="26" viewBox="0 0 136 26" fill="none" xmlns="http://www.w3.org/2000/svg">
<g id="Group 1429">
<path id="Path 119" d="M0.849609 7.16622H3.45282V5.82624C3.45282 4.33869 3.6122 3.22303 3.93096 2.48515C4.24972 1.75319 4.83412 1.15108 5.67825 0.690643C6.53417 0.230213 7.60853 0 8.90718 0C10.2472 0 11.5517 0.200703 12.8327 0.596197L12.201 3.87236C11.4573 3.68936 10.7371 3.60672 10.0465 3.60672C9.36169 3.60672 8.87765 3.76019 8.58251 4.07896C8.28734 4.39772 8.14567 5.00573 8.14567 5.90888V7.16031H11.652V10.8497H8.14567V24.887H3.45282V10.8556H0.849609V7.16622ZM17.7971 12.5733L13.541 11.806C14.0192 10.0882 14.8397 8.82496 16.0085 7.99853C17.1831 7.17802 18.9127 6.76481 21.2149 6.76481C23.3104 6.76481 24.8688 7.01274 25.89 7.50858C26.9113 8.00444 27.6314 8.63016 28.0505 9.39164C28.4637 10.1531 28.6763 11.5521 28.6763 13.5887L28.6231 19.0666C28.6231 20.625 28.6999 21.7761 28.8533 22.514C29.0009 23.2518 29.2843 24.0487 29.6975 24.887H25.0518C24.9338 24.5741 24.7803 24.1137 24.6032 23.4998C24.5264 23.2223 24.4733 23.0393 24.4379 22.9449C23.6351 23.7241 22.7792 24.3085 21.8701 24.6981C20.9552 25.0995 19.9812 25.2943 18.9481 25.2943C17.1241 25.2943 15.6838 24.7984 14.6331 23.8126C13.5764 22.8209 13.057 21.5695 13.057 20.0524C13.057 19.0548 13.2931 18.1635 13.7771 17.3725C14.2553 16.5874 14.9282 15.9912 15.7901 15.5721C16.6519 15.1588 17.8974 14.7929 19.5207 14.48C21.7107 14.0727 23.2278 13.6831 24.0719 13.3289V12.8626C24.0719 11.9594 23.8476 11.316 23.4049 10.9323C22.9622 10.5486 22.124 10.3597 20.8843 10.3597C20.0461 10.3597 19.3968 10.525 18.9304 10.8556C18.4641 11.1743 18.0863 11.7469 17.7971 12.5733ZM24.0719 16.3808C23.4757 16.5815 22.5194 16.8176 21.2149 17.1009C19.9162 17.3784 19.0662 17.6558 18.6648 17.9155C18.0568 18.3524 17.7498 18.9013 17.7498 19.5684C17.7498 20.2295 17.9978 20.7903 18.4877 21.2743C18.9777 21.7525 19.5975 21.9945 20.3589 21.9945C21.209 21.9945 22.0118 21.7171 22.7792 21.1622C23.3459 20.7431 23.7178 20.2236 23.8948 19.6038C24.0188 19.2083 24.0778 18.4409 24.0778 17.3193V16.3808H24.0719Z" fill="#242734"/>
<path id="Path 138" d="M36.8326 10.4347V7.69569C36.8326 7.3179 36.4253 7.08769 36.1006 7.27658L33.0724 9.07109C32.488 9.41937 32.1279 10.051 32.1279 10.7357V12.5479V24.8852C33.2967 24.8852 35.6697 24.8852 36.8326 24.8852V13.0202C37.5646 10.0451 42.2751 15.706 44.8902 6.85156C41.8561 9.11831 38.2847 6.21404 36.8326 10.4347Z" fill="#73BE44"/>
<path id="Path 120" d="M46.3379 7.16658H50.6648V9.5809C52.2113 7.69785 54.0531 6.75928 56.19 6.75928C57.3233 6.75928 58.3091 6.9954 59.1414 7.46173C59.9797 7.92806 60.6644 8.63643 61.2016 9.5809C61.9749 8.63643 62.819 7.92806 63.7222 7.46173C64.6195 6.9954 65.5875 6.75928 66.6087 6.75928C67.9074 6.75928 69.0112 7.02491 69.9144 7.55618C70.8117 8.08154 71.4846 8.86074 71.9332 9.88195C72.2579 10.6375 72.4172 11.8653 72.4172 13.5595V24.8932H67.7303V14.7637C67.7303 13.0046 67.5709 11.8713 67.2463 11.3577C66.8153 10.6907 66.1483 10.3542 65.2451 10.3542C64.584 10.3542 63.9701 10.5549 63.3857 10.9563C62.8131 11.3577 62.394 11.9421 62.1402 12.7154C61.8864 13.4887 61.7506 14.7106 61.7506 16.3811V24.8932H57.0636V15.1769C57.0636 13.4533 56.981 12.3376 56.8157 11.8358C56.6504 11.3341 56.3907 10.9622 56.0424 10.7202C55.6882 10.4723 55.216 10.3483 54.6139 10.3483C53.8878 10.3483 53.2385 10.5431 52.6659 10.9327C52.0874 11.3223 51.6683 11.8831 51.4204 12.6209C51.1724 13.3588 51.0426 14.5689 51.0426 16.2749V24.8873H46.3556V7.16658H46.3379Z" fill="#242734"/>
<path id="Path 121" d="M75.7061 24.8937V0.419922H80.4048V13.4065L85.8887 7.16703H91.6677L85.6113 13.6426L92.0986 24.8937H87.0457L82.5831 16.9365L80.4048 19.2209V24.8937H75.7061Z" fill="#242734"/>
<path id="Path 122" d="M97.831 12.5678L93.5749 11.8004C94.053 10.0826 94.8735 8.81941 96.0423 7.993C97.217 7.17248 98.9466 6.75928 101.249 6.75928C103.344 6.75928 104.903 7.0072 105.924 7.50305C106.945 7.9989 107.665 8.62462 108.084 9.38609C108.498 10.1476 108.71 11.5466 108.71 13.5831L108.657 19.0611C108.657 20.6195 108.734 21.7705 108.887 22.5084C109.035 23.2463 109.318 24.0432 109.731 24.8814H105.086C104.968 24.5686 104.814 24.1081 104.637 23.4942C104.56 23.2168 104.507 23.0338 104.472 22.9393C103.669 23.7185 102.813 24.3029 101.904 24.6925C100.995 25.0821 100.021 25.271 98.982 25.271C97.158 25.271 95.7176 24.7752 94.6669 23.7894C93.6103 22.7977 93.0908 21.5462 93.0908 20.0292C93.0908 19.0316 93.3328 18.1402 93.811 17.3492C94.2891 16.5641 94.9621 15.9679 95.8239 15.5488C96.6857 15.1356 97.9313 14.7696 99.5546 14.4567C101.745 14.0494 103.262 13.6598 104.106 13.3057V12.8393C104.106 11.9362 103.881 11.2928 103.439 10.9091C102.996 10.5254 102.158 10.3365 100.918 10.3365C100.08 10.3365 99.4306 10.5017 98.9643 10.8323C98.4979 11.1688 98.1201 11.7414 97.831 12.5678ZM104.106 16.3752C103.51 16.5759 102.559 16.812 101.249 17.0954C99.9501 17.3728 99.1001 17.6503 98.6987 17.91C98.0907 18.3468 97.7837 18.8958 97.7837 19.5628C97.7837 20.224 98.0316 20.7848 98.5216 21.2688C99.0115 21.7469 99.6313 21.989 100.393 21.989C101.243 21.989 102.046 21.7115 102.813 21.1566C103.386 20.7375 103.752 20.2181 103.929 19.5983C104.053 19.2027 104.112 18.4354 104.112 17.3138V16.3752H104.106Z" fill="#242734"/>
<path id="Path 123" d="M116.736 24.8932H112.049V7.16659H116.399V9.68715C117.143 8.49476 117.816 7.70966 118.412 7.33187C119.008 6.95407 119.681 6.75928 120.443 6.75928C121.511 6.75928 122.538 7.05443 123.53 7.65063L122.078 11.7355C121.293 11.2278 120.555 10.974 119.876 10.974C119.215 10.974 118.66 11.1511 118.206 11.5171C117.745 11.8772 117.391 12.5324 117.131 13.4769C116.872 14.4213 116.736 16.4047 116.736 19.4212V24.8932Z" fill="#242734"/>
<path id="Path 124" d="M134.773 7.16878V10.9054H131.573V18.048C131.573 19.4942 131.603 20.3383 131.662 20.5803C131.727 20.8224 131.862 21.0113 132.075 21.1707C132.293 21.3241 132.559 21.4068 132.866 21.4068C133.303 21.4068 133.934 21.2533 134.755 20.9581L135.15 24.5944C134.058 25.0607 132.825 25.2968 131.443 25.2968C130.599 25.2968 129.838 25.1552 129.159 24.8777C128.48 24.5944 127.984 24.2225 127.666 23.7739C127.347 23.3252 127.128 22.7172 127.004 21.9439C126.91 21.4009 126.857 20.297 126.857 18.6383V10.9054H124.702V7.16878H126.857V3.6447L131.561 0.911621V7.17469H134.773V7.16878Z" fill="#242734"/>
</g>
</svg>
