<svg xmlns="http://www.w3.org/2000/svg" width="24" height="24" viewBox="0 0 24 24" fill="none">
  <g opacity="0.5">
    <mask id="mask0_1878_3614" style="mask-type:alpha" maskUnits="userSpaceOnUse" x="0" y="0" width="24" height="24">
      <rect width="24" height="24" fill="#D9D9D9"/>
    </mask>
    <g mask="url(#mask0_1878_3614)">
      <path d="M12.029 20.5C9.66671 20.5 7.65946 19.6739 6.0073 18.0218C4.3553 16.3696 3.5293 14.3623 3.5293 12C3.5293 10.0517 4.09755 8.34018 5.23405 6.86551C6.37055 5.39068 7.90863 4.39085 9.8483 3.86601C10.1193 3.78868 10.3507 3.77526 10.5425 3.82576C10.7344 3.8761 10.8893 3.97243 11.0073 4.11476C11.121 4.25026 11.1834 4.41918 11.1945 4.62151C11.2055 4.82384 11.1605 5.04851 11.0593 5.29551C10.9161 5.64635 10.8086 6.00393 10.7368 6.36826C10.665 6.73243 10.629 7.10968 10.629 7.50001C10.629 9.13884 11.2027 10.5319 12.35 11.6793C13.4972 12.8264 14.8902 13.4 16.529 13.4C16.9705 13.4 17.3868 13.3564 17.7778 13.2693C18.1688 13.1821 18.5233 13.0881 18.8413 12.9873C19.0976 12.9086 19.3215 12.8826 19.513 12.9093C19.7045 12.9361 19.8611 13.0014 19.9828 13.1053C20.1056 13.2091 20.1861 13.3534 20.2243 13.5383C20.2625 13.7231 20.2461 13.9433 20.1753 14.1988C19.7141 16.0278 18.7433 17.5353 17.2628 18.7213C15.7823 19.9071 14.0377 20.5 12.029 20.5ZM12.029 19.2435C13.665 19.2435 15.1115 18.7616 16.3683 17.7978C17.6251 16.8339 18.4706 15.6511 18.9048 14.2493C18.533 14.3823 18.146 14.4833 17.7438 14.5525C17.3418 14.6218 16.9369 14.6565 16.529 14.6565C14.5432 14.6565 12.854 13.9603 11.4615 12.5678C10.069 11.1753 9.3728 9.48601 9.3728 7.50001C9.3728 7.13085 9.40571 6.74968 9.47155 6.35651C9.53721 5.96335 9.64555 5.54026 9.79655 5.08726C8.33405 5.57776 7.1333 6.4581 6.1943 7.72826C5.25513 8.99843 4.78555 10.4223 4.78555 12C4.78555 14.0085 5.49071 15.7179 6.90105 17.1283C8.31121 18.5384 10.0205 19.2435 12.029 19.2435Z" fill="currentColor"/>
    </g>
  </g>
</svg>