<svg xmlns="http://www.w3.org/2000/svg" width="16" height="16" viewBox="0 0 16 16" fill="none">
  <mask id="mask0_331_7302" style="mask-type:alpha" maskUnits="userSpaceOnUse" x="0" y="0" width="16" height="16">
    <rect width="16" height="16" fill="#D9D9D9"/>
  </mask>
  <g mask="url(#mask0_331_7302)">
    <path d="M7.99992 14.6663C7.08514 14.6663 6.2222 14.4913 5.41109 14.1413C4.59997 13.7913 3.89253 13.3145 3.28875 12.7108C2.68509 12.1071 2.20825 11.3996 1.85825 10.5885C1.50825 9.7774 1.33325 8.91445 1.33325 7.99967C1.33325 7.07745 1.50825 6.21079 1.85825 5.39967C2.20825 4.58856 2.68509 3.88301 3.28875 3.28301C3.89253 2.68301 4.59997 2.20801 5.41109 1.85801C6.2222 1.50801 7.08514 1.33301 7.99992 1.33301C8.92214 1.33301 9.78881 1.50801 10.5999 1.85801C11.411 2.20801 12.1166 2.68301 12.7166 3.28301C13.3166 3.88301 13.7916 4.58856 14.1416 5.39967C14.4916 6.21079 14.6666 7.07745 14.6666 7.99967C14.6666 8.91445 14.4916 9.7774 14.1416 10.5885C13.7916 11.3996 13.3166 12.1071 12.7166 12.7108C12.1166 13.3145 11.411 13.7913 10.5999 14.1413C9.78881 14.4913 8.92214 14.6663 7.99992 14.6663ZM7.99992 13.5552C9.54803 13.5552 10.861 13.0145 11.9388 11.933C13.0165 10.8516 13.5554 9.54045 13.5554 7.99967C13.5554 6.45156 13.0165 5.13862 11.9388 4.06084C10.861 2.98306 9.54803 2.44417 7.99992 2.44417C6.45914 2.44417 5.14803 2.98306 4.06659 4.06084C2.98514 5.13862 2.44442 6.45156 2.44442 7.99967C2.44442 9.54045 2.98514 10.8516 4.06659 11.933C5.14803 13.0145 6.45914 13.5552 7.99992 13.5552ZM7.99992 13.5552C6.45914 13.5552 5.14803 13.0145 4.06659 11.933C2.98514 10.8516 2.44442 9.54045 2.44442 7.99967C2.44442 6.45156 2.98514 5.13862 4.06659 4.06084C5.14803 2.98306 6.45914 2.44417 7.99992 2.44417C9.54803 2.44417 10.861 2.98306 11.9388 4.06084C13.0165 5.13862 13.5554 6.45156 13.5554 7.99967C13.5554 9.54045 13.0165 10.8516 11.9388 11.933C10.861 13.0145 9.54803 13.5552 7.99992 13.5552Z" fill="#73BE44"/>
  </g>
</svg>