<svg width="24" height="24" viewBox="0 0 24 24" fill="none" xmlns="http://www.w3.org/2000/svg">
<mask id="mask0_5033_272" style="mask-type:alpha" maskUnits="userSpaceOnUse" x="0" y="0" width="24" height="24">
<rect width="24" height="24" fill="#D9D9D9"/>
</mask>
<g mask="url(#mask0_5033_272)">
<path d="M11.9999 15.0584C11.8888 15.0584 11.786 15.0403 11.6916 15.0042C11.5971 14.9681 11.5054 14.9056 11.4166 14.8167L6.58321 9.98335C6.42211 9.82225 6.34434 9.62503 6.34989 9.3917C6.35544 9.15837 6.43877 8.96114 6.59989 8.80002C6.761 8.63891 6.95822 8.55835 7.19154 8.55835C7.42487 8.55835 7.6221 8.63891 7.78321 8.80002L11.9999 13.0334L16.2332 8.80002C16.3943 8.63891 16.5888 8.56113 16.8166 8.5667C17.0443 8.57225 17.2388 8.65558 17.3999 8.8167C17.561 8.9778 17.6416 9.17502 17.6416 9.40835C17.6416 9.64168 17.561 9.83891 17.3999 10L12.5832 14.8167C12.4943 14.9056 12.4027 14.9681 12.3082 15.0042C12.2138 15.0403 12.111 15.0584 11.9999 15.0584Z" fill="#7E7E7E"/>
</g>
</svg>
