<svg width="24" height="24" viewBox="0 0 24 24" fill="none" xmlns="http://www.w3.org/2000/svg">
<g id="keyboard_arrow_up">
<mask id="mask0_5381_10510" style="mask-type:alpha" maskUnits="userSpaceOnUse" x="0" y="0" width="24" height="24">
<rect id="Bounding box" width="24" height="24" fill="#D9D9D9"/>
</mask>
<g mask="url(#mask0_5381_10510)">
<path id="keyboard_arrow_up_2" d="M12.0001 10.3673L7.76672 14.6007C7.60562 14.7618 7.41118 14.8396 7.1834 14.834C6.95563 14.8284 6.76119 14.7451 6.60007 14.584C6.43896 14.4229 6.3584 14.2257 6.3584 13.9923C6.3584 13.759 6.43896 13.5618 6.60007 13.4007L11.4167 8.58398C11.5834 8.41732 11.7779 8.33398 12.0001 8.33398C12.2223 8.33398 12.4167 8.41732 12.5834 8.58398L17.4167 13.4173C17.5778 13.5784 17.6584 13.7729 17.6584 14.0007C17.6584 14.2284 17.5778 14.4229 17.4167 14.584C17.2556 14.7451 17.0584 14.8257 16.8251 14.8257C16.5917 14.8257 16.3945 14.7451 16.2334 14.584L12.0001 10.3673Z" fill="#7E7E7E"/>
</g>
</g>
</svg>
