<svg xmlns="http://www.w3.org/2000/svg" id="Prototype" width="170.431" height="170.431" viewBox="0 0 170.431 170.431">
    <defs>
        <style>
            .cls-1{fill:#d07c3f}.cls-2{fill:#edbe43}.cls-3{fill:#dca34f}.cls-4{fill:#cba94f}.cls-5{fill:#fff}.cls-6{fill:#72bf44}
        </style>
    </defs>
    <g id="Group-19">
        <path id="Shape" d="M5 0h153.388v133.246H5.132z" class="cls-1" transform="translate(2.747)"/>
        <path id="Shape-2" d="M0 31.956v128.755c0 6.258 5.06 9.72 11.318 9.72h147.8c6.258 0 11.318-3.462 11.318-9.72V31.956c-.005.133-170.303 0-170.436 0zm23.967-21.171L7.989 0v26.63h15.978V10.785zM162.442 0l-15.978 10.652V26.63h15.978z" class="cls-2" data-name="Shape"/>
        <path id="Shape-3" d="M24.044 28.691V7L0 28.691zM146.255 7v21.691h24.176z" class="cls-3" data-name="Shape" transform="translate(0 3.846)"/>
        <path id="Shape-4" d="M27.32 40A7.216 7.216 0 0 0 20 46.972a7.13 7.13 0 0 0 7.32 6.972 7.216 7.216 0 0 0 7.32-6.972C34.772 43.169 31.445 40 27.32 40zm89.165 0a7.216 7.216 0 0 0-7.32 6.972 7.13 7.13 0 0 0 7.32 6.972 7.216 7.216 0 0 0 7.32-6.972c.132-3.803-3.195-6.972-7.32-6.972z" class="cls-1" data-name="Shape" transform="translate(10.987 21.975)"/>
        <path id="Shape-5" d="M70.031 99.777C43.481 99.777 22 76.4 22 47.586a3.344 3.344 0 1 1 6.671 0c0 24.834 18.545 44.887 41.36 44.887s41.36-20.186 41.36-44.887a3.344 3.344 0 1 1 6.671 0c-.001 28.814-21.614 52.191-48.031 52.191z" class="cls-4" data-name="Shape" transform="translate(12.086 24.172)"/>
        <path id="Shape-6" d="M70.031 95.129A47.925 47.925 0 0 1 22 47.286a3.336 3.336 0 0 1 6.671 0 41.36 41.36 0 0 0 82.719 0 3.336 3.336 0 0 1 6.671 0 48.01 48.01 0 0 1-48.03 47.843z" class="cls-5" data-name="Shape" transform="translate(12.086 24.172)"/>
        <path id="Shape-7" d="M96.638 88.446v-5.014a.838.838 0 0 0-1.337-.716l-5.553 3.274A3.526 3.526 0 0 0 88 88.958v24.966h8.535V93.153c1.337-5.423 9.872 4.911 14.705-11.153-5.552 4.093-12.031-1.228-14.602 6.446z" class="cls-6" data-name="Shape" transform="translate(48.345 45.049)"/>
    </g>
</svg>
