<svg width="24" height="24" viewBox="0 0 24 24" fill="none" xmlns="http://www.w3.org/2000/svg">
<g id="Star">
<mask id="mask0_4937_7317" style="mask-type:alpha" maskUnits="userSpaceOnUse" x="0" y="0" width="24" height="24">
<rect id="Bounding box" width="24" height="24" fill="#D9D9D9"/>
</mask>
<g mask="url(#mask0_4937_7317)">
<path id="star_rate" d="M11.9997 16.3001L7.88292 19.4418C7.72192 19.5695 7.55526 19.6264 7.38292 19.6126C7.21076 19.5988 7.05242 19.5446 6.90792 19.4501C6.76359 19.3556 6.65667 19.2278 6.58717 19.0668C6.51767 18.9057 6.51351 18.7251 6.57467 18.5251L8.14967 13.4001L4.10792 10.5083C3.94126 10.3973 3.83576 10.2529 3.79142 10.0751C3.74692 9.89727 3.75242 9.73335 3.80792 9.58335C3.86359 9.43335 3.95809 9.29868 4.09142 9.17935C4.22476 9.05985 4.39142 9.0001 4.59142 9.0001H9.59967L11.1997 3.66685C11.2608 3.46685 11.3678 3.31543 11.5204 3.2126C11.6733 3.10977 11.833 3.05835 11.9997 3.05835C12.1663 3.05835 12.3261 3.10977 12.4789 3.2126C12.6316 3.31543 12.7385 3.46685 12.7997 3.66685L14.3997 9.0001H19.4079C19.6079 9.0001 19.7746 9.05985 19.9079 9.17935C20.0413 9.29868 20.1358 9.43335 20.1914 9.58335C20.2469 9.73335 20.2524 9.89727 20.2079 10.0751C20.1636 10.2529 20.0581 10.3973 19.8914 10.5083L15.8497 13.4001L17.4247 18.5251C17.4858 18.7251 17.4817 18.9057 17.4122 19.0668C17.3427 19.2278 17.2358 19.3556 17.0914 19.4501C16.9469 19.5446 16.7886 19.5988 16.6164 19.6126C16.4441 19.6264 16.2774 19.5695 16.1164 19.4418L11.9997 16.3001Z" fill="#EFB738"/>
</g>
</g>
</svg>
