<svg width="25" height="24" viewBox="0 0 25 24" fill="none" xmlns="http://www.w3.org/2000/svg">
<g id="grass">
<mask id="mask0_4860_12421" style="mask-type:alpha" maskUnits="userSpaceOnUse" x="0" y="0" width="25" height="24">
<rect id="Bounding box" x="0.5" width="24" height="24" fill="#D9D9D9"/>
</mask>
<g mask="url(#mask0_4860_12421)">
<path id="grass_2" d="M3.26953 19.2306V17.7306H8.57721C8.24259 16.4229 7.60125 15.2951 6.65318 14.347C5.70511 13.3989 4.57723 12.7576 3.26953 12.423C3.57723 12.346 3.88076 12.2883 4.18011 12.2499C4.47947 12.2114 4.79133 12.1922 5.11568 12.1922C7.17593 12.1922 8.92176 12.8502 10.3532 14.1662C11.7846 15.4822 12.5003 17.1703 12.5003 19.2306H3.26953ZM14.0002 19.2306C14.0002 18.7101 13.9493 18.1841 13.8473 17.6527C13.7454 17.1213 13.5913 16.6063 13.3849 16.1076C14.0079 14.9755 14.8804 14.0399 16.0022 13.3008C17.1239 12.5617 18.4182 12.1922 19.8848 12.1922C20.2092 12.1922 20.521 12.2114 20.8204 12.2499C21.1198 12.2883 21.4233 12.346 21.731 12.423C20.4233 12.7576 19.2996 13.3989 18.3598 14.347C17.4201 15.2951 16.7746 16.4229 16.4233 17.7306H21.731V19.2306H14.0002ZM12.6157 14.6595C12.5451 13.5762 12.6746 12.5627 13.0041 11.6191C13.3336 10.6756 13.8163 9.84608 14.4522 9.13069C15.0881 8.41531 15.8512 7.83934 16.7416 7.40279C17.6319 6.96626 18.5944 6.72492 19.6291 6.67877C18.6316 7.30697 17.815 8.05729 17.1791 8.92974C16.5432 9.80218 16.072 10.7345 15.7656 11.7268C15.1284 12.0448 14.5281 12.4692 13.9647 12.9999C13.4012 13.5307 12.9515 14.0839 12.6157 14.6595ZM11.2041 13.0345C10.9913 12.814 10.7496 12.5986 10.4791 12.3884C10.2086 12.1781 9.92976 11.9967 9.64258 11.8441C9.66181 11.7249 9.68137 11.5887 9.70123 11.4355C9.7211 11.2823 9.73103 11.1332 9.73103 10.9883C9.73103 9.81784 9.54546 8.7108 9.17431 7.66722C8.80316 6.62363 8.27976 5.67043 7.60413 4.80762C8.65926 5.23838 9.58619 5.88582 10.3849 6.74992C11.1836 7.61403 11.7708 8.64738 12.1464 9.84994C11.8913 10.3243 11.6842 10.839 11.5253 11.3942C11.3663 11.9493 11.2593 12.4961 11.2041 13.0345Z" fill="#1C1B1F"/>
</g>
</g>
</svg>
