<svg width="20" height="21" viewBox="0 0 20 21" fill="none" xmlns="http://www.w3.org/2000/svg">
<mask id="mask0_4846_11321" style="mask-type:alpha" maskUnits="userSpaceOnUse" x="0" y="0" width="20" height="21">
<rect y="0.5" width="20" height="20" fill="#D9D9D9"/>
</mask>
<g mask="url(#mask0_4846_11321)">
<path d="M7.8889 13.7086C6.38277 13.7086 5.10809 13.1866 4.06485 12.1426C3.02162 11.0986 2.5 9.83356 2.5 8.34745C2.5 6.86134 3.02199 5.59629 4.06598 4.55231C5.10995 3.50832 6.37731 2.98633 7.86806 2.98633C9.3588 2.98633 10.6238 3.50832 11.6632 4.55231C12.7025 5.59629 13.2222 6.86204 13.2222 8.34954C13.2222 8.95 13.125 9.52569 12.9306 10.0766C12.7361 10.6275 12.4537 11.1345 12.0833 11.5975L17 16.4863C17.1343 16.6165 17.2014 16.7821 17.2014 16.9832C17.2014 17.1844 17.1343 17.3521 17 17.4863C16.8657 17.6206 16.698 17.6877 16.4969 17.6877C16.2958 17.6877 16.1302 17.6206 16 17.4863L11.0972 12.5836C10.6806 12.9354 10.197 13.2109 9.6464 13.4099C9.09585 13.609 8.51002 13.7086 7.8889 13.7086ZM7.875 12.3197C8.97454 12.3197 9.90915 11.9319 10.6788 11.1565C11.4485 10.381 11.8333 9.44468 11.8333 8.34745C11.8333 7.25022 11.4485 6.31387 10.6788 5.53841C9.90915 4.76295 8.97454 4.37522 7.875 4.37522C6.76775 4.37522 5.82658 4.76295 5.0515 5.53841C4.27642 6.31387 3.88887 7.25022 3.88887 8.34745C3.88887 9.44468 4.27642 10.381 5.0515 11.1565C5.82658 11.9319 6.76775 12.3197 7.875 12.3197Z" fill="#7E7E7E"/>
</g>
</svg>
