<svg width="40" height="40" viewBox="0 0 40 40" fill="none" xmlns="http://www.w3.org/2000/svg">
<g id="Help">
<mask id="mask0_5886_163" style="mask-type:alpha" maskUnits="userSpaceOnUse" x="0" y="0" width="40" height="40">
<rect id="Bounding box" width="40" height="40" fill="#D9D9D9"/>
</mask>
<g mask="url(#mask0_5886_163)">
<path id="not_listed_location" d="M19.9998 26.5275C20.435 26.5275 20.8124 26.3677 21.1318 26.0483C21.4512 25.7289 21.611 25.3515 21.611 24.9163C21.611 24.4811 21.4512 24.1038 21.1318 23.7844C20.8124 23.4649 20.435 23.3052 19.9998 23.3052C19.5646 23.3052 19.1873 23.4649 18.8679 23.7844C18.5484 24.1038 18.3887 24.4811 18.3887 24.9163C18.3887 25.3515 18.5484 25.7289 18.8679 26.0483C19.1873 26.3677 19.5646 26.5275 19.9998 26.5275ZM24.611 14.3052C24.611 13.0367 24.2128 12.0251 23.4165 11.2705C22.6202 10.5159 21.5693 10.1386 20.2637 10.1386C19.1156 10.1386 18.0855 10.4302 17.1735 11.0136C16.2614 11.5969 15.8054 12.2358 15.8054 12.9302C15.8054 13.1524 15.8563 13.3399 15.9582 13.4927C16.06 13.6455 16.2035 13.7543 16.3887 13.8191C16.6387 13.9302 16.9049 13.9326 17.1873 13.8261C17.4698 13.7196 17.7406 13.5228 17.9998 13.2358C18.2684 12.9302 18.5878 12.6941 18.9582 12.5275C19.3285 12.3608 19.7267 12.2775 20.1526 12.2775C20.8285 12.2775 21.3702 12.465 21.7776 12.84C22.185 13.215 22.3887 13.7034 22.3887 14.3052C22.3887 14.7867 22.2753 15.1988 22.0485 15.5413C21.8216 15.8839 21.4211 16.3099 20.847 16.8191C20.1897 17.4025 19.7035 17.9812 19.3887 18.5552C19.0739 19.1293 18.9165 19.6571 18.9165 20.1386C18.9165 20.4904 19.016 20.7821 19.2151 21.0136C19.4142 21.2451 19.6804 21.3608 20.0137 21.3608C20.3193 21.3608 20.5785 21.2589 20.7915 21.0552C21.0045 20.8515 21.1295 20.5784 21.1665 20.2358C21.2221 19.7636 21.4142 19.3307 21.7429 18.9372C22.0716 18.5436 22.4258 18.1756 22.8054 17.833C23.4443 17.2126 23.9049 16.627 24.1873 16.0761C24.4698 15.5251 24.611 14.9349 24.611 14.3052ZM19.9998 35.7358C19.6665 35.7358 19.3378 35.6802 19.0137 35.5691C18.6897 35.458 18.4026 35.2821 18.1526 35.0413C16.773 33.7821 15.398 32.4303 14.0276 30.9858C12.6573 29.5414 11.4281 28.0437 10.3401 26.4928C9.25216 24.9418 8.36789 23.3631 7.68734 21.7566C7.00678 20.1502 6.6665 18.5645 6.6665 16.9997C6.6665 12.833 8.00678 9.51356 10.6873 7.04134C13.3679 4.56912 16.4721 3.33301 19.9998 3.33301C23.5276 3.33301 26.6318 4.56912 29.3123 7.04134C31.9929 9.51356 33.3332 12.833 33.3332 16.9997C33.3332 18.5645 32.9929 20.1502 32.3123 21.7566C31.6318 23.3631 30.7475 24.9418 29.6595 26.4928C28.5716 28.0437 27.3424 29.5414 25.972 30.9858C24.6017 32.4303 23.2267 33.7821 21.847 35.0413C21.597 35.2821 21.31 35.458 20.986 35.5691C20.6619 35.6802 20.3332 35.7358 19.9998 35.7358Z" fill="#242734"/>
</g>
</g>
</svg>
