<svg xmlns="http://www.w3.org/2000/svg" width="41" height="40" viewBox="0 0 41 40" fill="none">
<g id="home">
<mask id="mask0_7128_3285" style="mask-type:alpha" maskUnits="userSpaceOnUse" x="0" y="0" width="41" height="40">
<rect id="Bounding box" x="0.0517578" width="40" height="40" fill="#D9D9D9"/>
</mask>
<g mask="url(#mask0_7128_3285)">
<path id="home_2" d="M6.71826 32.2221V16.3888C6.71826 15.9489 6.81664 15.5323 7.01339 15.1388C7.21016 14.7453 7.48216 14.4212 7.82939 14.1665L18.3849 6.24988C18.8697 5.87952 19.4238 5.69434 20.0471 5.69434C20.6705 5.69434 21.2275 5.87952 21.7183 6.24988L32.2738 14.1665C32.621 14.4212 32.893 14.7453 33.0898 15.1388C33.2866 15.5323 33.3849 15.9489 33.3849 16.3888V32.2221C33.3849 32.986 33.1129 33.6399 32.569 34.1839C32.025 34.7279 31.3711 34.9999 30.6072 34.9999H24.7738C24.3803 34.9999 24.0504 34.8668 23.7842 34.6006C23.518 34.3344 23.3849 34.0045 23.3849 33.611V24.7221C23.3849 24.3286 23.2518 23.9987 22.9856 23.7325C22.7194 23.4663 22.3896 23.3332 21.9961 23.3332H18.1071C17.7136 23.3332 17.3838 23.4663 17.1176 23.7325C16.8514 23.9987 16.7183 24.3286 16.7183 24.7221V33.611C16.7183 34.0045 16.5852 34.3344 16.319 34.6006C16.0527 34.8668 15.7229 34.9999 15.3294 34.9999H9.49601C8.73212 34.9999 8.07819 34.7279 7.53422 34.1839C6.99025 33.6399 6.71826 32.986 6.71826 32.2221Z" fill="currentColor"/>
</g>
</g>
</svg>