<svg xmlns="http://www.w3.org/2000/svg" width="40" height="40" viewBox="0 0 40 40" fill="none">
<g id="home">
<mask id="mask0_4379_12608" style="mask-type:alpha" maskUnits="userSpaceOnUse" x="0" y="0" width="40" height="40">
<rect id="Bounding box" width="40" height="40" fill="#D9D9D9"/>
</mask>
<g mask="url(#mask0_4379_12608)">
<path id="home_2" d="M6.66663 32.2222V16.3889C6.66663 15.9491 6.765 15.5324 6.96175 15.1389C7.15853 14.7454 7.43053 14.4213 7.77775 14.1667L18.3333 6.25C18.8181 5.87964 19.3722 5.69446 19.9955 5.69446C20.6188 5.69446 21.1759 5.87964 21.6666 6.25L32.2222 14.1667C32.5694 14.4213 32.8414 14.7454 33.0382 15.1389C33.2349 15.5324 33.3333 15.9491 33.3333 16.3889V32.2222C33.3333 32.9861 33.0613 33.6401 32.5173 34.184C31.9734 34.728 31.3194 35 30.5555 35H24.7222C24.3287 35 23.9988 34.8669 23.7326 34.6007C23.4664 34.3345 23.3333 34.0046 23.3333 33.6111V24.7222C23.3333 24.3287 23.2002 23.9988 22.934 23.7326C22.6678 23.4664 22.3379 23.3333 21.9444 23.3333H18.0555C17.662 23.3333 17.3321 23.4664 17.0659 23.7326C16.7997 23.9988 16.6666 24.3287 16.6666 24.7222V33.6111C16.6666 34.0046 16.5335 34.3345 16.2673 34.6007C16.0011 34.8669 15.6713 35 15.2778 35H9.44438C8.68049 35 8.02656 34.728 7.48258 34.184C6.93861 33.6401 6.66663 32.9861 6.66663 32.2222Z" fill="currentColor"/>
</g>
</g>
</svg>