<svg xmlns="http://www.w3.org/2000/svg" width="24" height="24" viewBox="0 0 15 17" fill="none">
  <path d="M1.2565 15.7497H4.968V10.4677C4.968 10.2462 5.04292 10.0605 5.19275 9.9105C5.34275 9.76067 5.5285 9.68575 5.75 9.68575H9.25C9.4715 9.68575 9.65725 9.76067 9.80725 9.9105C9.95708 10.0605 10.032 10.2462 10.032 10.4677V15.7497H13.7435V6.53625C13.7435 6.48492 13.7323 6.43842 13.71 6.39675C13.6875 6.35508 13.657 6.31825 13.6185 6.28625L7.68275 1.8235C7.63142 1.783 7.5705 1.76275 7.5 1.76275C7.4295 1.76275 7.36858 1.783 7.31725 1.8235L1.3815 6.28625C1.343 6.31825 1.3125 6.35508 1.29 6.39675C1.26767 6.43842 1.2565 6.48492 1.2565 6.53625V15.7497ZM0 15.7497V6.53825C0 6.28775 0.0543334 6.05275 0.163 5.83325C0.271833 5.61358 0.426917 5.43192 0.62825 5.28825L6.564 0.814C6.83367 0.604667 7.14425 0.5 7.49575 0.5C7.84725 0.5 8.16067 0.604667 8.436 0.814L14.3718 5.28825C14.5731 5.43192 14.7282 5.61358 14.837 5.83325C14.9457 6.05275 15 6.28775 15 6.53825V15.7497C15 16.0917 14.8761 16.3867 14.6283 16.6345C14.3804 16.8823 14.0855 17.0063 13.7435 17.0063H9.55775C9.33608 17.0063 9.15033 16.9313 9.0005 16.7815C8.85067 16.6315 8.77575 16.4457 8.77575 16.2242V10.942H6.22425V16.2242C6.22425 16.4457 6.14933 16.6315 5.9995 16.7815C5.84967 16.9313 5.66392 17.0063 5.44225 17.0063H1.2565C0.9145 17.0063 0.619583 16.8823 0.37175 16.6345C0.123917 16.3867 0 16.0917 0 15.7497Z" fill="currentColor"/>
</svg>