<svg width="32" height="32" viewBox="0 0 32 32" fill="none" xmlns="http://www.w3.org/2000/svg">
<mask id="mask0_4796_7733" style="mask-type:alpha" maskUnits="userSpaceOnUse" x="0" y="0" width="32" height="32">
<rect width="32" height="32" fill="#D9D9D9"/>
</mask>
<g mask="url(#mask0_4796_7733)">
<path d="M5.33398 25.7777V13.111C5.33398 12.7591 5.41268 12.4258 5.57008 12.111C5.72751 11.7962 5.94511 11.5369 6.22288 11.3332L14.6673 4.99985C15.0552 4.70356 15.4984 4.55542 15.9971 4.55542C16.4958 4.55542 16.9414 4.70356 17.334 4.99985L25.7784 11.3332C26.0562 11.5369 26.2738 11.7962 26.4312 12.111C26.5886 12.4258 26.6673 12.7591 26.6673 13.111V25.7777C26.6673 26.3888 26.4497 26.9119 26.0146 27.3471C25.5794 27.7823 25.0562 27.9999 24.4451 27.9999H19.7784C19.4636 27.9999 19.1997 27.8934 18.9868 27.6804C18.7738 27.4674 18.6673 27.2036 18.6673 26.8888V19.7776C18.6673 19.4628 18.5608 19.1989 18.3479 18.986C18.1349 18.773 17.871 18.6665 17.5562 18.6665H14.4451C14.1303 18.6665 13.8664 18.773 13.6534 18.986C13.4405 19.1989 13.334 19.4628 13.334 19.7776V26.8888C13.334 27.2036 13.2275 27.4674 13.0146 27.6804C12.8016 27.8934 12.5377 27.9999 12.2229 27.9999H7.55618C6.94507 27.9999 6.42193 27.7823 5.98675 27.3471C5.55157 26.9119 5.33398 26.3888 5.33398 25.7777Z" fill="white"/>
</g>
</svg>
