<svg width="24" height="24" viewBox="0 0 24 24" fill="none" xmlns="http://www.w3.org/2000/svg">
<g id="receipt_long">
<mask id="mask0_4937_6141" style="mask-type:alpha" maskUnits="userSpaceOnUse" x="0" y="0" width="24" height="24">
<rect id="Bounding box" width="24" height="24" fill="#D9D9D9"/>
</mask>
<g mask="url(#mask0_4937_6141)">
<path id="receipt_long_2" d="M5.7002 21.9993C4.9363 21.9993 4.28699 21.732 3.75227 21.1973C3.21755 20.6625 2.9502 20.0132 2.9502 19.2493V16.9993C2.9502 16.7632 3.03005 16.5653 3.18977 16.4056C3.34949 16.2459 3.5474 16.166 3.78352 16.166H6.06687V2.49934C6.06687 2.40212 6.10854 2.33615 6.19187 2.30142C6.2752 2.2667 6.35298 2.28545 6.4252 2.35767L7.26687 3.19934C7.35172 3.28822 7.45071 3.33267 7.56385 3.33267C7.67696 3.33267 7.77797 3.28822 7.86687 3.19934L8.76687 2.29934C8.85172 2.21046 8.95071 2.16602 9.06385 2.16602C9.17696 2.16602 9.27797 2.21046 9.36687 2.29934L10.2502 3.19934C10.335 3.28822 10.434 3.33267 10.5472 3.33267C10.6603 3.33267 10.7613 3.28822 10.8502 3.19934L11.7502 2.29934C11.835 2.21046 11.934 2.16602 12.0472 2.16602C12.1603 2.16602 12.2613 2.21046 12.3502 2.29934L13.2502 3.19934C13.335 3.28822 13.434 3.33267 13.5472 3.33267C13.6603 3.33267 13.7613 3.28822 13.8502 3.19934L14.7502 2.29934C14.835 2.21046 14.934 2.16602 15.0472 2.16602C15.1603 2.16602 15.2613 2.21046 15.3502 2.29934L16.2502 3.19934C16.335 3.28822 16.434 3.33267 16.5472 3.33267C16.6603 3.33267 16.7613 3.28822 16.8502 3.19934L17.7502 2.29934C17.835 2.21046 17.934 2.16602 18.0472 2.16602C18.1603 2.16602 18.2613 2.21046 18.3502 2.29934L19.2502 3.19934C19.335 3.28822 19.434 3.33267 19.5472 3.33267C19.6603 3.33267 19.7613 3.28822 19.8502 3.19934L20.6919 2.35767C20.7641 2.28545 20.8419 2.2667 20.9252 2.30142C21.0085 2.33615 21.0502 2.40212 21.0502 2.49934V19.2493C21.0502 20.0132 20.7828 20.6625 20.2481 21.1973C19.7134 21.732 19.0641 21.9993 18.3002 21.9993H5.7002ZM18.3002 20.3327C18.6169 20.3327 18.8766 20.2313 19.0794 20.0285C19.2822 19.8257 19.3835 19.566 19.3835 19.2493V4.66599H7.73352V16.166H16.3835C16.6196 16.166 16.8176 16.2459 16.9773 16.4056C17.137 16.5653 17.2169 16.7632 17.2169 16.9993V19.2468C17.2169 19.5651 17.3183 19.8257 17.521 20.0285C17.7238 20.2313 17.9835 20.3327 18.3002 20.3327ZM9.78352 6.96602H14.1169C14.353 6.96602 14.5509 7.04616 14.7106 7.20644C14.8703 7.36671 14.9502 7.56532 14.9502 7.80227C14.9502 8.0392 14.8703 8.23683 14.7106 8.39517C14.5509 8.5535 14.353 8.63267 14.1169 8.63267H9.78352C9.54742 8.63267 9.3495 8.55252 9.18977 8.39224C9.03005 8.23196 8.9502 8.03335 8.9502 7.79642C8.9502 7.55948 9.03005 7.36185 9.18977 7.20352C9.3495 7.04518 9.54742 6.96602 9.78352 6.96602ZM9.78352 10.1993H14.1169C14.353 10.1993 14.5509 10.2795 14.7106 10.4398C14.8703 10.6 14.9502 10.7987 14.9502 11.0356C14.9502 11.2725 14.8703 11.4702 14.7106 11.6285C14.5509 11.7868 14.353 11.866 14.1169 11.866H9.78352C9.54742 11.866 9.3495 11.7859 9.18977 11.6256C9.03005 11.4653 8.9502 11.2667 8.9502 11.0297C8.9502 10.7928 9.03005 10.5952 9.18977 10.4368C9.3495 10.2785 9.54742 10.1993 9.78352 10.1993ZM17.1669 8.63267C16.9391 8.63267 16.7433 8.55072 16.5794 8.38684C16.4155 8.22294 16.3335 8.02711 16.3335 7.79934C16.3335 7.57156 16.4155 7.37572 16.5794 7.21184C16.7433 7.04796 16.9391 6.96602 17.1669 6.96602C17.3946 6.96602 17.5905 7.04796 17.7544 7.21184C17.9183 7.37572 18.0002 7.57156 18.0002 7.79934C18.0002 8.02711 17.9183 8.22294 17.7544 8.38684C17.5905 8.55072 17.3946 8.63267 17.1669 8.63267ZM17.1669 11.7827C16.9391 11.7827 16.7433 11.7007 16.5794 11.5368C16.4155 11.373 16.3335 11.1771 16.3335 10.9493C16.3335 10.7216 16.4155 10.5257 16.5794 10.3618C16.7433 10.198 16.9391 10.116 17.1669 10.116C17.3946 10.116 17.5905 10.198 17.7544 10.3618C17.9183 10.5257 18.0002 10.7216 18.0002 10.9493C18.0002 11.1771 17.9183 11.373 17.7544 11.5368C17.5905 11.7007 17.3946 11.7827 17.1669 11.7827ZM5.68352 20.3327H15.5502V17.8327H4.61685V19.2493C4.61685 19.566 4.71907 19.8257 4.92352 20.0285C5.12797 20.2313 5.3813 20.3327 5.68352 20.3327Z" fill="#242734"/>
</g>
</g>
</svg>
