<svg width="40" height="40" viewBox="0 0 40 40" fill="none" xmlns="http://www.w3.org/2000/svg">
<g id="Language">
<mask id="mask0_5886_147" style="mask-type:alpha" maskUnits="userSpaceOnUse" x="0" y="0" width="40" height="40">
<rect id="Bounding box" width="40" height="40" fill="#D9D9D9"/>
</mask>
<g mask="url(#mask0_5886_147)">
<path id="Union" fill-rule="evenodd" clip-rule="evenodd" d="M18.333 31.6663L20.0275 36.6663H33.3386C34.3092 36.6663 35.1064 36.3492 35.7304 35.715C36.3544 35.0807 36.6663 34.2867 36.6663 33.333V11.6386C36.6663 10.6696 36.3538 9.87363 35.7288 9.25072C35.1038 8.6278 34.3052 8.31634 33.333 8.31634H18.1247L16.6663 3.33301H6.66634C5.71265 3.33301 4.91866 3.65013 4.28438 4.28438C3.65013 4.91866 3.33301 5.71265 3.33301 6.66634V28.333C3.33301 29.2867 3.65013 30.0807 4.28438 30.715C4.91866 31.3492 5.71265 31.6663 6.66634 31.6663H18.333ZM20.6123 16.7497L22.0006 21.5012L21.9997 21.4997L22.0162 21.5546L22.8127 24.2805L26.3587 16.1294H28.0897L32.9334 27.3732H30.6465L29.5984 24.8004H24.7229L23.7121 27.359L24.9835 31.7103L21.6941 34.9997H33.333C33.8145 34.9997 34.2126 34.8398 34.5275 34.5199C34.8423 34.2001 34.9997 33.8038 34.9997 33.331V11.6386C34.9997 11.1571 34.8423 10.7589 34.5275 10.4441C34.2126 10.1293 33.8145 9.97188 33.333 9.97188H18.6525L20.583 16.7497H20.6123ZM17.5263 14.8644V13.1739H13.7696V18.5898H10.8582C10.6078 18.4228 10.3469 18.3133 10.0756 18.2611V18.2298C10.6286 18.0628 11.0565 17.7706 11.3591 17.3532C11.6617 16.9254 11.813 16.4245 11.813 15.8505C11.813 14.9949 11.5208 14.3114 10.9365 13.8C10.3521 13.2887 9.5799 13.033 8.61986 13.033C7.96244 13.033 7.37807 13.1583 6.86675 13.4087C6.36586 13.6592 5.97454 14.0192 5.69279 14.4888C5.41103 14.9479 5.27016 15.4801 5.27016 16.0853H7.13284C7.13284 15.6888 7.27372 15.3653 7.55547 15.1149C7.83722 14.8644 8.19202 14.7392 8.61986 14.7392C9.0164 14.7392 9.34511 14.8696 9.60599 15.1305C9.8773 15.381 10.013 15.7149 10.013 16.1323C10.013 16.508 9.87208 16.8262 9.59033 17.0871C9.30858 17.348 8.91726 17.4784 8.41637 17.4784H7.7433V19.1063H8.41637C8.99031 19.1063 9.42337 19.2576 9.71555 19.5603C10.0077 19.8524 10.1538 20.2125 10.1538 20.6403C10.1538 21.0786 10.0182 21.4386 9.74686 21.7203C9.47554 21.9917 9.1051 22.1273 8.63551 22.1273C8.16593 22.1273 7.78504 21.9864 7.49286 21.7047C7.20067 21.4125 7.05458 21.0473 7.05458 20.609H5.16059C5.16059 21.2455 5.3119 21.8143 5.61452 22.3152C5.91714 22.8056 6.33977 23.1865 6.8824 23.4578C7.43546 23.7291 8.06679 23.8648 8.77639 23.8648C9.74686 23.8648 10.5243 23.5882 11.1087 23.0352C11.693 22.4821 11.9852 21.7464 11.9852 20.8281C11.9852 20.6403 11.9696 20.4473 11.9383 20.249L13.7696 20.2646V24.757H15.7888V14.8644H17.5263ZM25.4058 23.0853L27.1686 18.5115L28.8996 23.0853H25.4058Z" fill="#242734"/>
</g>
</g>
</svg>
