<svg xmlns="http://www.w3.org/2000/svg" width="24" height="24" viewBox="0 0 24 24" fill="none">
<mask id="mask0_4486_6749" style="mask-type:alpha" maskUnits="userSpaceOnUse" x="0" y="0" width="24" height="24">
<rect width="24" height="24" fill="#D9D9D9"/>
</mask>
<g mask="url(#mask0_4486_6749)">
<path d="M9.31662 12L17.0166 19.7C17.2222 19.9056 17.3236 20.1556 17.3208 20.45C17.318 20.7444 17.2139 21 17.0083 21.2167C16.7916 21.4333 16.5361 21.5417 16.2416 21.5417C15.9472 21.5417 15.6916 21.4333 15.475 21.2167L7.42498 13.175C7.25831 13.0083 7.13608 12.8222 7.0583 12.6167C6.98053 12.4111 6.94165 12.2055 6.94165 12C6.94165 11.7944 6.98053 11.5889 7.0583 11.3833C7.13608 11.1778 7.25831 10.9917 7.42498 10.825L15.4916 2.75832C15.7083 2.54165 15.9625 2.43749 16.2541 2.44582C16.5458 2.45415 16.8 2.56665 17.0166 2.78332C17.2222 2.99999 17.3277 3.25276 17.3333 3.54165C17.3389 3.83055 17.2333 4.08333 17.0166 4.3L9.31662 12Z" fill="#242734"/>
</g>
</svg>