<svg xmlns="http://www.w3.org/2000/svg" width="218.836" height="51.393" viewBox="0 0 218.836 51.393">
  <g id="Group_915" data-name="Group 915" transform="translate(1307 420)">
    <g id="Group_105" data-name="Group 105" transform="translate(-1307 -420)">
      <path id="Path_119" data-name="Path 119" d="M60.34,52.718h4.082v-2.1a13.91,13.91,0,0,1,.75-5.239,5.947,5.947,0,0,1,2.74-2.814,10.6,10.6,0,0,1,5.063-1.083,20.725,20.725,0,0,1,6.156.935l-.99,5.137a14.109,14.109,0,0,0-3.379-.417,3,3,0,0,0-2.3.741,4.336,4.336,0,0,0-.685,2.87v1.962h5.5v5.785h-5.5V80.506H64.422v-22H60.34V52.718ZM86.916,61.2l-6.674-1.2a10.386,10.386,0,0,1,3.869-5.971c1.842-1.287,4.554-1.935,8.164-1.935q4.929,0,7.331,1.166a7.344,7.344,0,0,1,3.388,2.953c.648,1.194.981,3.388.981,6.581l-.083,8.59a29.168,29.168,0,0,0,.361,5.406,15.326,15.326,0,0,0,1.324,3.721H98.292c-.185-.491-.426-1.213-.7-2.175-.12-.435-.2-.722-.259-.87A13.338,13.338,0,0,1,93.3,80.21a11.272,11.272,0,0,1-4.582.935,9.5,9.5,0,0,1-6.767-2.323,7.724,7.724,0,0,1-2.472-5.9,7.875,7.875,0,0,1,1.129-4.2A7.367,7.367,0,0,1,83.768,65.9a25.086,25.086,0,0,1,5.85-1.712,39.62,39.62,0,0,0,7.137-1.805V61.65a3.825,3.825,0,0,0-1.046-3.027c-.694-.6-2.009-.9-3.953-.9A4.422,4.422,0,0,0,86.916,61.2Zm9.84,5.971c-.935.315-2.434.685-4.48,1.129a13.859,13.859,0,0,0-4,1.277,3.085,3.085,0,0,0-1.435,2.592A3.625,3.625,0,0,0,88,74.841a4.021,4.021,0,0,0,2.934,1.129,6.364,6.364,0,0,0,3.8-1.305,4.553,4.553,0,0,0,1.749-2.444,14.357,14.357,0,0,0,.287-3.582V67.167Z" transform="translate(-60.34 -41.48)" fill="#242734"/>
      <path id="Path_120" data-name="Path 120" d="M137.4,53.569h6.785v3.786a10.9,10.9,0,0,1,8.664-4.425,9.329,9.329,0,0,1,4.628,1.1,8.467,8.467,0,0,1,3.231,3.323,12.713,12.713,0,0,1,3.953-3.323,9.7,9.7,0,0,1,4.526-1.1,10.069,10.069,0,0,1,5.184,1.25,7.661,7.661,0,0,1,3.166,3.647,15.8,15.8,0,0,1,.759,5.767V81.366h-7.35V65.482q0-4.138-.759-5.341a3.475,3.475,0,0,0-3.138-1.574,5.041,5.041,0,0,0-2.916.944,5.243,5.243,0,0,0-1.953,2.758,19.932,19.932,0,0,0-.611,5.748V81.366h-7.35V66.13a21.4,21.4,0,0,0-.389-5.239,3.3,3.3,0,0,0-1.213-1.75,3.827,3.827,0,0,0-2.24-.583,5.3,5.3,0,0,0-3.055.916,5,5,0,0,0-1.953,2.647,19.739,19.739,0,0,0-.592,5.73V81.357h-7.35V53.569Z" transform="translate(-66.069 -42.331)" fill="#242734"/>
      <path id="Path_121" data-name="Path 121" d="M187.15,80.568V42.19h7.368V62.555l8.6-9.784h9.062l-9.5,10.155,10.173,17.643h-7.924l-7-12.478-3.416,3.582v8.9Z" transform="translate(-69.767 -41.533)" fill="#242734"/>
      <path id="Path_122" data-name="Path 122" d="M224.033,62.048l-6.674-1.2a10.386,10.386,0,0,1,3.869-5.971c1.842-1.287,4.554-1.935,8.164-1.935q4.929,0,7.331,1.166a7.344,7.344,0,0,1,3.388,2.953c.648,1.194.981,3.388.981,6.581l-.083,8.59a29.163,29.163,0,0,0,.361,5.406,15.325,15.325,0,0,0,1.324,3.721h-7.285c-.185-.491-.426-1.213-.7-2.175-.12-.435-.2-.722-.259-.87a13.339,13.339,0,0,1-4.027,2.749,11.5,11.5,0,0,1-4.582.907,9.5,9.5,0,0,1-6.767-2.323,7.724,7.724,0,0,1-2.471-5.9,7.958,7.958,0,0,1,1.129-4.2,7.366,7.366,0,0,1,3.156-2.823,25.086,25.086,0,0,1,5.85-1.712,39.621,39.621,0,0,0,7.137-1.805v-.731a3.825,3.825,0,0,0-1.046-3.027c-.694-.6-2.009-.9-3.953-.9a5.225,5.225,0,0,0-3.064.778,5.452,5.452,0,0,0-1.777,2.721Zm9.84,5.971c-.935.315-2.425.685-4.48,1.129a13.861,13.861,0,0,0-4,1.277,3.085,3.085,0,0,0-1.435,2.592,3.625,3.625,0,0,0,1.157,2.675,4.021,4.021,0,0,0,2.934,1.129,6.364,6.364,0,0,0,3.8-1.305,4.505,4.505,0,0,0,1.75-2.444,14.358,14.358,0,0,0,.287-3.582V68.019Z" transform="translate(-71.956 -42.332)" fill="#242734"/>
      <path id="Path_123" data-name="Path 123" d="M256.07,81.366h-7.35v-27.8h6.822v3.953a11.8,11.8,0,0,1,3.156-3.693,5.814,5.814,0,0,1,3.184-.9,9.256,9.256,0,0,1,4.841,1.4l-2.277,6.406a6.46,6.46,0,0,0-3.453-1.194,4.032,4.032,0,0,0-2.62.852,5.743,5.743,0,0,0-1.685,3.073c-.407,1.481-.62,4.591-.62,9.321Z" transform="translate(-74.344 -42.331)" fill="#242734"/>
      <path id="Path_124" data-name="Path 124" d="M285.942,52.832v5.859h-5.017v11.2a29.043,29.043,0,0,0,.139,3.971,1.661,1.661,0,0,0,.648.926,2.114,2.114,0,0,0,1.24.37,9.7,9.7,0,0,0,2.962-.7l.62,5.7a14.662,14.662,0,0,1-5.813,1.1,9.392,9.392,0,0,1-3.582-.657,5.267,5.267,0,0,1-2.342-1.731A6.769,6.769,0,0,1,273.76,76a37.233,37.233,0,0,1-.232-5.184V58.691H270.15V52.832h3.379V47.306l7.378-4.286v9.821h5.035Z" transform="translate(-75.937 -41.594)" fill="#242734"/>
      <g id="Group_104" data-name="Group 104" transform="translate(139.747 41.738)">
        <path id="Path_125" data-name="Path 125" d="M213.013,87.57v1.481h1.342v.713h-1.342v2.777c0,.639.176,1,.7,1a1.94,1.94,0,0,0,.546-.065l.046.7a2.3,2.3,0,0,1-.833.13,1.282,1.282,0,0,1-1.009-.4,1.9,1.9,0,0,1-.361-1.342v-2.8h-.8v-.713h.8V87.82Z" transform="translate(-211.31 -86.644)" fill="#242734"/>
        <path id="Path_126" data-name="Path 126" d="M215.739,86.57h.935v3.212h.019a1.686,1.686,0,0,1,.666-.657,1.938,1.938,0,0,1,.953-.268c.694,0,1.8.426,1.8,2.2v3.064h-.935V91.171c0-.833-.305-1.527-1.194-1.527a1.34,1.34,0,0,0-1.25.935,1.1,1.1,0,0,0-.065.444v3.1h-.935V86.57Z" transform="translate(-211.639 -86.57)" fill="#242734"/>
        <path id="Path_127" data-name="Path 127" d="M222.6,91.9a1.649,1.649,0,0,0,1.768,1.787,3.408,3.408,0,0,0,1.425-.268l.157.666a4.162,4.162,0,0,1-1.712.324,2.389,2.389,0,0,1-2.527-2.592,2.5,2.5,0,0,1,2.416-2.777,2.187,2.187,0,0,1,2.129,2.425,2.287,2.287,0,0,1-.037.435Zm2.749-.666a1.33,1.33,0,0,0-1.3-1.518,1.55,1.55,0,0,0-1.435,1.518Z" transform="translate(-212.083 -86.754)" fill="#242734"/>
        <path id="Path_128" data-name="Path 128" d="M230.3,90.55c0-.528-.009-.972-.046-1.388h.833l.056.852h.018a1.893,1.893,0,0,1,1.7-.963c.713,0,1.814.426,1.814,2.194v3.073h-.935V91.355c0-.833-.305-1.518-1.194-1.518a1.338,1.338,0,0,0-1.259.953,1.535,1.535,0,0,0-.065.435v3.092h-.935V90.55Z" transform="translate(-212.718 -86.754)" fill="#242734"/>
        <path id="Path_129" data-name="Path 129" d="M237.169,91.9a1.649,1.649,0,0,0,1.768,1.787,3.409,3.409,0,0,0,1.425-.268l.157.666a4.162,4.162,0,0,1-1.712.324,2.389,2.389,0,0,1-2.527-2.592A2.5,2.5,0,0,1,238.7,89.04a2.187,2.187,0,0,1,2.129,2.425,3.915,3.915,0,0,1-.028.435Zm2.74-.666a1.33,1.33,0,0,0-1.3-1.518,1.55,1.55,0,0,0-1.435,1.518Z" transform="translate(-213.166 -86.754)" fill="#242734"/>
        <path id="Path_130" data-name="Path 130" d="M242.779,89.17l.731,1.1c.194.287.352.555.518.842h.028c.167-.305.343-.574.509-.852l.722-1.092H246.3l-1.75,2.49,1.805,2.657h-1.065l-.759-1.157c-.2-.3-.37-.583-.555-.889h-.019c-.167.305-.352.583-.546.889l-.741,1.157H241.64l1.833-2.629-1.74-2.518Z" transform="translate(-213.565 -86.763)" fill="#242734"/>
        <path id="Path_131" data-name="Path 131" d="M248.943,87.57v1.481h1.342v.713h-1.342v2.777c0,.639.176,1,.7,1a1.94,1.94,0,0,0,.546-.065l.046.7a2.3,2.3,0,0,1-.833.13,1.283,1.283,0,0,1-1.009-.4,1.9,1.9,0,0,1-.361-1.342v-2.8h-.8v-.713h.8V87.82Z" transform="translate(-213.981 -86.644)" fill="#242734"/>
        <path id="Path_132" data-name="Path 132" d="M255.412,87.513a.7.7,0,0,1-.74.7.686.686,0,0,1-.722-.7.7.7,0,0,1,.731-.713A.706.706,0,0,1,255.412,87.513Zm-1.4,6.628V88.966h1.314V94.14Z" transform="translate(-214.48 -86.587)" fill="#242734"/>
        <path id="Path_133" data-name="Path 133" d="M256.956,90.667c0-.592-.009-1.092-.046-1.546h1.129l.056.768h.028a1.774,1.774,0,0,1,1.592-.879,1.493,1.493,0,0,1,1.435.953h.018a2.035,2.035,0,0,1,.639-.648,1.728,1.728,0,0,1,1.046-.305c.861,0,1.731.583,1.731,2.24V94.3h-1.277v-2.86c0-.861-.3-1.37-.926-1.37a1,1,0,0,0-.916.694,2.145,2.145,0,0,0-.065.435v3.1h-1.277v-3c0-.722-.287-1.231-.889-1.231a1.019,1.019,0,0,0-.935.741,1.085,1.085,0,0,0-.074.426V94.3h-1.277V90.667Z" transform="translate(-214.7 -86.751)" fill="#242734"/>
        <path id="Path_134" data-name="Path 134" d="M266.7,90.852c0-.676-.019-1.231-.046-1.722H267.8l.065.8h.018a2.021,2.021,0,0,1,1.777-.916c1.194,0,2.175,1.018,2.175,2.638a2.47,2.47,0,0,1-2.36,2.777,1.684,1.684,0,0,1-1.453-.694H268v2.675H266.7Zm1.314,1.277a1.172,1.172,0,0,0,.046.361,1.188,1.188,0,0,0,1.148.916c.833,0,1.314-.694,1.314-1.712,0-.916-.444-1.657-1.287-1.657a1.21,1.21,0,0,0-1.166.972,1.324,1.324,0,0,0-.056.333v.787Z" transform="translate(-215.424 -86.751)" fill="#242734"/>
        <path id="Path_135" data-name="Path 135" d="M276.308,94.3l-.083-.574H276.2a1.906,1.906,0,0,1-1.527.694,1.54,1.54,0,0,1-1.629-1.546c0-1.305,1.157-1.962,3.073-1.953v-.083c0-.343-.139-.907-1.055-.907a2.742,2.742,0,0,0-1.388.38l-.259-.852a3.755,3.755,0,0,1,1.87-.454,1.938,1.938,0,0,1,2.138,2.175v1.87a7.951,7.951,0,0,0,.074,1.24h-1.185Zm-.167-2.536c-.926-.019-1.805.185-1.805.972a.685.685,0,0,0,.741.741,1.055,1.055,0,0,0,1.018-.713,1.084,1.084,0,0,0,.046-.287v-.713Z" transform="translate(-215.899 -86.751)" fill="#242734"/>
        <path id="Path_136" data-name="Path 136" d="M283.038,94.138a3.718,3.718,0,0,1-1.462.268,2.486,2.486,0,0,1-2.666-2.638,2.671,2.671,0,0,1,2.879-2.759,3.255,3.255,0,0,1,1.268.241l-.232.981a2.341,2.341,0,0,0-.99-.2,1.673,1.673,0,0,0,0,3.342,2.45,2.45,0,0,0,1.028-.2Z" transform="translate(-216.335 -86.751)" fill="#242734"/>
        <path id="Path_137" data-name="Path 137" d="M286.047,87.54v1.481h1.24V90h-1.24v2.286c0,.629.167.953.666.953a1.746,1.746,0,0,0,.509-.065l.018,1a2.864,2.864,0,0,1-.944.13,1.513,1.513,0,0,1-1.129-.426,2.056,2.056,0,0,1-.407-1.444V90h-.741v-.981h.741V87.855Z" transform="translate(-216.715 -86.642)" fill="#242734"/>
      </g>
    </g>
    <path id="Path_138" data-name="Path 138" d="M120.708,58.709v-4.3a.761.761,0,0,0-1.148-.657l-4.749,2.814a3.038,3.038,0,0,0-1.481,2.61V81.369h7.378V62.763c1.148-4.665,8.535,4.212,12.635-9.673C128.585,56.645,122.985,52.09,120.708,58.709Z" transform="translate(-1371.279 -462.343)" fill="#73be44"/>
    <g id="Group_107" data-name="Group 107" transform="translate(-1094.57 -418.945)">
      <path id="Path_139" data-name="Path 139" d="M293.033,42.62a3.2,3.2,0,1,0,3.2,3.2A3.2,3.2,0,0,0,293.033,42.62Zm1.777,5.091a2.587,2.587,0,1,1,.12-3.656A2.58,2.58,0,0,1,294.81,47.711Z" transform="translate(-289.83 -42.62)" fill="#242734"/>
      <g id="Group_106" data-name="Group 106" transform="translate(1.999 1.703)">
        <path id="Path_140" data-name="Path 140" d="M291.99,47.468V44.46h1.277a2.15,2.15,0,0,1,.7.083.709.709,0,0,1,.352.287.9.9,0,0,1,.13.472.762.762,0,0,1-.2.555.941.941,0,0,1-.592.278,1.307,1.307,0,0,1,.324.25,3.421,3.421,0,0,1,.342.491l.37.583h-.731l-.426-.648a4.025,4.025,0,0,0-.324-.444.482.482,0,0,0-.185-.13,1.126,1.126,0,0,0-.305-.037h-.12v1.259h-.611Zm.611-1.74h.454a2.184,2.184,0,0,0,.546-.037.3.3,0,0,0,.167-.13.446.446,0,0,0,.065-.222.349.349,0,0,0-.315-.37,4.312,4.312,0,0,0-.444-.009H292.6v.768Z" transform="translate(-291.99 -44.46)" fill="#242734"/>
      </g>
    </g>
  </g>
</svg>
