<svg width="40" height="40" viewBox="0 0 40 40" fill="none" xmlns="http://www.w3.org/2000/svg">
<g id="Login">
<mask id="mask0_5886_2010" style="mask-type:alpha" maskUnits="userSpaceOnUse" x="0" y="0" width="40" height="40">
<rect id="Bounding box" width="40" height="40" fill="#D9D9D9"/>
</mask>
<g mask="url(#mask0_5886_2010)">
<path id="input" d="M6.11125 33.3337C5.36125 33.3337 4.71079 33.0582 4.15987 32.5073C3.60895 31.9564 3.3335 31.3059 3.3335 30.5559V25.5836C3.3335 25.1901 3.46707 24.8603 3.7342 24.594C4.00134 24.3278 4.33236 24.1947 4.72725 24.1947C5.12214 24.1947 5.45152 24.3278 5.71541 24.594C5.9793 24.8603 6.11125 25.1901 6.11125 25.5836V30.5559H33.8891V9.44474H6.11125V14.4726C6.11125 14.8661 5.97768 15.196 5.71054 15.4622C5.4434 15.7284 5.11239 15.8615 4.7175 15.8615C4.32261 15.8615 3.99322 15.7284 3.72933 15.4622C3.46544 15.196 3.3335 14.8661 3.3335 14.4726V9.44474C3.3335 8.69474 3.60895 8.04428 4.15987 7.49337C4.71079 6.94245 5.36125 6.66699 6.11125 6.66699H33.8891C34.6391 6.66699 35.2895 6.94245 35.8405 7.49337C36.3914 8.04428 36.6668 8.69474 36.6668 9.44474V30.5559C36.6668 31.3059 36.3914 31.9564 35.8405 32.5073C35.2895 33.0582 34.6391 33.3337 33.8891 33.3337H6.11125ZM21.1807 21.417H4.72237C4.32887 21.417 3.99901 21.2834 3.73279 21.0163C3.46659 20.7491 3.3335 20.4181 3.3335 20.0232C3.3335 19.6283 3.46659 19.2989 3.73279 19.035C3.99901 18.7712 4.32887 18.6392 4.72237 18.6392H21.1807L18.139 15.6114C17.8613 15.3429 17.7286 15.0202 17.7409 14.6434C17.7532 14.2665 17.8952 13.9411 18.1668 13.667C18.4446 13.3892 18.7756 13.248 19.1599 13.2434C19.5442 13.2388 19.8752 13.3753 20.153 13.6531L25.5557 19.0559C25.8335 19.3336 25.9724 19.6577 25.9724 20.0281C25.9724 20.3985 25.8335 20.7225 25.5557 21.0003L20.1252 26.4309C19.8474 26.7086 19.521 26.8429 19.146 26.8337C18.771 26.8244 18.441 26.6809 18.156 26.4031C17.8947 26.1253 17.7617 25.7943 17.7571 25.4101C17.7525 25.0258 17.8891 24.6948 18.1668 24.417L21.1807 21.417Z" fill="#242734"/>
</g>
</g>
</svg>
