<svg width="40" height="40" viewBox="0 0 40 40" fill="none" xmlns="http://www.w3.org/2000/svg">
<g id="Logout">
<mask id="mask0_5886_183" style="mask-type:alpha" maskUnits="userSpaceOnUse" x="0" y="0" width="40" height="40">
<rect id="Bounding box" width="40" height="40" fill="#D9D9D9"/>
</mask>
<g mask="url(#mask0_5886_183)">
<path id="move_item" d="M34.0833 21.3889H14.8055C14.412 21.3889 14.0822 21.2553 13.816 20.9882C13.5498 20.721 13.4167 20.39 13.4167 19.9951C13.4167 19.6002 13.5498 19.2708 13.816 19.007C14.0822 18.7431 14.412 18.6111 14.8055 18.6111H34.0833L31.7222 16.25C31.4444 15.9722 31.3079 15.6481 31.3125 15.2778C31.3171 14.9074 31.4501 14.5833 31.7113 14.3055C31.9964 14.0278 32.331 13.8866 32.7153 13.882C33.0995 13.8773 33.4305 14.0139 33.7083 14.2917L38.4722 19.0278C38.75 19.3056 38.8889 19.6296 38.8889 20C38.8889 20.3704 38.75 20.6944 38.4722 20.9722L33.7083 25.7361C33.4342 26.0139 33.1088 26.1458 32.7319 26.132C32.3551 26.1181 32.0242 25.9722 31.7391 25.6945C31.4778 25.4167 31.3449 25.088 31.3403 24.7083C31.3356 24.3287 31.4722 24 31.75 23.7223L34.0833 21.3889ZM24.4444 14.4445V7.77775H7.77775V32.2222H24.4444V25.5555C24.4444 25.162 24.578 24.8322 24.8451 24.566C25.1123 24.2997 25.4433 24.1666 25.8382 24.1666C26.2331 24.1666 26.5625 24.2997 26.8264 24.566C27.0903 24.8322 27.2222 25.162 27.2222 25.5555V32.2222C27.2222 32.9861 26.9502 33.6401 26.4062 34.184C25.8622 34.728 25.2083 35 24.4444 35H7.77775C7.01386 35 6.35993 34.728 5.81596 34.184C5.27199 33.6401 5 32.9861 5 32.2222V7.77775C5 7.01386 5.27199 6.35993 5.81596 5.81596C6.35993 5.27199 7.01386 5 7.77775 5H24.4444C25.2083 5 25.8622 5.27199 26.4062 5.81596C26.9502 6.35993 27.2222 7.01386 27.2222 7.77775V14.4445C27.2222 14.838 27.0886 15.1678 26.8215 15.434C26.5544 15.7003 26.2233 15.8334 25.8284 15.8334C25.4335 15.8334 25.1041 15.7003 24.8403 15.434C24.5764 15.1678 24.4444 14.838 24.4444 14.4445Z" fill="#242734"/>
</g>
</g>
</svg>
