<svg xmlns="http://www.w3.org/2000/svg" width="41" height="40" viewBox="0 0 41 40" fill="none">
  <mask id="mask0_1038_11084" style="mask-type:alpha" maskUnits="userSpaceOnUse" x="0" y="0" width="41" height="40">
    <rect x="0.5" width="40" height="40" fill="#D9D9D9"/>
  </mask>
  <g mask="url(#mask0_1038_11084)">
    <path d="M20.5 22.6946C19.2408 22.6946 18.1807 22.2462 17.3196 21.3496C16.4585 20.4529 16.0279 19.3641 16.0279 18.0833V7.7779C16.0279 6.54317 16.4625 5.49373 17.3317 4.62956C18.2011 3.7654 19.2567 3.33331 20.4983 3.33331C21.7403 3.33331 22.7964 3.7654 23.6667 4.62956C24.5369 5.49373 24.9721 6.54317 24.9721 7.7779V18.0833C24.9721 19.3641 24.5415 20.4529 23.6804 21.3496C22.8193 22.2462 21.7592 22.6946 20.5 22.6946ZM19.1113 33.6112V29.5137C16.4815 29.1898 14.2107 28.1112 12.2988 26.2779C10.3865 24.4446 9.26376 22.1898 8.93042 19.5137C8.87487 19.1185 8.97764 18.7812 9.23875 18.5021C9.49959 18.2229 9.8282 18.0833 10.2246 18.0833C10.6213 18.0833 10.9515 18.2198 11.2154 18.4929C11.4793 18.7662 11.6482 19.1019 11.7221 19.5C12.074 21.648 13.0876 23.4073 14.7629 24.7779C16.4379 26.1482 18.3469 26.8333 20.49 26.8333C22.6633 26.8333 24.5833 26.1458 26.25 24.7708C27.9167 23.3958 28.926 21.6389 29.2779 19.5C29.3518 19.1019 29.5224 18.7662 29.7896 18.4929C30.0568 18.2198 30.3878 18.0833 30.7825 18.0833C31.1775 18.0833 31.5046 18.2229 31.7638 18.5021C32.0232 18.7812 32.1251 19.1185 32.0696 19.5137C31.7363 22.1526 30.6204 24.398 28.7221 26.25C26.824 28.1019 24.5463 29.1898 21.8888 29.5137V33.6112C21.8888 34.0046 21.7553 34.3344 21.4883 34.6008C21.2211 34.8669 20.89 35 20.495 35C20.1003 35 19.771 34.8669 19.5071 34.6008C19.2432 34.3344 19.1113 34.0046 19.1113 33.6112ZM20.5 19.9166C20.9908 19.9166 21.396 19.7385 21.7154 19.3821C22.0349 19.0254 22.1946 18.5925 22.1946 18.0833V7.7779C22.1946 7.30567 22.0322 6.90984 21.7075 6.5904C21.3825 6.27095 20.98 6.11123 20.5 6.11123C20.02 6.11123 19.6175 6.27095 19.2925 6.5904C18.9678 6.90984 18.8054 7.30567 18.8054 7.7779V18.0833C18.8054 18.5925 18.9651 19.0254 19.2846 19.3821C19.604 19.7385 20.0092 19.9166 20.5 19.9166Z" fill="white"/>
  </g>
</svg>