<svg xmlns="http://www.w3.org/2000/svg" width="41" height="40" viewBox="0 0 41 40" fill="none">
  <mask id="mask0_1136_7841" style="mask-type:alpha" maskUnits="userSpaceOnUse" x="0" y="0" width="41" height="40">
    <rect x="0.5" width="40" height="40" fill="#D9D9D9"/>
  </mask>
  <g mask="url(#mask0_1136_7841)">
    <path d="M15.4999 26.3887H25.4999C25.8935 26.3887 26.2234 26.2557 26.4895 25.9896C26.7556 25.7235 26.8887 25.3936 26.8887 25V15C26.8887 14.6064 26.7556 14.2765 26.4895 14.0104C26.2234 13.7443 25.8935 13.6112 25.4999 13.6112H15.4999C15.1063 13.6112 14.7764 13.7443 14.5103 14.0104C14.2442 14.2765 14.1112 14.6064 14.1112 15V25C14.1112 25.3936 14.2442 25.7235 14.5103 25.9896C14.7764 26.2557 15.1063 26.3887 15.4999 26.3887ZM20.5074 36.6666C18.2066 36.6666 16.0445 36.2291 14.0212 35.3541C11.9978 34.4791 10.2314 33.2871 8.722 31.7779C7.21284 30.2685 6.02075 28.5014 5.14575 26.4766C4.27075 24.4519 3.83325 22.2885 3.83325 19.9862C3.83325 17.684 4.27075 15.5204 5.14575 13.4954C6.02075 11.4707 7.21284 9.70831 8.722 8.20831C10.2314 6.70831 11.9985 5.52081 14.0233 4.64581C16.048 3.77081 18.2114 3.33331 20.5137 3.33331C22.8159 3.33331 24.9795 3.77081 27.0045 4.64581C29.0292 5.52081 30.7916 6.70831 32.2916 8.20831C33.7916 9.70831 34.9791 11.4722 35.8541 13.5C36.7291 15.5278 37.1666 17.6919 37.1666 19.9925C37.1666 22.2933 36.7291 24.4554 35.8541 26.4787C34.9791 28.5021 33.7916 30.2666 32.2916 31.7725C30.7916 33.2783 29.0277 34.4705 26.9999 35.3492C24.9721 36.2275 22.808 36.6666 20.5074 36.6666ZM20.5137 33.8887C24.3748 33.8887 27.6526 32.5369 30.347 29.8333C33.0415 27.1297 34.3887 23.8473 34.3887 19.9862C34.3887 16.1251 33.0433 12.8473 30.3524 10.1529C27.6613 7.45845 24.3771 6.11123 20.4999 6.11123C16.648 6.11123 13.3702 7.45665 10.6666 10.1475C7.96297 12.8386 6.61117 16.1228 6.61117 20C6.61117 23.8519 7.96297 27.1297 10.6666 29.8333C13.3702 32.5369 16.6526 33.8887 20.5137 33.8887Z" fill="white"/>
  </g>
</svg>