<svg xmlns="http://www.w3.org/2000/svg" width="24" height="24" viewBox="0 0 18 16" fill="none">
  <path d="M7.14274 14.777C6.96474 14.777 6.81558 14.7164 6.69524 14.5952C6.57491 14.4742 6.51474 14.3242 6.51474 14.1452C6.51474 13.9664 6.57491 13.8176 6.69524 13.6987C6.81558 13.5799 6.96474 13.5205 7.14274 13.5205H16.8722C17.0502 13.5205 17.1994 13.581 17.3197 13.702C17.4402 13.8232 17.5005 13.9732 17.5005 14.152C17.5005 14.331 17.4402 14.4799 17.3197 14.5987C17.1994 14.7176 17.0502 14.777 16.8722 14.777H7.14274ZM7.14274 8.62824C6.96474 8.62824 6.81558 8.56765 6.69524 8.44649C6.57491 8.32549 6.51474 8.17557 6.51474 7.99674C6.51474 7.81774 6.57491 7.66882 6.69524 7.54999C6.81558 7.43115 6.96474 7.37174 7.14274 7.37174H16.8722C17.0502 7.37174 17.1994 7.43232 17.3197 7.55349C17.4402 7.67449 17.5005 7.8244 17.5005 8.00324C17.5005 8.18224 17.4402 8.33115 17.3197 8.44999C17.1994 8.56882 17.0502 8.62824 16.8722 8.62824H7.14274ZM7.14274 2.46924C6.96474 2.46924 6.81558 2.40874 6.69524 2.28774C6.57491 2.16657 6.51474 2.01657 6.51474 1.83774C6.51474 1.65874 6.57491 1.50982 6.69524 1.39099C6.81558 1.27215 6.96474 1.21274 7.14274 1.21274H16.8722C17.0502 1.21274 17.1994 1.27332 17.3197 1.39449C17.4402 1.51549 17.5005 1.66549 17.5005 1.84449C17.5005 2.02332 17.4402 2.17215 17.3197 2.29099C17.1994 2.40982 17.0502 2.46924 16.8722 2.46924H7.14274ZM2.03249 15.6532C1.61249 15.6532 1.25391 15.5078 0.956742 15.217C0.659409 14.9263 0.510742 14.5709 0.510742 14.1507C0.510742 13.7304 0.657825 13.3732 0.951992 13.079C1.24616 12.7848 1.60333 12.6377 2.02349 12.6377C2.44383 12.6377 2.79933 12.7875 3.08999 13.087C3.38083 13.3863 3.52624 13.7447 3.52624 14.1622C3.52624 14.5704 3.37991 14.9209 3.08724 15.2137C2.79474 15.5067 2.44316 15.6532 2.03249 15.6532ZM2.03249 9.50449C1.61249 9.50449 1.25391 9.3564 0.956742 9.06024C0.659409 8.76407 0.510742 8.41065 0.510742 7.99999C0.510742 7.58932 0.659826 7.2359 0.957992 6.93974C1.25616 6.64357 1.61458 6.49549 2.03324 6.49549C2.44274 6.49549 2.79391 6.64357 3.08674 6.93974C3.37974 7.2359 3.52624 7.58932 3.52624 7.99999C3.52624 8.41065 3.37991 8.76407 3.08724 9.06024C2.79474 9.3564 2.44316 9.50449 2.03249 9.50449ZM2.01524 3.34549C1.60458 3.34549 1.25116 3.1974 0.954992 2.90124C0.658825 2.60507 0.510742 2.25165 0.510742 1.84099C0.510742 1.43032 0.658825 1.0769 0.954992 0.780736C1.25116 0.484569 1.60566 0.336487 2.01849 0.336487C2.43133 0.336487 2.78583 0.484569 3.08199 0.780736C3.37816 1.0769 3.52624 1.43032 3.52624 1.84099C3.52624 2.25165 3.37824 2.60507 3.08224 2.90124C2.78641 3.1974 2.43074 3.34549 2.01524 3.34549Z" fill="currentColor"/>
</svg>