<svg xmlns="http://www.w3.org/2000/svg" width="41" height="40" viewBox="0 0 41 40" fill="none">
<g id="more_horiz">
<mask id="mask0_4379_12894" style="mask-type:alpha" maskUnits="userSpaceOnUse" x="0" y="0" width="41" height="40">
<rect id="Bounding box" x="0.920654" width="40" height="40" fill="#D9D9D9"/>
</mask>
<g mask="url(#mask0_4379_12894)">
<path id="more_horiz_2" d="M10.0279 22.4444C9.3546 22.4444 8.77951 22.2047 8.30265 21.7252C7.82582 21.2458 7.5874 20.6694 7.5874 19.9961C7.5874 19.3228 7.82714 18.7477 8.30661 18.2709C8.78608 17.794 9.36246 17.5556 10.0357 17.5556C10.709 17.5556 11.2841 17.7953 11.761 18.2748C12.2378 18.7543 12.4762 19.3307 12.4762 20.0039C12.4762 20.6772 12.2365 21.2523 11.757 21.7292C11.2776 22.206 10.7012 22.4444 10.0279 22.4444ZM20.9168 22.4444C20.2435 22.4444 19.6684 22.2047 19.1916 21.7252C18.7147 21.2458 18.4763 20.6694 18.4763 19.9961C18.4763 19.3228 18.7161 18.7477 19.1955 18.2709C19.675 17.794 20.2514 17.5556 20.9247 17.5556C21.598 17.5556 22.173 17.7953 22.6499 18.2748C23.1267 18.7543 23.3652 19.3307 23.3652 20.0039C23.3652 20.6772 23.1254 21.2523 22.6459 21.7292C22.1665 22.206 21.5901 22.4444 20.9168 22.4444ZM31.8057 22.4444C31.1324 22.4444 30.5573 22.2047 30.0805 21.7252C29.6037 21.2458 29.3652 20.6694 29.3652 19.9961C29.3652 19.3228 29.605 18.7477 30.0844 18.2709C30.5639 17.794 31.1403 17.5556 31.8136 17.5556C32.4869 17.5556 33.0619 17.7953 33.5388 18.2748C34.0156 18.7543 34.2541 19.3307 34.2541 20.0039C34.2541 20.6772 34.0143 21.2523 33.5349 21.7292C33.0554 22.206 32.479 22.4444 31.8057 22.4444Z" fill="currentColor"/>
</g>
</g>
</svg>