<svg xmlns="http://www.w3.org/2000/svg" width="24" height="24" viewBox="0 0 24 24" fill="none">
  <mask id="mask0_1805_1784" style="mask-type:alpha" maskUnits="userSpaceOnUse" x="0" y="0" width="24" height="24">
    <rect width="24" height="24" fill="#D9D9D9"/>
  </mask>
  <g mask="url(#mask0_1805_1784)">
    <path d="M10.1418 18.777C9.96377 18.777 9.8146 18.7164 9.69427 18.5952C9.57393 18.4742 9.51377 18.3242 9.51377 18.1452C9.51377 17.9664 9.57393 17.8176 9.69427 17.6987C9.8146 17.5799 9.96377 17.5205 10.1418 17.5205H19.8713C20.0493 17.5205 20.1984 17.581 20.3188 17.702C20.4393 17.8232 20.4995 17.9732 20.4995 18.152C20.4995 18.331 20.4393 18.4799 20.3188 18.5987C20.1984 18.7176 20.0493 18.777 19.8713 18.777H10.1418ZM10.1418 12.6282C9.96377 12.6282 9.8146 12.5677 9.69427 12.4465C9.57393 12.3255 9.51377 12.1756 9.51377 11.9967C9.51377 11.8177 9.57393 11.6688 9.69427 11.55C9.8146 11.4312 9.96377 11.3717 10.1418 11.3717H19.8713C20.0493 11.3717 20.1984 11.4323 20.3188 11.5535C20.4393 11.6745 20.4995 11.8244 20.4995 12.0032C20.4995 12.1822 20.4393 12.3312 20.3188 12.45C20.1984 12.5688 20.0493 12.6282 19.8713 12.6282H10.1418ZM10.1418 6.46924C9.96377 6.46924 9.8146 6.40874 9.69427 6.28774C9.57393 6.16657 9.51377 6.01657 9.51377 5.83774C9.51377 5.65874 9.57393 5.50982 9.69427 5.39099C9.8146 5.27215 9.96377 5.21274 10.1418 5.21274H19.8713C20.0493 5.21274 20.1984 5.27332 20.3188 5.39449C20.4393 5.51549 20.4995 5.66549 20.4995 5.84449C20.4995 6.02332 20.4393 6.17215 20.3188 6.29099C20.1984 6.40982 20.0493 6.46924 19.8713 6.46924H10.1418ZM5.03152 19.6532C4.61152 19.6532 4.25293 19.5078 3.95577 19.217C3.65843 18.9263 3.50977 18.5709 3.50977 18.1507C3.50977 17.7304 3.65685 17.3732 3.95102 17.079C4.24518 16.7848 4.60235 16.6377 5.02252 16.6377C5.44285 16.6377 5.79835 16.7875 6.08902 17.087C6.37985 17.3863 6.52527 17.7447 6.52527 18.1622C6.52527 18.5704 6.37893 18.9209 6.08627 19.2137C5.79377 19.5067 5.44218 19.6532 5.03152 19.6532ZM5.03152 13.5045C4.61152 13.5045 4.25293 13.3564 3.95577 13.0602C3.65843 12.7641 3.50977 12.4107 3.50977 12C3.50977 11.5893 3.65885 11.2359 3.95702 10.9397C4.25518 10.6436 4.6136 10.4955 5.03227 10.4955C5.44177 10.4955 5.79293 10.6436 6.08577 10.9397C6.37877 11.2359 6.52527 11.5893 6.52527 12C6.52527 12.4107 6.37893 12.7641 6.08627 13.0602C5.79377 13.3564 5.44218 13.5045 5.03152 13.5045ZM5.01427 7.34549C4.6036 7.34549 4.25018 7.1974 3.95402 6.90124C3.65785 6.60507 3.50977 6.25165 3.50977 5.84099C3.50977 5.43032 3.65785 5.0769 3.95402 4.78074C4.25018 4.48457 4.60468 4.33649 5.01752 4.33649C5.43035 4.33649 5.78485 4.48457 6.08102 4.78074C6.37718 5.0769 6.52527 5.43032 6.52527 5.84099C6.52527 6.25165 6.37727 6.60507 6.08127 6.90124C5.78543 7.1974 5.42977 7.34549 5.01427 7.34549Z" fill="currentColor"/>
  </g>
</svg>