<svg xmlns="http://www.w3.org/2000/svg" width="41" height="40" viewBox="0 0 41 40" fill="none">
<g id="more_horiz">
<mask id="mask0_7128_3308" style="mask-type:alpha" maskUnits="userSpaceOnUse" x="0" y="0" width="41" height="40">
<rect id="Bounding box" x="0.0517578" width="40" height="40" fill="#D9D9D9"/>
</mask>
<g mask="url(#mask0_7128_3308)">
<path id="more_horiz_2" d="M9.15925 22.4445C8.48594 22.4445 7.91086 22.2048 7.434 21.7253C6.95717 21.2458 6.71875 20.6694 6.71875 19.9962C6.71875 19.3229 6.95849 18.7478 7.43796 18.2709C7.91743 17.7941 8.49381 17.5557 9.16708 17.5557C9.84039 17.5557 10.4155 17.7954 10.8923 18.2749C11.3692 18.7543 11.6076 19.3307 11.6076 20.004C11.6076 20.6773 11.3678 21.2524 10.8884 21.7292C10.4089 22.2061 9.83253 22.4445 9.15925 22.4445ZM20.0482 22.4445C19.3749 22.4445 18.7998 22.2048 18.3229 21.7253C17.8461 21.2458 17.6077 20.6694 17.6077 19.9962C17.6077 19.3229 17.8474 18.7478 18.3269 18.2709C18.8063 17.7941 19.3827 17.5557 20.056 17.5557C20.7293 17.5557 21.3044 17.7954 21.7812 18.2749C22.2581 18.7543 22.4965 19.3307 22.4965 20.004C22.4965 20.6773 22.2568 21.2524 21.7773 21.7292C21.2978 22.2061 20.7214 22.4445 20.0482 22.4445ZM30.9371 22.4445C30.2638 22.4445 29.6887 22.2048 29.2118 21.7253C28.735 21.2458 28.4966 20.6694 28.4966 19.9962C28.4966 19.3229 28.7363 18.7478 29.2158 18.2709C29.6953 17.7941 30.2716 17.5557 30.9449 17.5557C31.6182 17.5557 32.1933 17.7954 32.6701 18.2749C33.147 18.7543 33.3854 19.3307 33.3854 20.004C33.3854 20.6773 33.1457 21.2524 32.6662 21.7292C32.1867 22.2061 31.6104 22.4445 30.9371 22.4445Z" fill="#AFAFAF"/>
</g>
</g>
</svg>