<svg xmlns="http://www.w3.org/2000/svg" width="40" height="40" viewBox="0 0 40 40" fill="none">
  <mask id="mask0_789_1873" style="mask-type:alpha" maskUnits="userSpaceOnUse" x="0" y="0" width="40" height="40">
    <rect width="40" height="40" fill="#D9D9D9"/>
  </mask>
  <g mask="url(#mask0_789_1873)">
    <path d="M19.9998 19.9722C18.1665 19.9722 16.6434 19.3657 15.4304 18.1528C14.2174 16.9398 13.611 15.4167 13.611 13.5833C13.611 11.75 14.2174 10.2269 15.4304 9.01392C16.6434 7.80094 18.1665 7.19446 19.9998 7.19446C21.8332 7.19446 23.3563 7.80094 24.5693 9.01392C25.7822 10.2269 26.3887 11.75 26.3887 13.5833C26.3887 15.4167 25.7822 16.9398 24.5693 18.1528C23.3563 19.3657 21.8332 19.9722 19.9998 19.9722ZM6.6665 30.5556V29.1667C6.6665 28.1482 6.92345 27.257 7.43734 26.4931C7.95123 25.7292 8.62021 25.1482 9.4443 24.75C11.2591 23.9074 13.0322 23.2755 14.7637 22.8542C16.4952 22.4329 18.2406 22.2223 19.9998 22.2223C21.7591 22.2223 23.4998 22.4375 25.222 22.8681C26.9443 23.2986 28.7128 23.9259 30.5276 24.75C31.3702 25.1482 32.0484 25.7292 32.5623 26.4931C33.0762 27.257 33.3332 28.1482 33.3332 29.1667V30.5556C33.3332 31.3241 33.0623 31.9792 32.5207 32.5208C31.979 33.0625 31.3239 33.3333 30.5554 33.3333H9.44425C8.67575 33.3333 8.02067 33.0625 7.479 32.5208C6.93734 31.9792 6.6665 31.3241 6.6665 30.5556Z" fill="#242734"/>
  </g>
</svg>