<svg xmlns="http://www.w3.org/2000/svg" width="40" height="40" viewBox="0 0 40 40" fill="none">
  <mask id="mask0_788_1373" style="mask-type:alpha" maskUnits="userSpaceOnUse" x="0" y="0" width="40" height="40">
    <rect width="40" height="40" fill="#D9D9D9"/>
  </mask>
  <g mask="url(#mask0_788_1373)">
    <path d="M20 34.7222C19.6019 34.7222 19.2708 34.5903 19.007 34.3264C18.7431 34.0625 18.6111 33.7315 18.6111 33.3333V21.7083H18.0555C16.2778 21.7083 14.5926 21.3681 13 20.6875C11.4074 20.0069 9.99537 19.0417 8.76387 17.7917C7.5324 16.5417 6.59722 15.0972 5.95833 13.4583C5.31944 11.8194 5 10.1111 5 8.33333V6.38888C5 5.99074 5.13194 5.65972 5.39583 5.39583C5.65972 5.13194 5.99074 5 6.38887 5H8.27779C10.0093 5 11.6759 5.34028 13.2778 6.02083C14.8796 6.70139 16.3055 7.66667 17.5555 8.91667C18.4537 9.83333 19.1968 10.8518 19.7847 11.9722C20.3727 13.0926 20.8009 14.2824 21.0695 15.5417C21.2639 15.2546 21.4722 14.9792 21.6945 14.7153C21.9167 14.4514 22.1528 14.1852 22.4028 13.9167C23.6528 12.6667 25.0787 11.7014 26.6805 11.0208C28.2824 10.3403 29.963 10 31.7222 10H33.6111C34.0093 10 34.3403 10.1319 34.6042 10.3958C34.8681 10.6597 35 10.9907 35 11.3889V13.3333C35 15.1111 34.6643 16.8194 33.993 18.4583C33.3218 20.0972 32.3704 21.5417 31.1389 22.7917C29.8889 24.0417 28.4699 25 26.882 25.6667C25.294 26.3333 23.6296 26.6667 21.8889 26.6667H21.3889V33.3333C21.3889 33.7315 21.2569 34.0625 20.993 34.3264C20.7292 34.5903 20.3981 34.7222 20 34.7222Z" fill="#A3A4AA"/>
  </g>
</svg>