<svg width="40" height="40" viewBox="0 0 40 40" fill="none" xmlns="http://www.w3.org/2000/svg">
<g id="store">
<mask id="mask0_791_1680" style="mask-type:alpha" maskUnits="userSpaceOnUse" x="0" y="0" width="40" height="40">
<rect id="Bounding box" width="40" height="40" fill="#D9D9D9"/>
</mask>
<g mask="url(#mask0_791_1680)">
<path id="store_2" d="M8.19426 6.86112H31.8609C32.2544 6.86112 32.5843 6.99469 32.8505 7.26183C33.1167 7.52897 33.2498 7.85998 33.2498 8.25487C33.2498 8.64976 33.1167 8.97915 32.8505 9.24304C32.5843 9.50693 32.2544 9.63887 31.8609 9.63887H8.19426C7.80074 9.63887 7.47087 9.5053 7.20468 9.23816C6.93846 8.97103 6.80535 8.64001 6.80535 8.24512C6.80535 7.85023 6.93846 7.52084 7.20468 7.25696C7.47087 6.99307 7.80074 6.86112 8.19426 6.86112ZM8.33314 33.1667C7.93961 33.1667 7.60975 33.0336 7.34356 32.7674C7.07736 32.5012 6.94426 32.1713 6.94426 31.7778V23.0277H6.1526C5.71482 23.0277 5.35768 22.8588 5.08118 22.5208C4.80471 22.1829 4.71276 21.7963 4.80535 21.3611L6.58314 12.9722C6.64794 12.6389 6.80767 12.3704 7.06231 12.1667C7.31694 11.963 7.60629 11.8611 7.93035 11.8611H32.097C32.4211 11.8611 32.7105 11.963 32.9651 12.1667C33.2197 12.3704 33.3794 12.6389 33.4443 12.9722L35.222 21.3611C35.3146 21.7963 35.2227 22.1829 34.9462 22.5208C34.6697 22.8588 34.3126 23.0277 33.8748 23.0277H33.0831V31.7778C33.0831 32.1713 32.9496 32.5012 32.6824 32.7674C32.4153 33.0336 32.0843 33.1667 31.6894 33.1667C31.2945 33.1667 30.9651 33.0336 30.7012 32.7674C30.4373 32.5012 30.3054 32.1713 30.3054 31.7778V23.0277H23.1109V31.7778C23.1109 32.1713 22.9778 32.5012 22.7116 32.7674C22.4454 33.0336 22.1155 33.1667 21.722 33.1667H8.33314ZM9.72201 30.3889H20.3331V23.0277H9.72201V30.3889Z" fill="#242734"/>
</g>
</g>
</svg>
