<svg xmlns="http://www.w3.org/2000/svg" width="32" height="32" viewBox="0 0 32 32" fill="none">
<mask id="mask0_4794_4106" style="mask-type:alpha" maskUnits="userSpaceOnUse" x="0" y="0" width="32" height="32">
<rect width="32" height="32" fill="#D9D9D9"/>
</mask>
<g mask="url(#mask0_4794_4106)">
<path d="M7.55521 29.3334C6.95521 29.3334 6.43484 29.1131 5.99411 28.6723C5.55337 28.2316 5.33301 27.7112 5.33301 27.1112V10.2223C5.33301 9.62228 5.55337 9.10192 5.99411 8.66118C6.43484 8.22045 6.95521 8.00008 7.55521 8.00008H10.8886V7.77785C10.8886 6.35563 11.3849 5.14823 12.3774 4.15565C13.37 3.16305 14.5775 2.66675 15.9997 2.66675C17.4219 2.66675 18.6293 3.16305 19.6219 4.15565C20.6145 5.14823 21.1108 6.35563 21.1108 7.77785V8.00008H24.4441C25.0441 8.00008 25.5645 8.22045 26.0052 8.66118C26.446 9.10192 26.6663 9.62228 26.6663 10.2223V27.1112C26.6663 27.7112 26.446 28.2316 26.0052 28.6723C25.5645 29.1131 25.0441 29.3334 24.4441 29.3334H7.55521ZM7.55521 27.1112H24.4441V10.2223H21.1108V13.1112C21.1108 13.426 21.0039 13.6899 20.7902 13.9029C20.5765 14.1158 20.3117 14.2223 19.9958 14.2223C19.6799 14.2223 19.4164 14.1158 19.2052 13.9029C18.9941 13.6899 18.8886 13.426 18.8886 13.1112V10.2223H13.1108V13.1112C13.1108 13.426 13.0039 13.6899 12.7902 13.9029C12.5765 14.1158 12.3117 14.2223 11.9958 14.2223C11.6799 14.2223 11.4164 14.1158 11.2052 13.9029C10.9941 13.6899 10.8886 13.426 10.8886 13.1112V10.2223H7.55521V27.1112ZM13.1108 8.00008H18.8886V7.77785C18.8886 6.97045 18.6089 6.28712 18.0497 5.72785C17.4904 5.16858 16.8071 4.88895 15.9997 4.88895C15.1923 4.88895 14.5089 5.16858 13.9497 5.72785C13.3904 6.28712 13.1108 6.97045 13.1108 7.77785V8.00008Z" fill="white"/>
<path d="M15.7239 17.5577V16.1272C15.7239 15.9298 15.5111 15.8096 15.3416 15.9083L13.7599 16.8455C13.4547 17.0275 13.2666 17.3574 13.2666 17.715V18.6615V25.1053C13.8771 25.1053 15.1165 25.1053 15.7239 25.1053V18.9082C16.1062 17.3543 18.5665 20.311 19.9324 15.6863C18.3476 16.8702 16.4823 15.3533 15.7239 17.5577Z" fill="white"/>
</g>
</svg>
