<svg xmlns="http://www.w3.org/2000/svg" width="105" height="25" viewBox="0 0 103 20" fill="none">
<path d="M0 6.16987H1.98577V5.14772C1.98577 4.01299 2.10735 3.16195 2.3505 2.59908C2.59366 2.04073 3.03944 1.58143 3.68336 1.2302C4.33627 0.878979 5.1558 0.703369 6.14643 0.703369C7.16859 0.703369 8.16372 0.856468 9.14085 1.15816L8.65904 3.65726C8.09167 3.51767 7.54232 3.45463 7.0155 3.45463C6.49314 3.45463 6.12391 3.5717 5.89877 3.81486C5.67361 4.05801 5.56555 4.52182 5.56555 5.21075V6.16536H8.24026V8.97967H5.56555V19.6875H1.98577V8.98417H0V6.16987ZM12.9278 10.2945L9.68119 9.70913C10.0459 8.39879 10.6718 7.43518 11.5634 6.80477C12.4595 6.17887 13.7788 5.86367 15.5349 5.86367C17.1335 5.86367 18.3222 6.05279 19.1012 6.43103C19.8802 6.80928 20.4296 7.28658 20.7493 7.86745C21.0645 8.44832 21.2266 9.5155 21.2266 11.069L21.1861 15.2477C21.1861 16.4364 21.2446 17.3145 21.3617 17.8774C21.4743 18.4402 21.6904 19.0481 22.0056 19.6875H18.4618C18.3718 19.4489 18.2547 19.0976 18.1196 18.6293C18.061 18.4177 18.0205 18.2781 17.9935 18.2061C17.3811 18.8004 16.7282 19.2462 16.0348 19.5434C15.3368 19.8496 14.5938 19.9982 13.8058 19.9982C12.4144 19.9982 11.3157 19.62 10.5142 18.868C9.7082 18.1115 9.31195 17.1569 9.31195 15.9997C9.31195 15.2387 9.49208 14.5587 9.86131 13.9553C10.226 13.3565 10.7394 12.9017 11.3968 12.582C12.0542 12.2668 13.0043 11.9876 14.2426 11.7489C15.9132 11.4382 17.0704 11.141 17.7143 10.8709V10.5151C17.7143 9.82621 17.5432 9.3354 17.2055 9.04271C16.8678 8.75002 16.2284 8.60592 15.2828 8.60592C14.6434 8.60592 14.1481 8.732 13.7923 8.98417C13.4366 9.22732 13.1484 9.6641 12.9278 10.2945ZM17.7143 13.1989C17.2595 13.352 16.5301 13.5321 15.5349 13.7482C14.5443 13.9599 13.8959 14.1715 13.5897 14.3696C13.1259 14.7028 12.8918 15.1216 12.8918 15.6304C12.8918 16.1348 13.0809 16.5625 13.4546 16.9318C13.8284 17.2965 14.3011 17.4811 14.882 17.4811C15.5304 17.4811 16.1428 17.2695 16.7282 16.8462C17.1605 16.5265 17.4442 16.1302 17.5792 15.6574C17.6738 15.3557 17.7188 14.7704 17.7188 13.9148V13.1989H17.7143Z" fill="white"/>
<path d="M27.4482 8.66318V6.57384C27.4482 6.28566 27.1375 6.11005 26.8898 6.25414L24.5798 7.62302C24.1341 7.88869 23.8594 8.3705 23.8594 8.89283V10.2752V19.6862C24.7509 19.6862 26.5611 19.6862 27.4482 19.6862V10.6354C28.0065 8.36599 31.5998 12.6843 33.5946 5.92993C31.2801 7.65904 28.5559 5.44362 27.4482 8.66318Z" fill="#73BE44"/>
<path d="M34.6992 6.17032H37.9998V8.012C39.1796 6.57557 40.5845 5.85962 42.2145 5.85962C43.0791 5.85962 43.8311 6.03974 44.466 6.39546C45.1054 6.75119 45.6277 7.29154 46.0375 8.012C46.6274 7.29154 47.2713 6.75119 47.9602 6.39546C48.6447 6.03974 49.3831 5.85962 50.1621 5.85962C51.1528 5.85962 51.9948 6.06224 52.6837 6.46751C53.3682 6.86826 53.8815 7.46265 54.2237 8.24164C54.4714 8.81802 54.5929 9.7546 54.5929 11.0469V19.6925H51.0177V11.9655C51.0177 10.6237 50.8961 9.75912 50.6485 9.36736C50.3197 8.85853 49.8109 8.60187 49.1219 8.60187C48.6176 8.60187 48.1493 8.75497 47.7036 9.06117C47.2668 9.36736 46.9471 9.81314 46.7534 10.403C46.5598 10.9929 46.4563 11.925 46.4563 13.1993V19.6925H42.881V12.2807C42.881 10.9659 42.8179 10.1148 42.6918 9.7321C42.5658 9.34935 42.3676 9.06567 42.102 8.88105C41.8318 8.69193 41.4716 8.59738 41.0123 8.59738C40.4584 8.59738 39.9631 8.74598 39.5263 9.04316C39.085 9.34035 38.7653 9.76812 38.5762 10.331C38.3871 10.8938 38.2881 11.8169 38.2881 13.1183V19.688H34.7127V6.17032H34.6992Z" fill="white"/>
<path d="M57.1016 19.6926V1.02368H60.6859V10.93L64.869 6.17048H69.2774L64.6574 11.1101L69.6061 19.6926H65.7516L62.3474 13.6227L60.6859 15.3654V19.6926H57.1016Z" fill="white"/>
<path d="M73.9791 10.2904L70.7325 9.70507C71.0972 8.39474 71.7231 7.43112 72.6147 6.80072C73.5108 6.17482 74.8302 5.85962 76.5862 5.85962C78.1848 5.85962 79.3736 6.04874 80.1525 6.42698C80.9315 6.80522 81.4809 7.28253 81.8006 7.86339C82.1158 8.44427 82.2779 9.51144 82.2779 11.0649L82.2374 15.2436C82.2374 16.4324 82.2959 17.3104 82.413 17.8733C82.5256 18.4362 82.7417 19.0441 83.0569 19.6835H79.5131C79.4231 19.4448 79.306 19.0936 79.1709 18.6253C79.1124 18.4136 79.0718 18.2741 79.0448 18.202C78.4324 18.7964 77.7795 19.2422 77.0861 19.5394C76.3926 19.8366 75.6497 19.9806 74.8571 19.9806C73.4658 19.9806 72.3671 19.6024 71.5655 18.8504C70.7595 18.0939 70.3633 17.1393 70.3633 15.9821C70.3633 15.2211 70.5479 14.5412 70.9126 13.9378C71.2774 13.3389 71.7907 12.8841 72.4481 12.5644C73.1055 12.2492 74.0557 11.97 75.2939 11.7314C76.9645 11.4207 78.1217 11.1235 78.7657 10.8533V10.4976C78.7657 9.80864 78.5946 9.31783 78.2568 9.02513C77.9191 8.73244 77.2797 8.58836 76.3341 8.58836C75.6947 8.58836 75.1994 8.71443 74.8436 8.9666C74.4879 9.22326 74.1997 9.66005 73.9791 10.2904ZM78.7657 13.1948C78.3109 13.3479 77.5859 13.528 76.5862 13.7442C75.5957 13.9558 74.9472 14.1674 74.641 14.3656C74.1772 14.6988 73.9431 15.1175 73.9431 15.6264C73.9431 16.1307 74.1322 16.5585 74.5059 16.9277C74.8797 17.2924 75.3525 17.4771 75.9334 17.4771C76.5818 17.4771 77.1941 17.2654 77.7795 16.8421C78.2163 16.5224 78.4955 16.1262 78.6306 15.6534C78.7251 15.3517 78.7702 14.7663 78.7702 13.9108V13.1948H78.7657Z" fill="white"/>
<path d="M88.3995 19.6925H84.8242V6.17032H88.1429V8.09305C88.7102 7.18347 89.2235 6.58458 89.6783 6.2964C90.1331 6.00821 90.6465 5.85962 91.2273 5.85962C92.0424 5.85962 92.8258 6.08476 93.5824 6.53956L92.4746 9.65556C91.8757 9.2683 91.3129 9.07468 90.795 9.07468C90.2907 9.07468 89.8674 9.20976 89.5207 9.48895C89.1695 9.76362 88.8994 10.2634 88.7012 10.9839C88.5031 11.7044 88.3995 13.2173 88.3995 15.5183V19.6925Z" fill="white"/>
<path d="M102.158 6.17174V9.02206H99.7179V14.4706C99.7179 15.5737 99.7404 16.2177 99.7855 16.4023C99.835 16.5869 99.9385 16.731 100.101 16.8526C100.267 16.9697 100.47 17.0327 100.704 17.0327C101.037 17.0327 101.519 16.9156 102.145 16.6905L102.447 19.4642C101.614 19.82 100.672 20.0001 99.6188 20.0001C98.9749 20.0001 98.3941 19.892 97.8762 19.6804C97.3584 19.4642 96.9802 19.1806 96.7371 18.8383C96.4938 18.4961 96.3273 18.0323 96.2327 17.4425C96.1606 17.0282 96.1201 16.1861 96.1201 14.9208V9.02206H94.4766V6.17174H96.1201V3.48352L99.7089 1.39868V6.17624H102.158V6.17174Z" fill="white"/>
</svg>