<svg width="24" height="24" viewBox="0 0 24 24" fill="none" xmlns="http://www.w3.org/2000/svg">
<g id="Order history">
<mask id="mask0_4937_6144" style="mask-type:alpha" maskUnits="userSpaceOnUse" x="0" y="0" width="24" height="24">
<rect id="Bounding box" width="24" height="24" fill="#D9D9D9"/>
</mask>
<g mask="url(#mask0_4937_6144)">
<path id="deployed_code_history" d="M12 3.61587L5.57498 7.32422L12 11.0492L18.4084 7.32422L12 3.61587ZM3 16.1576V7.84087C3 7.54089 3.07292 7.26429 3.21875 7.01109C3.36458 6.75791 3.56944 6.55395 3.83332 6.39922L11.1667 2.17422C11.3111 2.09089 11.4483 2.03255 11.5784 1.99922C11.7084 1.96589 11.8486 1.94922 11.9992 1.94922C12.1497 1.94922 12.2944 1.96589 12.4333 1.99922C12.5722 2.03255 12.7056 2.09089 12.8333 2.17422L20.1667 6.39922C20.4306 6.55395 20.6354 6.75791 20.7813 7.01109C20.9271 7.26429 21 7.54089 21 7.84087V11.8326C21 12.0687 20.9199 12.2666 20.7596 12.4263C20.5993 12.586 20.4007 12.6659 20.1638 12.6659C19.9268 12.6659 19.7292 12.586 19.5709 12.4263C19.4125 12.2666 19.3334 12.0687 19.3334 11.8326V8.69922L12.8417 12.4742C12.5806 12.6242 12.3028 12.702 12.0083 12.7075C11.7139 12.7131 11.4361 12.6409 11.175 12.4909L4.66665 8.71587V16.1492L11.25 19.9492C11.375 20.0195 11.4757 20.1179 11.5521 20.2443C11.6285 20.3708 11.6667 20.5113 11.6667 20.6659C11.6667 20.9826 11.5278 21.2201 11.25 21.3784C10.9722 21.5367 10.6945 21.5409 10.4167 21.3909L3.83332 17.5992C3.56944 17.4445 3.36458 17.2405 3.21875 16.9873C3.07292 16.7341 3 16.4576 3 16.1576ZM18.1667 23.9992C16.8389 23.9992 15.7014 23.5289 14.7542 22.5884C13.807 21.6478 13.3334 20.5103 13.3334 19.1759C13.3334 17.8414 13.807 16.7006 14.7542 15.7534C15.7014 14.8062 16.8389 14.3326 18.1667 14.3326C19.4944 14.3326 20.6319 14.8054 21.5792 15.7512C22.5264 16.6969 23 17.8407 23 19.1826C23 20.5152 22.5264 21.6511 21.5792 22.5903C20.6319 23.5296 19.4944 23.9992 18.1667 23.9992ZM18.6834 19.0326V16.5485C18.6834 16.4045 18.6334 16.2825 18.5334 16.1825C18.4334 16.0825 18.3111 16.0325 18.1667 16.0325C18.0222 16.0325 17.9 16.0825 17.8 16.1825C17.7 16.2825 17.65 16.4046 17.65 16.5487V19.0076C17.65 19.1194 17.6722 19.2278 17.7167 19.3327C17.7611 19.4376 17.8278 19.532 17.9167 19.6159L19.6834 21.2826C19.7722 21.3715 19.8833 21.4131 20.0167 21.4076C20.15 21.402 20.2611 21.3548 20.35 21.2659C20.45 21.1659 20.4972 21.0492 20.4917 20.9159C20.4861 20.7826 20.4334 20.6715 20.3334 20.5826L18.6834 19.0326Z" fill="#242734"/>
</g>
</g>
</svg>
