<svg width="40" height="40" viewBox="0 0 40 40" fill="none" xmlns="http://www.w3.org/2000/svg">
<g id="Order">
<mask id="mask0_5886_141" style="mask-type:alpha" maskUnits="userSpaceOnUse" x="0" y="0" width="40" height="40">
<rect id="Bounding box" width="40" height="40" fill="#D9D9D9"/>
</mask>
<g mask="url(#mask0_5886_141)">
<path id="package_2" d="M18.6111 36.375V20.7917L5 12.9167V26.9306C5 27.4306 5.12268 27.8935 5.36804 28.3195C5.61343 28.7454 5.95371 29.0833 6.38887 29.3333L18.6111 36.375ZM21.3889 36.375L33.6111 29.3333C34.0463 29.0833 34.3866 28.7454 34.632 28.3195C34.8773 27.8935 35 27.4306 35 26.9306V12.8889L21.3889 20.7917V36.375ZM28.1528 13.6806L33.4861 10.5833L21.3889 3.625C20.9537 3.375 20.4908 3.25 20 3.25C19.5092 3.25 19.0463 3.375 18.6111 3.625L14.625 5.91667L28.1528 13.6806ZM20 18.4167L25.3472 15.3055L11.8333 7.52779L6.5 10.625L20 18.4167Z" fill="#242734"/>
</g>
</g>
</svg>
