<svg xmlns="http://www.w3.org/2000/svg" width="24" height="24" viewBox="0 0 24 24" fill="none">
  <mask id="mask0_1005_4378" style="mask-type:alpha" maskUnits="userSpaceOnUse" x="0" y="0" width="24" height="24">
    <rect width="24" height="24" fill="#D9D9D9"/>
  </mask>
  <g mask="url(#mask0_1005_4378)">
    <path d="M9.99766 12.831C9.68054 13.1481 9.30269 13.3051 8.86409 13.302C8.42549 13.2988 8.04804 13.1391 7.73174 12.8228C7.41539 12.5065 7.2573 12.1292 7.25748 11.691C7.25756 11.2528 7.4156 10.8757 7.7316 10.5597C8.04764 10.2436 8.42535 10.085 8.86473 10.0837C9.30411 10.0825 9.68173 10.2398 9.99759 10.5556C10.315 10.8731 10.4737 11.2524 10.4735 11.6935C10.4734 12.1347 10.3148 12.5139 9.99766 12.831ZM9.23084 12.0659C9.33403 11.9627 9.38588 11.8385 9.3864 11.6933C9.38691 11.5482 9.3355 11.424 9.23217 11.3206C9.12888 11.2173 9.00694 11.1677 8.86635 11.1717C8.72581 11.1756 8.60392 11.2292 8.50069 11.3324C8.3975 11.4356 8.34565 11.5552 8.34513 11.6911C8.34461 11.8271 8.39601 11.9467 8.49935 12.0501C8.60264 12.1534 8.72458 12.2076 8.86517 12.2129C9.00572 12.2182 9.12761 12.1692 9.23084 12.0659ZM15.6434 12.8302C15.3288 13.1448 14.9511 13.3027 14.5103 13.3038C14.0695 13.3049 13.6911 13.1474 13.375 12.8314C13.059 12.5154 12.9011 12.1369 12.9015 11.6959C12.9017 11.2548 13.0604 10.8758 13.3776 10.5586C13.6947 10.2415 14.0743 10.0839 14.5164 10.0856C14.9585 10.0874 15.3365 10.2452 15.6504 10.5592C15.9644 10.8731 16.1203 11.2515 16.1182 11.6942C16.1163 12.1369 15.958 12.5156 15.6434 12.8302ZM14.8794 12.0621C14.9826 11.9589 15.0327 11.8376 15.0297 11.6981C15.0266 11.5585 14.9741 11.4378 14.8722 11.3359C14.7703 11.234 14.6501 11.1815 14.5117 11.1784C14.3733 11.1753 14.2525 11.2254 14.1493 11.3286C14.0461 11.4318 13.9937 11.5555 13.9922 11.6997C13.9907 11.8438 14.0409 11.9669 14.1428 12.0687C14.2446 12.1706 14.3671 12.2208 14.5101 12.2192C14.6531 12.2177 14.7762 12.1654 14.8794 12.0621ZM11.6886 16.2483C11.5349 16.2505 11.407 16.2007 11.305 16.0986C11.203 15.9967 11.152 15.8677 11.1519 15.7116L11.1554 7.65315C11.1553 7.50358 11.2064 7.37843 11.3088 7.27768C11.4112 7.17698 11.5379 7.12747 11.689 7.12915C11.8403 7.13083 11.9655 7.18127 12.0647 7.28045C12.1639 7.37969 12.2135 7.50409 12.2135 7.65366L12.2247 15.7121C12.2263 15.8667 12.1756 15.9955 12.0725 16.0986C11.9693 16.2017 11.8414 16.2516 11.6886 16.2483Z" fill="#242734" fill-opacity="0.5"/>
    <path d="M21.5168 14.0168L14.0333 21.5168C13.8666 21.6778 13.6791 21.7986 13.4708 21.8793C13.2624 21.9598 13.0541 22 12.8458 22C12.6374 22 12.4305 21.9583 12.225 21.875C12.0195 21.7917 11.8334 21.6723 11.6668 21.5168L2.49175 12.325C2.34175 12.175 2.22225 11.9988 2.13325 11.7965C2.04442 11.5943 2 11.3816 2 11.1583V3.66675C2 3.20842 2.16317 2.816 2.4895 2.4895C2.816 2.16317 3.20842 2 3.66675 2H11.175C11.398 2 11.614 2.04517 11.823 2.1355C12.0322 2.22567 12.2134 2.34717 12.3668 2.5L21.5168 11.6583C21.6877 11.8249 21.8124 12.0124 21.8908 12.2208C21.9691 12.4291 22.0083 12.6374 22.0083 12.8458C22.0083 13.0541 21.968 13.2624 21.8875 13.4708C21.807 13.6791 21.6834 13.8611 21.5168 14.0168ZM12.875 20.3668L20.3583 12.8668L11.1668 3.66675H3.66675V11.1168L12.875 20.3668Z" fill="#242734" fill-opacity="0.5"/>
  </g>
</svg>