<svg width="40" height="40" viewBox="0 0 40 40" fill="none" xmlns="http://www.w3.org/2000/svg">
<mask id="mask0_4897_22800" style="mask-type:alpha" maskUnits="userSpaceOnUse" x="0" y="0" width="40" height="40">
<rect width="40" height="40" fill="#D9D9D9"/>
</mask>
<g mask="url(#mask0_4897_22800)">
<path d="M18.6108 21.389H9.72188C9.32838 21.389 8.99852 21.2555 8.7323 20.9883C8.4661 20.7212 8.33301 20.3902 8.33301 19.9953C8.33301 19.6004 8.4661 19.271 8.7323 19.0071C8.99852 18.7432 9.32838 18.6113 9.72188 18.6113H18.6108V9.72237C18.6108 9.32887 18.7444 8.99901 19.0115 8.73279C19.2786 8.46659 19.6097 8.3335 20.0045 8.3335C20.3994 8.3335 20.7288 8.46659 20.9927 8.73279C21.2566 8.99901 21.3885 9.32887 21.3885 9.72237V18.6113H30.2775C30.671 18.6113 31.0008 18.7449 31.267 19.012C31.5332 19.2791 31.6663 19.6101 31.6663 20.005C31.6663 20.3999 31.5332 20.7293 31.267 20.9932C31.0008 21.2571 30.671 21.389 30.2775 21.389H21.3885V30.278C21.3885 30.6715 21.255 31.0013 20.9878 31.2675C20.7207 31.5337 20.3897 31.6668 19.9948 31.6668C19.5999 31.6668 19.2705 31.5337 19.0066 31.2675C18.7427 31.0013 18.6108 30.6715 18.6108 30.278V21.389Z" fill="#242734"/>
</g>
</svg>
