<svg width="40" height="40" viewBox="0 0 40 40" fill="none" xmlns="http://www.w3.org/2000/svg">
<g id="Privacy">
<mask id="mask0_5886_178" style="mask-type:alpha" maskUnits="userSpaceOnUse" x="0" y="0" width="40" height="40">
<rect id="Bounding box" width="40" height="40" fill="#D9D9D9"/>
</mask>
<g mask="url(#mask0_5886_178)">
<path id="privacy_tip" d="M20.0047 28.2222C20.3996 28.2222 20.729 28.0891 20.9929 27.8229C21.2568 27.5567 21.3887 27.2269 21.3887 26.8333V19.1389C21.3887 18.7453 21.2551 18.4155 20.988 18.1493C20.7209 17.8831 20.3899 17.75 19.995 17.75C19.6001 17.75 19.2707 17.8831 19.0068 18.1493C18.7429 18.4155 18.611 18.7453 18.611 19.1389V26.8333C18.611 27.2269 18.7445 27.5567 19.0117 27.8229C19.2788 28.0891 19.6098 28.2222 20.0047 28.2222ZM19.9998 14.8055C20.4248 14.8055 20.7811 14.6618 21.0686 14.3743C21.3561 14.0868 21.4998 13.7305 21.4998 13.3055C21.4998 12.8805 21.3561 12.5243 21.0686 12.2368C20.7811 11.9493 20.4248 11.8055 19.9998 11.8055C19.5748 11.8055 19.2186 11.9493 18.9311 12.2368C18.6436 12.5243 18.4998 12.8805 18.4998 13.3055C18.4998 13.7305 18.6436 14.0868 18.9311 14.3743C19.2186 14.6618 19.5748 14.8055 19.9998 14.8055ZM19.9998 36.5C19.8365 36.5 19.6848 36.4861 19.5448 36.4583C19.4048 36.4306 19.2648 36.3889 19.1248 36.3333C15.3008 35.0463 12.2684 32.7153 10.0276 29.3403C7.78688 25.9653 6.6665 22.2861 6.6665 18.3026V10.2361C6.6665 9.648 6.83432 9.11872 7.16996 8.64825C7.50563 8.1778 7.93966 7.83672 8.47205 7.625L19.0276 3.68054C19.361 3.56018 19.685 3.5 19.9998 3.5C20.3146 3.5 20.6387 3.56018 20.972 3.68054L31.5276 7.625C32.06 7.83672 32.494 8.1778 32.8297 8.64825C33.1653 9.11872 33.3332 9.648 33.3332 10.2361V18.3026C33.3332 22.2861 32.2128 25.9653 29.972 29.3403C27.7313 32.7153 24.6989 35.0463 20.8748 36.3333C20.7348 36.3889 20.5948 36.4306 20.4548 36.4583C20.3148 36.4861 20.1632 36.5 19.9998 36.5Z" fill="#242734"/>
</g>
</g>
</svg>
