<svg xmlns="http://www.w3.org/2000/svg" width="24" height="24" viewBox="0 0 24 24" fill="none">
  <g opacity="0.5">
    <mask id="mask0_1872_3307" style="mask-type:alpha" maskUnits="userSpaceOnUse" x="0" y="0" width="24" height="24">
      <rect width="24" height="24" fill="#D9D9D9"/>
    </mask>
    <g mask="url(#mask0_1872_3307)">
      <path d="M12 15.4462C12.2133 15.4462 12.3889 15.3759 12.5268 15.2352C12.6644 15.0947 12.7333 14.9205 12.7333 14.7127C12.7333 14.4994 12.6644 14.3228 12.5268 14.183C12.3889 14.043 12.2133 13.973 12 13.973C11.7867 13.973 11.6111 14.043 11.4733 14.183C11.3356 14.3228 11.2668 14.4983 11.2668 14.7095C11.2668 14.9208 11.3356 15.0964 11.4733 15.2362C11.6111 15.3762 11.7867 15.4462 12 15.4462ZM12.0033 12.3602C12.1823 12.3602 12.3312 12.3 12.45 12.1797C12.5688 12.0592 12.6283 11.91 12.6283 11.732V8.07046C12.6283 7.89662 12.5677 7.74846 12.4465 7.62596C12.3255 7.50346 12.1756 7.44221 11.9968 7.44221C11.8177 7.44221 11.6688 7.50346 11.55 7.62596C11.4312 7.74846 11.3718 7.89662 11.3718 8.07046V11.732C11.3718 11.91 11.4323 12.0592 11.5535 12.1797C11.6745 12.3 11.8244 12.3602 12.0033 12.3602ZM12 21.371C11.9063 21.371 11.8161 21.3626 11.7293 21.346C11.6423 21.3293 11.5585 21.3043 11.478 21.271C9.33333 20.5073 7.63417 19.1696 6.3805 17.258C5.12683 15.3461 4.5 13.2643 4.5 11.0125V6.42696C4.5 6.09362 4.59442 5.79354 4.78325 5.52671C4.97225 5.26004 5.2165 5.06671 5.516 4.94671L11.452 2.73721C11.6413 2.66704 11.824 2.63196 12 2.63196C12.176 2.63196 12.3587 2.66704 12.548 2.73721L18.484 4.94671C18.7835 5.06671 19.0278 5.26004 19.2168 5.52671C19.4056 5.79354 19.5 6.09362 19.5 6.42696V11.0125C19.5 13.2643 18.8732 15.3461 17.6195 17.258C16.3658 19.1696 14.6667 20.5073 12.522 21.271C12.4415 21.3043 12.3578 21.3293 12.2708 21.346C12.1839 21.3626 12.0937 21.371 12 21.371ZM12 20.1537C13.8213 19.5654 15.3173 18.4197 16.4878 16.7167C17.6583 15.0137 18.2435 13.1133 18.2435 11.0155V6.41721C18.2435 6.35321 18.2259 6.29554 18.1908 6.24421C18.1554 6.19287 18.1058 6.15437 18.0418 6.12871L12.1058 3.90246C12.0738 3.88962 12.0385 3.88321 12 3.88321C11.9615 3.88321 11.9262 3.88962 11.8942 3.90246L5.95825 6.12871C5.89425 6.15437 5.84458 6.19287 5.80925 6.24421C5.77408 6.29554 5.7565 6.35321 5.7565 6.41721V11.0155C5.7565 13.1133 6.34175 15.0137 7.51225 16.7167C8.68275 18.4197 10.1787 19.5654 12 20.1537Z" fill="currentColor"/>
    </g>
  </g>
</svg>