<svg width="24" height="24" viewBox="0 0 24 24" fill="none" xmlns="http://www.w3.org/2000/svg">
<mask id="mask0_4770_494" style="mask-type:alpha" maskUnits="userSpaceOnUse" x="0" y="0" width="24" height="24">
<rect width="24" height="24" fill="#D9D9D9"/>
</mask>
<g mask="url(#mask0_4770_494)">
<path d="M11.9971 20.8333C11.7601 20.8333 11.5625 20.7535 11.4042 20.5938C11.2458 20.434 11.1667 20.2361 11.1667 20V13.025H10.8333C9.76666 13.025 8.75555 12.8208 7.8 12.4125C6.84445 12.0042 5.99723 11.425 5.25832 10.675C4.51944 9.925 3.95833 9.05833 3.575 8.075C3.19167 7.09167 3 6.06667 3 5V3.83333C3 3.59723 3.07986 3.39931 3.23957 3.23958C3.39931 3.07986 3.59722 3 3.83332 3H4.96668C6.00556 3 7.00556 3.20417 7.96668 3.6125C8.92778 4.02083 9.78333 4.6 10.5333 5.35C11.0722 5.9 11.5181 6.51111 11.8708 7.18333C12.2236 7.85556 12.4806 8.56945 12.6417 9.325C12.7544 9.1539 12.8784 8.9889 13.0137 8.83C13.149 8.67112 13.2917 8.51112 13.4417 8.35C14.1917 7.6 15.0472 7.02083 16.0083 6.6125C16.9694 6.20417 17.9778 6 19.0333 6H20.1667C20.4028 6 20.6007 6.07986 20.7604 6.23958C20.9201 6.39931 21 6.59723 21 6.83333V8C21 9.06667 20.7987 10.0917 20.3962 11.075C19.9937 12.0583 19.4227 12.925 18.6833 13.675C17.9333 14.425 17.0816 15 16.1281 15.4C15.1747 15.8 14.1764 16 13.1333 16H12.8333V20C12.8333 20.2361 12.7532 20.434 12.5929 20.5938C12.4326 20.7535 12.234 20.8333 11.9971 20.8333ZM11.1834 11.3334C11.1834 10.3889 11.0209 9.50418 10.6959 8.67918C10.3708 7.85416 9.91944 7.14443 9.34168 6.55C8.76389 5.95555 8.07083 5.49305 7.2625 5.1625C6.45417 4.83193 5.58888 4.66665 4.66665 4.66665C4.66665 5.63333 4.81943 6.53056 5.125 7.35833C5.43055 8.18611 5.87222 8.9 6.45 9.5C7.10555 10.1889 7.82499 10.6667 8.60833 10.9334C9.39166 11.2 10.25 11.3334 11.1834 11.3334ZM12.8333 14.3334C13.7667 14.3334 14.6375 14.175 15.4458 13.8584C16.2542 13.5417 16.9472 13.0861 17.525 12.4917C18.1028 11.8972 18.5486 11.1861 18.8625 10.3583C19.1764 9.53056 19.3334 8.63333 19.3334 7.66665C18.4 7.66665 17.5278 7.83193 16.7167 8.1625C15.9056 8.49305 15.2111 8.95277 14.6333 9.54165C13.9667 10.2306 13.5 10.9681 13.2333 11.7542C12.9667 12.5403 12.8333 13.4 12.8333 14.3334Z" fill="#242734"/>
</g>
</svg>
