<svg xmlns="http://www.w3.org/2000/svg" width="24" height="24" viewBox="0 0 48 48" fill="none">
<mask id="mask0_5560_5803" style="mask-type:alpha" maskUnits="userSpaceOnUse" x="0" y="0" width="48" height="48">
<rect width="48" height="48" fill="#D9D9D9"/>
</mask>
<g mask="url(#mask0_5560_5803)">
<path d="M17.8333 33.0007L23.9998 28.3007L30.1663 33.0007L27.7333 25.2007L33.4333 21.4007H26.5333L23.9998 13.5672L21.4663 21.4007H14.5663L20.2663 25.2007L17.8333 33.0007ZM23.9998 32.6007L15.7663 38.8842C15.4443 39.1395 15.111 39.2534 14.7663 39.2257C14.422 39.198 14.1053 39.0897 13.8163 38.9007C13.5277 38.7117 13.3138 38.4562 13.1748 38.1342C13.0358 37.8118 13.0275 37.4507 13.1498 37.0507L16.2998 26.8007L8.21633 21.0172C7.883 20.7952 7.672 20.5064 7.58333 20.1507C7.49433 19.795 7.50533 19.4672 7.61633 19.1672C7.72767 18.8672 7.91667 18.5979 8.18333 18.3592C8.45 18.1202 8.78333 18.0007 9.18333 18.0007H19.1998L22.3998 7.33419C22.5222 6.93419 22.736 6.63135 23.0413 6.42569C23.347 6.22002 23.6665 6.11719 23.9998 6.11719C24.3332 6.11719 24.6527 6.22002 24.9583 6.42569C25.2637 6.63135 25.4775 6.93419 25.5998 7.33419L28.7998 18.0007H38.8163C39.2163 18.0007 39.5497 18.1202 39.8163 18.3592C40.083 18.5979 40.272 18.8672 40.3833 19.1672C40.4943 19.4672 40.5053 19.795 40.4163 20.1507C40.3277 20.5064 40.1167 20.7952 39.7833 21.0172L31.6998 26.8007L34.8498 37.0507C34.9722 37.4507 34.9638 37.8118 34.8248 38.1342C34.6858 38.4562 34.472 38.7117 34.1833 38.9007C33.8943 39.0897 33.5777 39.198 33.2333 39.2257C32.8887 39.2534 32.5553 39.1395 32.2333 38.8842L23.9998 32.6007Z" fill="#EFB738"/>
</g>
</svg>