<svg width="40" height="40" viewBox="0 0 40 40" fill="none" xmlns="http://www.w3.org/2000/svg">
<g id="Rating">
<mask id="mask0_5886_168" style="mask-type:alpha" maskUnits="userSpaceOnUse" x="0" y="0" width="40" height="40">
<rect id="Bounding box" width="40" height="40" fill="#D9D9D9"/>
</mask>
<g mask="url(#mask0_5886_168)">
<path id="star_rate" d="M20 27.1671L13.1388 32.4032C12.8703 32.6162 12.5925 32.7111 12.3055 32.6879C12.0185 32.6648 11.7546 32.5745 11.5138 32.4171C11.2731 32.2597 11.0949 32.0468 10.9791 31.7782C10.8634 31.5097 10.8564 31.2088 10.9583 30.8755L13.5833 22.3338L6.84718 17.5143C6.5694 17.3291 6.39347 17.0884 6.31939 16.7921C6.24533 16.4958 6.25459 16.2227 6.34718 15.9727C6.43976 15.7227 6.59716 15.4981 6.81939 15.2991C7.04161 15.1 7.31939 15.0004 7.65272 15.0004H16L18.6666 6.11153C18.7685 5.7782 18.9467 5.52588 19.2013 5.35457C19.456 5.1833 19.7222 5.09766 20 5.09766C20.2777 5.09766 20.544 5.1833 20.7986 5.35457C21.0532 5.52588 21.2314 5.7782 21.3333 6.11153L24 15.0004H32.3472C32.6806 15.0004 32.9583 15.1 33.1806 15.2991C33.4028 15.4981 33.5602 15.7227 33.6528 15.9727C33.7453 16.2227 33.7546 16.4958 33.6806 16.7921C33.6065 17.0884 33.4305 17.3291 33.1528 17.5143L26.4166 22.3338L29.0416 30.8755C29.1435 31.2088 29.1366 31.5097 29.0208 31.7782C28.9051 32.0468 28.7268 32.2597 28.4861 32.4171C28.2453 32.5745 27.9815 32.6648 27.6944 32.6879C27.4074 32.7111 27.1296 32.6162 26.8611 32.4032L20 27.1671Z" fill="#242734"/>
</g>
</g>
</svg>
