<svg width="25" height="24" viewBox="0 0 25 24" fill="none" xmlns="http://www.w3.org/2000/svg">
<g id="remove">
<rect x="0.5" width="24" height="24" rx="6" fill="#242734"/>
<mask id="mask0_4794_4456" style="mask-type:alpha" maskUnits="userSpaceOnUse" x="0" y="0" width="25" height="24">
<rect id="Bounding box" x="0.5" width="24" height="24" fill="#D9D9D9"/>
</mask>
<g mask="url(#mask0_4794_4456)">
<path id="remove_2" d="M6.33332 12.8332C6.09722 12.8332 5.89931 12.753 5.73957 12.5927C5.57986 12.4324 5.5 12.2338 5.5 11.9969C5.5 11.76 5.57986 11.5623 5.73957 11.404C5.89931 11.2457 6.09722 11.1665 6.33332 11.1665H18.6667C18.9028 11.1665 19.1007 11.2466 19.2604 11.4069C19.4201 11.5672 19.5 11.7658 19.5 12.0028C19.5 12.2397 19.4201 12.4373 19.2604 12.5957C19.1007 12.754 18.9028 12.8332 18.6667 12.8332H6.33332Z" fill="white"/>
</g>
</g>
</svg>
