<svg width="20" height="20" viewBox="0 0 20 20" fill="none" xmlns="http://www.w3.org/2000/svg">
<g id="repeat">
<mask id="mask0_4970_9172" style="mask-type:alpha" maskUnits="userSpaceOnUse" x="0" y="0" width="20" height="20">
<rect id="Bounding box" width="20" height="20" fill="#D9D9D9"/>
</mask>
<g mask="url(#mask0_4970_9172)">
<path id="repeat_2" d="M5.18048 15.6954L6.31938 16.8343C6.45827 16.9732 6.52424 17.1352 6.51729 17.3204C6.51035 17.5056 6.44322 17.6682 6.31592 17.8082C6.17703 17.9482 6.0121 18.0211 5.82113 18.0269C5.63015 18.0328 5.46522 17.9662 5.32633 17.8273L2.98604 15.487C2.91197 15.413 2.85989 15.336 2.82979 15.256C2.79971 15.1761 2.78467 15.0904 2.78467 14.9991C2.78467 14.9077 2.79971 14.8227 2.82979 14.744C2.85989 14.6653 2.91197 14.5889 2.98604 14.5148L5.32633 12.1745C5.46583 12.0357 5.63149 11.9697 5.82331 11.9766C6.01513 11.9836 6.18049 12.0565 6.31938 12.1954C6.4467 12.3343 6.51324 12.4963 6.51902 12.6815C6.52481 12.8667 6.45827 13.0287 6.31938 13.1676L5.18048 14.3065H14.4444V11.6676C14.4444 11.4708 14.5112 11.3059 14.6448 11.1728C14.7783 11.0397 14.9438 10.9732 15.1413 10.9732C15.3387 10.9732 15.5034 11.0397 15.6354 11.1728C15.7673 11.3059 15.8333 11.4708 15.8333 11.6676V14.3065C15.8333 14.6884 15.6973 15.0154 15.4253 15.2874C15.1533 15.5594 14.8263 15.6954 14.4444 15.6954H5.18048ZM14.8194 5.69538H5.55548V8.33428C5.55548 8.53104 5.4887 8.69597 5.35513 8.82907C5.22156 8.96216 5.05605 9.02871 4.85861 9.02871C4.66116 9.02871 4.49647 8.96216 4.36452 8.82907C4.23258 8.69597 4.16661 8.53104 4.16661 8.33428V5.69538C4.16661 5.31344 4.3026 4.98647 4.57458 4.71448C4.84657 4.4425 5.17354 4.3065 5.55548 4.3065H14.8194L13.6805 3.16761C13.5416 3.02872 13.4756 2.86668 13.4826 2.68148C13.4895 2.4963 13.5567 2.33371 13.684 2.19371C13.8228 2.05371 13.9878 1.9808 14.1788 1.97496C14.3697 1.96913 14.5347 2.03566 14.6735 2.17455L17.0138 4.51484C17.0879 4.58891 17.14 4.66591 17.1701 4.74586C17.2002 4.82579 17.2152 4.91143 17.2152 5.0028C17.2152 5.09416 17.2002 5.17918 17.1701 5.25788C17.14 5.33659 17.0879 5.41298 17.0138 5.48705L14.6735 7.82734C14.534 7.96623 14.3684 8.0322 14.1766 8.02525C13.9847 8.01831 13.8194 7.94539 13.6805 7.8065C13.5532 7.66762 13.4866 7.50558 13.4808 7.3204C13.4751 7.13521 13.5416 6.97316 13.6805 6.83428L14.8194 5.69538Z" fill="white"/>
</g>
</g>
</svg>
