<svg xmlns="http://www.w3.org/2000/svg" width="24" height="24" viewBox="0 0 24 24" fill="none">
<mask id="mask0_4771_34" style="mask-type:alpha" maskUnits="userSpaceOnUse" x="0" y="0" width="24" height="24">
<rect width="24" height="24" fill="#D9D9D9"/>
</mask>
<g mask="url(#mask0_4771_34)">
<path d="M14.675 11.9667L6.97504 4.26665C6.76949 4.0611 6.6681 3.80971 6.67086 3.5125C6.67365 3.21526 6.77781 2.95832 6.98336 2.74167C7.20003 2.52501 7.45697 2.41667 7.75419 2.41667C8.05142 2.41667 8.30837 2.52501 8.52504 2.74167L16.5667 10.7917C16.7334 10.9583 16.8556 11.1444 16.9334 11.35C17.0111 11.5555 17.05 11.7611 17.05 11.9667C17.05 12.1722 17.0111 12.3778 16.9334 12.5833C16.8556 12.7889 16.7334 12.975 16.5667 13.1416L8.50004 21.2083C8.28337 21.425 8.03059 21.5292 7.74169 21.5208C7.4528 21.5125 7.20003 21.4 6.98336 21.1833C6.77781 20.9667 6.67226 20.7125 6.66671 20.4208C6.66115 20.1292 6.7667 19.875 6.98336 19.6583L14.675 11.9667Z" fill="currentColor"/>
</g>
</svg>
