<svg width="318" height="319" viewBox="0 0 318 319" fill="none" xmlns="http://www.w3.org/2000/svg">
<path d="M88.068 47.9365L94.7571 43.1786C94.7571 43.1786 90.7581 37.5649 96.5176 33.3144C97.613 32.4753 98.9424 31.998 100.321 31.9487C101.7 31.8993 103.06 32.2804 104.213 33.039C105.19 33.6635 106.006 34.5103 106.593 35.5102C107.18 36.5102 107.523 37.6349 107.592 38.7924C107.79 41.4638 106.513 44.9312 101.442 47.3478L112.194 62.422L118.803 57.7163L112.539 48.901C112.539 48.901 120.102 39.906 112.833 29.6887C105.875 19.9166 95.4935 23.884 91.7434 26.5585C88.8322 28.5843 79.5629 36.2061 88.068 47.9365Z" fill="#EBEBEB"/>
<path d="M263.847 124.611L268.7 128.3C268.7 128.3 271.795 124.223 276.082 127.366C276.919 127.957 277.552 128.794 277.892 129.761C278.232 130.727 278.263 131.776 277.98 132.761C277.753 133.592 277.333 134.357 276.754 134.995C276.175 135.632 275.454 136.124 274.649 136.429C272.798 137.16 270.058 137.022 267.223 133.961L258.915 144.919L263.713 148.563L268.577 142.172C268.577 142.172 276.626 145.544 282.262 138.13C287.65 131.036 282.541 124.554 279.815 122.487C277.735 120.872 270.282 115.986 263.847 124.611Z" fill="#EBEBEB"/>
<path d="M121.081 60.7272L114.377 65.5L118.836 71.7641L125.541 66.9914L121.081 60.7272Z" fill="#EBEBEB"/>
<path d="M262.082 150.844L257.216 147.147L253.761 151.694L258.628 155.391L262.082 150.844Z" fill="#EBEBEB"/>
<path d="M78.3535 222.681L81.9405 221.733C81.834 221.325 81.8097 220.9 81.869 220.483C81.9284 220.065 82.0702 219.663 82.2862 219.301C82.5023 218.939 82.7882 218.623 83.1274 218.373C83.4666 218.122 83.8523 217.941 84.2619 217.841C84.8595 217.659 85.4989 217.669 86.0908 217.868C86.6826 218.068 87.1973 218.448 87.5628 218.954C87.8769 219.373 88.0874 219.861 88.1769 220.377C88.2664 220.894 88.2325 221.424 88.0779 221.924C87.7345 223.088 86.6406 224.354 84.1093 224.564L86.2399 232.66L89.7888 231.725L88.5168 226.98C89.8586 226.167 90.8964 224.935 91.4708 223.475C92.0453 222.015 92.1247 220.407 91.6968 218.897C90.3103 213.65 85.2796 213.669 83.2698 214.203C81.7625 214.61 76.6172 216.366 78.3535 222.681Z" fill="#EBEBEB"/>
<path d="M90.2892 233.368L86.6855 234.319L87.573 237.683L91.1767 236.732L90.2892 233.368Z" fill="#EBEBEB"/>
<path d="M229.011 48.8449C230.825 47.7393 232.78 46.8836 234.824 46.3009L236.019 40.5769L245.744 40.4052L247.143 46.1292C249.206 46.6344 251.191 47.4152 253.045 48.4506L257.961 45.226L264.957 51.9804L261.911 57.0048C263.013 58.8235 263.868 60.7804 264.455 62.8242L270.211 64.0198L270.376 73.7443L264.652 75.1435C264.144 77.2052 263.363 79.1901 262.331 81.0455L265.549 85.9618L258.795 92.9578L253.77 89.9114C251.954 91.017 249.996 91.8727 247.951 92.4554L246.755 98.2175L237.031 98.3829L235.631 92.6589C233.568 92.1565 231.582 91.3755 229.729 90.3375L224.813 93.562L217.817 86.8077L220.864 81.7833C219.758 79.9666 218.902 78.0092 218.32 75.9639L212.596 74.7682L212.424 65.0438L218.148 63.6446C218.644 61.5697 219.418 59.5715 220.45 57.7044L217.226 52.7881L223.98 45.7921L229.011 48.8449ZM234.194 61.8002C232.763 63.2864 231.806 65.1634 231.442 67.1939C231.078 69.2245 231.324 71.3173 232.15 73.2079C232.975 75.0984 234.343 76.7017 236.079 77.815C237.816 78.9283 239.844 79.5017 241.906 79.4625C243.969 79.4234 245.973 78.7735 247.667 77.5951C249.36 76.4168 250.666 74.7627 251.419 72.8423C252.172 70.9218 252.339 68.8211 251.898 66.8058C251.457 64.7905 250.429 62.9512 248.943 61.5204C246.949 59.6031 244.276 58.5556 241.511 58.6081C238.745 58.6606 236.114 59.8087 234.194 61.8002Z" fill="#F5F5F5"/>
<path d="M294.964 296.91C294.964 297.006 234.652 297.076 160.279 297.076C85.9047 297.076 25.5801 297.006 25.5801 296.91C25.5801 296.815 85.8729 296.745 160.279 296.745C234.684 296.745 294.964 296.821 294.964 296.91Z" fill="#242734"/>
<path d="M74.4535 89.9774L74.3931 90.0753L74.4282 90.1848L76.6696 97.1815L68.5639 96.6642L68.4697 96.6582L68.395 96.716C63.3984 100.582 57.1366 102.439 50.8403 101.922C44.5441 101.405 38.669 98.5513 34.3698 93.9225C30.0706 89.2936 27.6584 83.224 27.6073 76.9068C27.5561 70.5896 29.8698 64.4818 34.0935 59.7839C38.3172 55.086 44.1454 52.138 50.4324 51.5192C56.7194 50.9004 63.0105 52.6557 68.069 56.44C73.1275 60.2243 76.5876 65.7639 77.769 71.9698C78.9504 78.1758 77.7677 84.5992 74.4535 89.9774Z" fill="#FAFAFA" stroke="#242734" stroke-width="0.5"/>
<path d="M45.7542 76.7462C45.7542 77.2581 45.6024 77.7586 45.3179 78.1843C45.0335 78.61 44.6292 78.9417 44.1563 79.1377C43.6833 79.3336 43.1628 79.3848 42.6607 79.285C42.1585 79.1851 41.6973 78.9385 41.3353 78.5765C40.9733 78.2145 40.7268 77.7533 40.6269 77.2512C40.527 76.749 40.5783 76.2286 40.7742 75.7556C40.9701 75.2826 41.3019 74.8783 41.7276 74.5939C42.1532 74.3095 42.6537 74.1577 43.1657 74.1577C43.8517 74.1593 44.5091 74.4326 44.9942 74.9177C45.4793 75.4027 45.7525 76.0602 45.7542 76.7462Z" fill="#242734"/>
<path d="M56.1204 76.7462C56.1204 77.2581 55.9686 77.7586 55.6842 78.1843C55.3997 78.61 54.9955 78.9417 54.5225 79.1377C54.0495 79.3336 53.529 79.3848 53.0269 79.285C52.5248 79.1851 52.0635 78.9385 51.7015 78.5765C51.3395 78.2145 51.093 77.7533 50.9931 77.2512C50.8932 76.749 50.9445 76.2286 51.1404 75.7556C51.3363 75.2826 51.6681 74.8783 52.0938 74.5939C52.5195 74.3095 53.0199 74.1577 53.5319 74.1577C54.2179 74.1593 54.8753 74.4326 55.3604 74.9177C55.8455 75.4027 56.1187 76.0602 56.1204 76.7462Z" fill="#242734"/>
<path d="M66.4618 75.4551C66.717 75.8984 66.8351 76.4075 66.8012 76.918C66.7673 77.4284 66.5829 77.9174 66.2713 78.3231C65.9597 78.7288 65.5348 79.0331 65.0504 79.1975C64.566 79.362 64.0437 79.3792 63.5495 79.247C63.0553 79.1148 62.6113 78.8391 62.2737 78.4547C61.9361 78.0704 61.7199 77.5946 61.6525 77.0875C61.585 76.5804 61.6694 76.0647 61.8949 75.6055C62.1203 75.1463 62.4768 74.7642 62.9193 74.5074C63.214 74.3364 63.5395 74.2253 63.8772 74.1804C64.215 74.1355 64.5582 74.1577 64.8873 74.2458C65.2164 74.3338 65.5249 74.4859 65.7951 74.6935C66.0653 74.901 66.2919 75.1598 66.4618 75.4551Z" fill="#242734"/>
<path d="M117.937 182.975L91.1485 180.202L79.8023 154.45L70.9873 156.746C70.9873 156.746 77.4999 183.96 84.7885 188.177C92.0771 192.394 116.976 193.151 116.976 193.151L117.937 182.975Z" fill="#73BE44"/>
<path d="M132.178 196.072C136.537 191.168 136.095 183.659 131.19 179.3C126.286 174.941 118.777 175.383 114.418 180.288C110.059 185.192 110.501 192.701 115.405 197.06C120.31 201.419 127.819 200.977 132.178 196.072Z" fill="#242734"/>
<path d="M123.298 200.07C120.545 200.07 117.877 199.116 115.749 197.369C113.621 195.623 112.164 193.192 111.627 190.492C111.09 187.792 111.506 184.989 112.804 182.561C114.101 180.133 116.201 178.23 118.744 177.177C121.288 176.123 124.118 175.984 126.752 176.784C129.387 177.583 131.663 179.271 133.192 181.56C134.722 183.849 135.41 186.597 135.14 189.337C134.87 192.077 133.659 194.638 131.712 196.585C130.61 197.693 129.298 198.572 127.854 199.17C126.41 199.769 124.861 200.074 123.298 200.07ZM123.298 176.309C120.552 176.307 117.891 177.256 115.766 178.995C113.642 180.735 112.187 183.157 111.648 185.85C111.11 188.542 111.522 191.338 112.813 193.76C114.105 196.183 116.197 198.083 118.732 199.137C121.268 200.19 124.09 200.332 126.719 199.538C129.347 198.743 131.618 197.062 133.146 194.781C134.674 192.5 135.364 189.76 135.098 187.027C134.832 184.294 133.626 181.738 131.687 179.795C130.588 178.688 129.281 177.81 127.841 177.212C126.402 176.613 124.857 176.307 123.298 176.309Z" fill="#242734"/>
<path d="M88.7472 190.211C93.5323 189.063 96.4801 184.252 95.3313 179.467C94.1825 174.682 89.3721 171.734 84.587 172.883C79.8019 174.032 76.8541 178.842 78.0029 183.627C79.1517 188.412 83.9621 191.36 88.7472 190.211Z" fill="#242734"/>
<path d="M79.901 156.532C82.7449 153.688 82.7449 149.077 79.901 146.234C77.0571 143.39 72.4463 143.39 69.6024 146.234C66.7585 149.077 66.7585 153.688 69.6024 156.532C72.4463 159.376 77.0571 159.376 79.901 156.532Z" fill="#242734"/>
<path d="M86.1015 147.442L80.1053 152.505L77.9428 149.945L83.939 144.881C84.2547 144.614 84.6634 144.484 85.0752 144.519C85.487 144.554 85.8682 144.75 86.1348 145.066L86.2825 145.241C86.4155 145.397 86.5164 145.578 86.5793 145.774C86.6422 145.969 86.6659 146.175 86.6491 146.379C86.6323 146.584 86.5752 146.783 86.4813 146.965C86.3873 147.147 86.2582 147.309 86.1015 147.442Z" fill="#242734"/>
<path d="M78.4854 138.168V145.8C78.4854 145.859 78.4619 145.916 78.4202 145.958C78.3784 146 78.3218 146.023 78.2628 146.023H75.3626C75.3036 146.023 75.2469 146 75.2052 145.958C75.1634 145.916 75.14 145.859 75.14 145.8V138.168C75.14 137.755 75.3042 137.359 75.5964 137.067C75.8886 136.774 76.2849 136.61 76.6982 136.61H76.9272C77.3404 136.61 77.7368 136.774 78.029 137.067C78.3212 137.359 78.4854 137.755 78.4854 138.168Z" fill="#242734"/>
<path d="M73.0853 138.197L74.7515 145.645C74.7644 145.703 74.7538 145.763 74.7222 145.813C74.6906 145.863 74.6404 145.898 74.5828 145.911L71.7526 146.544C71.695 146.557 71.6346 146.547 71.5848 146.515C71.5349 146.483 71.4997 146.433 71.4868 146.376L69.8206 138.928C69.7304 138.524 69.8041 138.102 70.0255 137.753C70.2468 137.404 70.5978 137.157 71.0011 137.067L71.2245 137.017C71.6278 136.927 72.0504 137 72.3994 137.222C72.7483 137.443 72.9951 137.794 73.0853 138.197Z" fill="#242734"/>
<path d="M67.2762 140.064L71.0922 146.673C71.1217 146.724 71.1297 146.785 71.1144 146.842C71.0991 146.899 71.0618 146.948 71.0107 146.977L68.4991 148.427C68.448 148.457 68.3872 148.465 68.3302 148.45C68.2731 148.434 68.2245 148.397 68.195 148.346L64.379 141.736C64.1724 141.379 64.1164 140.953 64.2233 140.554C64.3303 140.155 64.5915 139.815 64.9493 139.608L65.1476 139.493C65.5055 139.287 65.9308 139.231 66.33 139.338C66.7292 139.445 67.0695 139.706 67.2762 140.064Z" fill="#242734"/>
<path d="M234.362 249.685L242.38 246.275L219.243 191.874L211.225 195.284L234.362 249.685Z" fill="#73BE44"/>
<path d="M220.393 197.073C224.634 192.066 224.014 184.569 219.008 180.328C214.001 176.087 206.505 176.707 202.263 181.714C198.022 186.72 198.642 194.217 203.649 198.458C208.655 202.699 216.152 202.079 220.393 197.073Z" fill="#242734"/>
<path d="M211.352 201.317C209.488 201.318 207.65 200.881 205.986 200.042C204.322 199.203 202.878 197.985 201.77 196.485C200.663 194.986 199.923 193.248 199.61 191.411C199.297 189.573 199.419 187.688 199.968 185.907C200.618 183.806 201.839 181.926 203.493 180.477C205.148 179.028 207.172 178.066 209.34 177.698C211.509 177.33 213.737 177.571 215.776 178.393C217.816 179.216 219.588 180.588 220.895 182.357C222.202 184.126 222.993 186.223 223.179 188.414C223.366 190.606 222.941 192.806 221.953 194.771C220.964 196.735 219.45 198.387 217.578 199.543C215.707 200.699 213.552 201.313 211.352 201.317ZM211.352 177.543C209.157 177.545 207.004 178.157 205.136 179.309C203.267 180.462 201.754 182.11 200.766 184.071C199.778 186.032 199.353 188.228 199.539 190.416C199.725 192.604 200.514 194.697 201.819 196.463C203.124 198.229 204.893 199.599 206.93 200.419C208.966 201.24 211.191 201.479 213.355 201.111C215.52 200.742 217.54 199.781 219.19 198.333C220.841 196.885 222.058 195.007 222.705 192.909C223.629 189.902 223.322 186.652 221.852 183.871C220.381 181.091 217.868 179.007 214.863 178.077C213.714 177.722 212.517 177.541 211.314 177.543H211.352Z" fill="#242734"/>
<path d="M235.383 224.915C236.7 220.173 233.925 215.262 229.184 213.944C224.442 212.626 219.53 215.402 218.213 220.143C216.895 224.885 219.671 229.797 224.412 231.114C229.154 232.432 234.065 229.656 235.383 224.915Z" fill="#242734"/>
<path d="M240.233 257.546C244.255 257.546 247.516 254.285 247.516 250.263C247.516 246.242 244.255 242.981 240.233 242.981C236.212 242.981 232.951 246.242 232.951 250.263C232.951 254.285 236.212 257.546 240.233 257.546Z" fill="#242734"/>
<path d="M230.708 257.597L234.786 250.906L237.648 252.65L233.57 259.341C233.355 259.694 233.009 259.947 232.607 260.045C232.206 260.142 231.782 260.076 231.429 259.861L231.233 259.742C231.058 259.636 230.905 259.496 230.783 259.331C230.662 259.166 230.574 258.978 230.525 258.779C230.477 258.579 230.468 258.372 230.499 258.17C230.53 257.967 230.602 257.772 230.708 257.597Z" fill="#242734"/>
<path d="M240.861 263.978L238.445 256.739C238.426 256.683 238.43 256.622 238.457 256.569C238.483 256.516 238.529 256.476 238.585 256.458L241.336 255.539C241.392 255.521 241.453 255.525 241.506 255.551C241.559 255.578 241.599 255.624 241.618 255.68L244.034 262.919C244.097 263.114 244.12 263.319 244.103 263.523C244.087 263.727 244.03 263.926 243.936 264.108C243.842 264.29 243.714 264.452 243.557 264.584C243.401 264.716 243.221 264.816 243.026 264.879L242.809 264.951C242.421 265.075 242.001 265.043 241.637 264.861C241.273 264.679 240.995 264.363 240.861 263.978Z" fill="#242734"/>
<path d="M245.98 262.244L242.041 255.706C242.026 255.681 242.016 255.654 242.012 255.625C242.007 255.596 242.009 255.566 242.016 255.538C242.023 255.51 242.035 255.483 242.053 255.459C242.07 255.436 242.092 255.416 242.117 255.401L244.601 253.904C244.626 253.889 244.654 253.879 244.683 253.875C244.712 253.87 244.741 253.872 244.77 253.879C244.798 253.886 244.825 253.898 244.848 253.916C244.872 253.933 244.892 253.955 244.907 253.98L248.845 260.517C249.059 260.871 249.123 261.295 249.023 261.696C248.924 262.097 248.669 262.443 248.315 262.656L248.119 262.774C247.765 262.987 247.341 263.051 246.94 262.952C246.538 262.852 246.193 262.597 245.98 262.244Z" fill="#242734"/>
<path d="M250.897 258.639L245.185 253.578C245.14 253.539 245.114 253.484 245.11 253.425C245.107 253.366 245.127 253.308 245.166 253.264L247.085 251.098C247.124 251.054 247.179 251.027 247.238 251.023C247.297 251.02 247.355 251.04 247.399 251.079L253.111 256.14C253.421 256.414 253.609 256.8 253.633 257.212C253.658 257.625 253.518 258.03 253.244 258.34L253.093 258.511C252.818 258.818 252.433 259.004 252.021 259.028C251.61 259.053 251.206 258.913 250.897 258.639Z" fill="#242734"/>
<path d="M119.769 175.813C119.769 175.813 120.627 259.218 167.43 260.846C214.234 262.475 216.199 176.411 216.199 175.813C216.199 175.813 210.672 163.379 167.984 163.863C125.295 164.346 119.769 175.813 119.769 175.813Z" fill="#73BE44"/>
<path d="M146.048 161.134H185.608C188.189 161.134 190.282 159.042 190.282 156.46V155.779C190.282 153.198 188.189 151.105 185.608 151.105H146.048C143.467 151.105 141.374 153.198 141.374 155.779V156.46C141.374 159.042 143.467 161.134 146.048 161.134Z" fill="#242734"/>
<path d="M164.123 86.9704H167.538V69.703H164.123V86.9704Z" fill="#242734"/>
<path d="M218.052 138.376C223.445 137.095 226.777 131.684 225.495 126.292C224.214 120.899 218.803 117.567 213.411 118.848C208.018 120.13 204.686 125.54 205.967 130.933C207.249 136.326 212.659 139.658 218.052 138.376Z" fill="#73BE44"/>
<path d="M116.644 137.725C122.049 136.498 125.437 131.123 124.211 125.717C122.985 120.312 117.609 116.924 112.203 118.15C106.798 119.376 103.41 124.752 104.636 130.157C105.862 135.563 111.238 138.951 116.644 137.725Z" fill="#73BE44"/>
<path d="M163.843 83.2244C163.843 83.2244 123.037 82.7347 116.588 118.103C110.139 153.471 144.636 154.107 154.564 154.774C159.06 155.08 168.689 155.111 177.186 154.959C195.999 154.634 209.292 150.997 213.814 133.545C214.352 131.498 214.691 129.405 214.825 127.293C216.014 108.137 203.084 82.2831 163.843 83.2244Z" fill="#73BE44"/>
<path d="M193.443 137.055L134.162 137.978C132.682 138.004 131.213 137.738 129.836 137.195C128.46 136.653 127.204 135.844 126.141 134.815C125.078 133.787 124.228 132.559 123.64 131.201C123.051 129.844 122.737 128.384 122.714 126.905C122.688 125.425 122.955 123.956 123.498 122.579C124.042 121.203 124.851 119.947 125.88 118.884C126.909 117.821 128.137 116.971 129.495 116.383C130.853 115.795 132.313 115.48 133.793 115.457L193.074 114.535C194.554 114.508 196.024 114.773 197.4 115.315C198.777 115.858 200.033 116.666 201.097 117.695C202.16 118.724 203.01 119.952 203.598 121.31C204.186 122.668 204.5 124.128 204.522 125.607C204.548 127.087 204.282 128.557 203.739 129.934C203.196 131.311 202.387 132.567 201.358 133.63C200.329 134.693 199.1 135.543 197.742 136.131C196.384 136.719 194.923 137.033 193.443 137.055Z" fill="#242734"/>
<path d="M146.48 125.677C146.342 126.378 146 127.023 145.496 127.529C144.992 128.035 144.349 128.381 143.649 128.522C142.948 128.663 142.222 128.593 141.561 128.321C140.9 128.049 140.335 127.587 139.937 126.994C139.539 126.401 139.325 125.704 139.323 124.989C139.321 124.275 139.532 123.576 139.927 122.981C140.322 122.386 140.885 121.921 141.545 121.646C142.204 121.371 142.93 121.298 143.631 121.435C144.097 121.527 144.54 121.709 144.935 121.971C145.33 122.234 145.67 122.572 145.935 122.966C146.199 123.36 146.384 123.802 146.477 124.267C146.571 124.733 146.572 125.212 146.48 125.677Z" fill="white"/>
<path d="M187.878 125.016C187.741 125.717 187.4 126.363 186.896 126.87C186.392 127.377 185.75 127.724 185.049 127.865C184.349 128.007 183.622 127.938 182.961 127.667C182.3 127.396 181.734 126.934 181.335 126.341C180.936 125.748 180.722 125.05 180.72 124.335C180.718 123.621 180.928 122.921 181.323 122.326C181.719 121.731 182.282 121.266 182.941 120.991C183.601 120.716 184.327 120.642 185.029 120.78C185.968 120.965 186.795 121.514 187.33 122.309C187.864 123.103 188.061 124.076 187.878 125.016Z" fill="white"/>
<path d="M190.102 216.087C189.763 220.792 188.055 225.289 185.195 229.01C182.334 232.73 178.45 235.508 174.032 236.991C169.614 238.475 164.861 238.597 160.374 237.342C155.888 236.088 151.869 233.514 148.826 229.945C145.783 226.376 143.853 221.972 143.279 217.291C142.705 212.61 143.514 207.862 145.603 203.647C147.692 199.432 150.967 195.939 155.014 193.61C159.062 191.282 163.699 190.222 168.341 190.564C174.566 191.026 180.354 193.974 184.435 198.76C188.515 203.546 190.554 209.779 190.102 216.087Z" fill="#242734"/>
<path d="M183.758 215.628C183.51 219.078 182.263 222.375 180.175 225.104C178.087 227.832 175.252 229.868 172.027 230.955C168.803 232.042 165.335 232.131 162.061 231.21C158.787 230.289 155.855 228.4 153.635 225.782C151.416 223.164 150.008 219.934 149.59 216.501C149.173 213.068 149.764 209.586 151.289 206.496C152.815 203.405 155.206 200.844 158.16 199.138C161.114 197.431 164.499 196.655 167.886 196.908C170.135 197.074 172.33 197.691 174.346 198.722C176.361 199.753 178.157 201.179 179.631 202.917C181.105 204.656 182.228 206.673 182.936 208.854C183.644 211.035 183.923 213.337 183.758 215.628Z" fill="white"/>
<path d="M169.814 73.3332C172.012 71.1351 172.012 67.5712 169.814 65.3731C167.616 63.175 164.052 63.175 161.854 65.3731C159.656 67.5712 159.656 71.1351 161.854 73.3332C164.052 75.5313 167.616 75.5313 169.814 73.3332Z" fill="#73BE44"/>
<path d="M156.841 124.011C157.108 124.043 156.975 125.283 157.763 126.981C158.21 127.956 158.861 128.823 159.671 129.525C160.621 130.361 161.804 130.887 163.061 131.033C164.325 131.114 165.584 130.813 166.674 130.168C167.596 129.631 168.394 128.905 169.014 128.037C170.095 126.53 170.191 125.264 170.458 125.283C170.566 125.283 170.674 125.601 170.674 126.199C170.65 127.051 170.432 127.886 170.038 128.641C169.446 129.783 168.57 130.753 167.494 131.459C166.165 132.395 164.545 132.829 162.925 132.681C161.306 132.533 159.791 131.813 158.654 130.651C157.725 129.763 157.042 128.65 156.669 127.42C156.404 126.599 156.335 125.728 156.466 124.876C156.574 124.285 156.739 123.992 156.841 124.011Z" fill="white"/>
<path d="M211.175 140.49C211.111 140.49 211.843 139.345 212.549 137.342C213.426 134.718 213.982 131.997 214.202 129.239C214.457 126.491 214.521 123.728 214.393 120.971C214.348 119.909 214.298 119.063 214.247 118.427C214.204 118.119 214.193 117.808 214.215 117.498C214.296 117.798 214.35 118.105 214.374 118.414C214.463 119.006 214.552 119.864 214.628 120.958C214.828 123.738 214.796 126.529 214.533 129.303C214.309 132.086 213.717 134.828 212.771 137.456C212.472 138.249 212.11 139.016 211.69 139.752C211.54 140.012 211.367 140.259 211.175 140.49Z" fill="#242734"/>
<path d="M116.665 116.92C116.629 117.229 116.563 117.533 116.468 117.829C116.385 118.115 116.296 118.465 116.214 118.885C116.131 119.305 116.004 119.763 115.928 120.29C115.705 121.516 115.556 122.755 115.482 123.998C115.397 125.52 115.418 127.046 115.546 128.565C115.688 130.081 115.935 131.586 116.284 133.068C116.576 134.28 116.941 135.474 117.378 136.642C117.549 137.144 117.747 137.583 117.906 137.978C118.065 138.372 118.217 138.703 118.344 138.97C118.489 139.244 118.609 139.532 118.701 139.828C118.52 139.576 118.362 139.308 118.23 139.027C118.05 138.709 117.887 138.382 117.74 138.048C117.562 137.666 117.346 137.227 117.161 136.725C116.689 135.56 116.298 134.363 115.991 133.144C115.619 131.648 115.36 130.125 115.215 128.59C115.086 127.056 115.073 125.515 115.177 123.979C115.266 122.724 115.44 121.477 115.699 120.246C115.794 119.718 115.928 119.254 116.036 118.84C116.144 118.427 116.246 118.077 116.341 117.791C116.425 117.492 116.534 117.201 116.665 116.92Z" fill="#242734"/>
<path d="M119.553 175.743L119.794 175.813L120.507 176.055L123.216 177.009L125.175 177.709C125.894 177.95 126.689 178.179 127.535 178.44C129.233 178.942 131.147 179.597 133.322 180.106L136.712 180.978C137.895 181.276 139.142 181.499 140.426 181.779C142.97 182.364 145.762 182.765 148.694 183.235C155.035 184.105 161.425 184.562 167.825 184.603C174.225 184.565 180.616 184.108 186.956 183.235C189.869 182.765 192.642 182.37 195.224 181.779C196.496 181.505 197.768 181.283 198.938 180.984L202.335 180.113C204.503 179.604 206.418 178.949 208.116 178.446C208.962 178.186 209.757 177.957 210.475 177.715L212.434 177.015L215.144 176.061L215.856 175.82C215.936 175.788 216.019 175.765 216.104 175.75L215.869 175.851L215.169 176.125L212.479 177.136L210.475 177.887C209.763 178.135 208.968 178.37 208.122 178.643C206.424 179.165 204.516 179.833 202.341 180.361L198.945 181.251C197.768 181.556 196.515 181.785 195.23 182.071C192.686 182.669 189.888 183.076 186.962 183.56C180.609 184.451 174.203 184.917 167.787 184.953C161.373 184.912 154.97 184.444 148.618 183.553C145.699 183.076 142.894 182.663 140.35 182.065C139.078 181.779 137.806 181.55 136.636 181.245L133.239 180.354C131.064 179.826 129.156 179.159 127.458 178.637C126.612 178.364 125.824 178.128 125.105 177.88L123.152 177.149L120.462 176.138L119.763 175.864C119.689 175.831 119.619 175.79 119.553 175.743Z" fill="#242734"/>
<g opacity="0.3">
<path d="M119.769 175.813C119.769 175.813 125.295 164.365 167.984 163.863C210.672 163.36 216.199 175.813 216.199 175.813C216.199 175.813 173.116 197.049 119.769 175.813Z" fill="black"/>
</g>
<path d="M165.899 208.027V204.84C165.899 204.4 165.412 204.132 165.024 204.352L161.402 206.44C160.703 206.846 160.272 207.581 160.272 208.378V210.487V224.845C161.67 224.845 164.509 224.845 165.899 224.845V211.036C166.775 207.574 172.409 214.162 175.536 203.857C171.908 206.495 167.636 203.115 165.899 208.027Z" fill="#73BE44"/>
<path d="M253.02 228.073C254.735 227.905 256.467 228.03 258.14 228.443C259.833 228.88 261.292 229.955 262.21 231.443L262 231.763C259.851 232.843 257.403 233.172 255.045 232.695C252.688 232.218 250.56 230.964 249 229.133C250.236 228.463 251.614 228.099 253.02 228.073Z" fill="#73BE44"/>
<path d="M261.67 218.033C263.336 219.243 264.73 220.79 265.76 222.573C267.17 224.645 267.735 227.178 267.34 229.653L266.81 229.793C263.451 228.908 260.482 226.931 258.37 224.173C256.29 221.433 255.79 218.773 255.86 215.333C257.95 215.857 259.922 216.773 261.67 218.033Z" fill="#73BE44"/>
<path d="M283.649 213.893C283.637 216.169 283.15 218.417 282.219 220.493C281.271 223.099 279.365 225.245 276.889 226.493L276.419 226.103C275.05 222.524 274.909 218.591 276.019 214.923C277.139 211.293 279.189 209.133 282.319 206.973C283.201 209.173 283.653 211.523 283.649 213.893Z" fill="#73BE44"/>
<path d="M290.889 226.903C289.94 228.293 288.706 229.466 287.269 230.343C285.612 231.543 283.558 232.062 281.529 231.793L281.409 231.363C282.054 228.607 283.598 226.144 285.799 224.363C287.825 222.76 290.37 221.956 292.949 222.103C292.578 223.821 291.879 225.451 290.889 226.903Z" fill="#73BE44"/>
<path d="M288.3 241.123C287.497 243.105 286.288 244.897 284.75 246.383C283.014 248.323 280.603 249.525 278.01 249.743L277.74 249.243C277.79 245.64 279.039 242.157 281.29 239.343C283.53 236.563 286.08 235.393 289.56 234.603C289.565 236.838 289.138 239.052 288.3 241.123Z" fill="#73BE44"/>
<path d="M289.02 255.293C287.546 255.608 286.023 255.608 284.55 255.293C282.734 255.043 281.084 254.105 279.94 252.673L280.13 252.323C282.254 250.936 284.781 250.298 287.31 250.513C289.61 250.741 291.747 251.809 293.31 253.513C292.003 254.369 290.548 254.973 289.02 255.293Z" fill="#73BE44"/>
<path d="M279.97 215.333C279.863 215.588 279.77 215.849 279.69 216.113C279.51 216.683 279.26 217.433 278.96 218.383L277.85 221.973C277.44 223.383 276.85 224.973 276.47 226.763C274.68 233.933 272.47 243.893 270.6 255.013C268.73 266.133 267.6 276.273 266.91 283.633C266.58 287.313 266.38 290.293 266.26 292.353L266.14 294.723C266.118 294.999 266.118 295.277 266.14 295.553C266.204 295.284 266.241 295.009 266.25 294.733C266.31 294.143 266.38 293.353 266.47 292.363C266.65 290.313 266.91 287.363 267.29 283.663C268.03 276.323 269.29 266.203 271.13 255.103C272.97 244.003 275.13 234.033 276.83 226.853C277.21 225.053 277.75 223.463 278.14 222.053C278.53 220.643 278.88 219.443 279.14 218.433C279.4 217.423 279.61 216.713 279.77 216.143C279.859 215.879 279.926 215.608 279.97 215.333Z" fill="#242734"/>
<path d="M283.18 242.173C283.06 242.083 280.03 246.173 276.41 251.283C272.79 256.393 269.94 260.623 270.06 260.703C270.18 260.783 273.21 256.703 276.83 251.583C280.45 246.463 283.3 242.253 283.18 242.173Z" fill="#242734"/>
<path d="M263.59 223.623C263.53 223.623 264.19 224.733 265.19 226.503C266.19 228.273 267.52 230.733 268.8 233.553C270.08 236.373 271.08 238.983 271.8 240.903C272.117 241.953 272.491 242.984 272.92 243.993C272.919 243.698 272.872 243.404 272.78 243.123C272.66 242.563 272.44 241.763 272.15 240.783C270.584 235.697 268.369 230.833 265.56 226.313C265.01 225.453 264.56 224.763 264.21 224.313C263.86 223.863 263.62 223.603 263.59 223.623Z" fill="#242734"/>
<path d="M255.65 230.223C255.65 230.363 258.65 231.013 262.44 231.943C266.23 232.873 269.21 233.713 269.26 233.573C268.659 233.229 268.012 232.97 267.34 232.803C266.14 232.403 264.45 231.903 262.57 231.433C260.69 230.963 258.96 230.633 257.7 230.433C257.029 230.27 256.339 230.199 255.65 230.223Z" fill="#242734"/>
<path d="M287.83 226.593C287.084 226.919 286.379 227.331 285.73 227.823C284.48 228.643 282.79 229.823 280.94 231.193L276.25 234.673C275.571 235.119 274.938 235.632 274.36 236.203C275.108 235.88 275.813 235.467 276.46 234.973C277.71 234.153 279.41 232.973 281.25 231.613L285.94 228.123C286.619 227.677 287.252 227.165 287.83 226.593Z" fill="#242734"/>
<path d="M276.329 251.943C279.357 252.873 282.534 253.213 285.689 252.943C284.148 252.638 282.588 252.44 281.019 252.353C279.467 252.112 277.9 251.975 276.329 251.943Z" fill="#242734"/>
<path d="M261.14 289.393C261.718 289.55 262.331 289.519 262.89 289.303C263.59 288.903 263.65 287.943 263.89 287.163C264.148 286.303 264.705 285.564 265.459 285.077C266.214 284.591 267.117 284.39 268.007 284.511C268.897 284.631 269.714 285.065 270.312 285.735C270.911 286.405 271.25 287.266 271.27 288.163C271.921 288.144 272.569 288.258 273.174 288.498C273.779 288.739 274.329 289.101 274.789 289.562C275.249 290.022 275.61 290.573 275.849 291.178C276.088 291.784 276.201 292.432 276.18 293.083C277.394 293.066 278.587 293.396 279.618 294.036C280.65 294.676 281.476 295.598 282 296.693H253.72C253.08 292.793 257.77 288.993 261.14 289.393Z" fill="#AE7461"/>
<path d="M61.2798 228.073C59.5646 227.905 57.8331 228.03 56.1599 228.443C54.4694 228.886 53.0128 229.959 52.0898 231.443L52.2999 231.763C54.448 232.845 56.8974 233.174 59.2549 232.697C61.6124 232.22 63.7413 230.965 65.2999 229.133C64.0646 228.462 62.6856 228.098 61.2798 228.073Z" fill="#73BE44"/>
<path d="M52.6903 218.033C51.0213 219.24 49.6274 220.788 48.6003 222.573C47.1737 224.638 46.6004 227.175 47.0003 229.653L47.5203 229.793C50.8803 228.91 53.8502 226.933 55.9603 224.173C58.0403 221.433 58.5403 218.773 58.4703 215.333C56.3899 215.859 54.4284 216.775 52.6903 218.033Z" fill="#73BE44"/>
<path d="M30.7002 213.893C30.7111 216.17 31.2017 218.419 32.1402 220.493C33.082 223.102 34.9901 225.25 37.4702 226.493L37.9302 226.103C39.3048 222.525 39.4456 218.59 38.3302 214.923C37.2202 211.293 35.1602 209.133 32.0302 206.973C31.1528 209.175 30.7015 211.523 30.7002 213.893Z" fill="#73BE44"/>
<path d="M23.4704 226.903C24.4161 228.293 25.6467 229.466 27.0804 230.343C28.7379 231.543 30.792 232.062 32.8204 231.793L32.9404 231.363C32.2997 228.605 30.7542 226.141 28.5504 224.363C26.5242 222.76 23.9801 221.956 21.4004 222.103C21.7754 223.821 22.4783 225.451 23.4704 226.903Z" fill="#73BE44"/>
<path d="M26.05 241.123C26.8562 243.104 28.0651 244.895 29.6001 246.383C31.3365 248.321 33.7473 249.523 36.34 249.743L36.61 249.243C36.5691 245.639 35.3189 242.152 33.06 239.343C30.82 236.563 28.28 235.393 24.79 234.603C24.794 236.837 25.2215 239.049 26.05 241.123Z" fill="#73BE44"/>
<path d="M25.3 255.293C26.7734 255.608 28.2967 255.608 29.77 255.293C31.5863 255.045 33.2373 254.107 34.38 252.673L34.2 252.323C32.076 250.914 29.5414 250.255 27 250.453C24.6991 250.681 22.563 251.749 21 253.453C22.3032 254.335 23.7626 254.959 25.3 255.293Z" fill="#73BE44"/>
<path d="M34.3799 215.333C34.4989 215.584 34.5959 215.845 34.6699 216.113L35.3899 218.383C35.6999 219.383 36.0799 220.583 36.5099 221.973C36.9399 223.363 37.5099 224.973 37.8899 226.763C39.6699 233.933 41.8899 243.893 43.7499 255.013C45.6099 266.133 46.7999 276.273 47.4399 283.633C47.7699 287.313 47.9799 290.293 48.0999 292.353L48.2199 294.723C48.2464 294.999 48.2464 295.277 48.2199 295.553C48.1687 295.282 48.132 295.008 48.1099 294.733C48.0599 294.143 47.9899 293.353 47.8899 292.363C47.7099 290.313 47.4499 287.363 47.0699 283.663C46.3399 276.323 45.0699 266.203 43.2399 255.103C41.4099 244.003 39.2399 234.033 37.5299 226.853C37.1499 225.053 36.6099 223.463 36.2299 222.053L35.2299 218.433C34.9599 217.433 34.7499 216.713 34.5999 216.143C34.5016 215.881 34.428 215.609 34.3799 215.333Z" fill="#242734"/>
<path d="M31.1701 242.173C31.2901 242.083 34.3201 246.173 37.9501 251.283C41.5801 256.393 44.4101 260.623 44.3001 260.703C44.1901 260.783 41.1501 256.703 37.5201 251.583C33.8901 246.463 31.0601 242.253 31.1701 242.173Z" fill="#242734"/>
<path d="M50.7605 223.623C50.8205 223.623 50.1605 224.733 49.1605 226.503C48.1605 228.273 46.8405 230.733 45.5505 233.553C44.2605 236.373 43.2805 238.983 42.6105 240.903C42.2933 241.954 41.916 242.986 41.4805 243.993C41.4883 243.697 41.5388 243.404 41.6305 243.123C41.7505 242.563 41.9605 241.763 42.2605 240.783C43.0345 238.24 43.9766 235.751 45.0805 233.333C46.1773 230.917 47.4369 228.579 48.8505 226.333C49.3905 225.473 49.8505 224.783 50.1905 224.333C50.5305 223.883 50.7305 223.603 50.7605 223.623Z" fill="#242734"/>
<path d="M58.6996 230.223C58.6996 230.363 55.6996 231.013 51.9096 231.943C48.1196 232.873 45.1396 233.713 45.0996 233.573C45.6966 233.227 46.3397 232.968 47.0096 232.803C48.2196 232.403 49.8996 231.903 51.7896 231.433C53.6796 230.963 55.3996 230.633 56.6496 230.433C57.3202 230.27 58.0099 230.2 58.6996 230.223Z" fill="#242734"/>
<path d="M26.5195 226.593C27.267 226.916 27.9722 227.329 28.6195 227.823C29.8795 228.643 31.5695 229.823 33.4095 231.193L38.1095 234.673C38.7846 235.121 39.4143 235.633 39.9895 236.203C39.2433 235.878 38.5384 235.465 37.8895 234.973C36.6395 234.153 34.9495 232.973 33.0995 231.613L28.4095 228.123C27.7303 227.677 27.0972 227.165 26.5195 226.593Z" fill="#242734"/>
<path d="M37.9999 251.943C34.9692 252.872 31.7884 253.212 28.6299 252.943C30.1741 252.637 31.738 252.44 33.3099 252.353C34.8623 252.112 36.4291 251.975 37.9999 251.943Z" fill="#242734"/>
<path d="M56.2998 241.553C55.7253 242.967 54.8599 244.245 53.7598 245.303C52.5232 246.69 50.8014 247.549 48.9498 247.703L48.7598 247.343C48.7981 244.775 49.688 242.291 51.2898 240.283C52.776 238.465 54.88 237.258 57.1998 236.893C57.1969 238.489 56.8916 240.071 56.2998 241.553Z" fill="#73BE44"/>
<path d="M56.8304 251.653C55.7789 251.878 54.6918 251.878 53.6404 251.653C52.3467 251.476 51.1715 250.806 50.3604 249.783L50.4904 249.533C52.0057 248.545 53.8076 248.091 55.6104 248.243C57.2523 248.399 58.7795 249.153 59.9003 250.363C58.9719 250.991 57.9287 251.43 56.8304 251.653Z" fill="#73BE44"/>
<path d="M52.6395 242.293C51.3394 244.588 49.8861 246.793 48.2895 248.893C46.8392 251.092 45.2457 253.193 43.5195 255.183C44.8239 252.894 46.277 250.692 47.8695 248.593C49.3253 246.395 50.9185 244.291 52.6395 242.293Z" fill="#242734"/>
<path d="M47.7598 249.273C48.882 249.221 50.0064 249.302 51.1098 249.513C52.232 249.552 53.3459 249.72 54.4298 250.013C52.1791 250.29 49.895 250.037 47.7598 249.273Z" fill="#242734"/>
<path d="M53.2096 289.393C52.6316 289.55 52.0184 289.519 51.4596 289.303C50.7596 288.903 50.6996 287.943 50.4596 287.163C50.2016 286.303 49.6451 285.564 48.8904 285.077C48.1356 284.591 47.2321 284.39 46.3425 284.511C45.4528 284.631 44.6354 285.065 44.0372 285.735C43.4391 286.405 43.0995 287.266 43.0796 288.163C42.4295 288.145 41.7826 288.26 41.1786 288.501C40.5746 288.742 40.0263 289.104 39.5674 289.565C39.1085 290.026 38.7487 290.576 38.51 291.181C38.2713 291.786 38.1589 292.433 38.1796 293.083C36.965 293.067 35.7711 293.399 34.7384 294.038C33.7056 294.678 32.8769 295.599 32.3496 296.693H60.6296C61.2796 292.793 56.5796 288.993 53.2096 289.393Z" fill="#AE7461"/>
<path d="M106.81 261.453C107.512 263.647 107.747 265.963 107.5 268.253C107.4 271.055 106.234 273.712 104.24 275.683L103.68 275.453C101.233 272.443 99.8603 268.702 99.7803 264.823C99.7203 260.973 101.02 258.253 103.35 255.193C104.89 257.042 106.064 259.166 106.81 261.453Z" fill="#73BE44"/>
<path d="M117.2 272.643C116.192 273.915 114.928 274.961 113.49 275.713C111.814 276.754 109.803 277.112 107.87 276.713L107.78 276.293C108.585 273.683 110.235 271.414 112.47 269.843C114.52 268.448 117.01 267.85 119.47 268.163C119.006 269.788 118.236 271.308 117.2 272.643Z" fill="#73BE44"/>
<path d="M103.3 265.843C103.44 265.843 103.99 271.283 104.52 278.013C105.05 284.743 105.37 290.203 105.23 290.213C105.09 290.223 104.54 284.783 104 278.053C103.46 271.323 103.15 265.853 103.3 265.843Z" fill="#242734"/>
<path d="M104.37 278.653C105.71 277.618 107.113 276.666 108.57 275.803C109.928 274.794 111.351 273.875 112.83 273.053C110.375 275.419 107.508 277.317 104.37 278.653Z" fill="#242734"/>
<path d="M109.85 289.793C109.276 289.954 108.666 289.926 108.11 289.713C107.4 289.303 107.35 288.343 107.11 287.573C106.852 286.713 106.295 285.974 105.541 285.487C104.786 285.001 103.883 284.8 102.993 284.921C102.103 285.041 101.286 285.475 100.688 286.145C100.089 286.815 99.7499 287.676 99.73 288.573C99.0795 288.554 98.4319 288.668 97.8273 288.908C97.2227 289.149 96.6738 289.511 96.2145 289.972C95.7553 290.433 95.3955 290.983 95.1574 291.589C94.9192 292.195 94.8078 292.843 94.83 293.493C93.6167 293.478 92.4241 293.808 91.3917 294.446C90.3592 295.083 89.5297 296.001 89 297.093H117.29C117.92 293.203 113.23 289.393 109.85 289.793Z" fill="#AE7461"/>
</svg>
