<svg xmlns="http://www.w3.org/2000/svg" width="106" height="50" viewBox="0 0 106 50" fill="none">
  <path d="M10.7335 11.2456V7.61791C10.7335 7.11931 10.2161 6.80984 9.79874 7.06773L5.90929 9.44037C5.15811 9.90458 4.6907 10.7298 4.6907 11.6411V31.774H10.7335V14.667C11.685 10.7298 17.7279 18.226 21.0831 6.50037C17.1937 9.50914 12.6031 5.65791 10.7335 11.2456Z" fill="#74BD44"/>
  <path d="M38.7609 22.3867C37.8094 21.5614 36.1235 20.8737 33.703 20.3064C31.2825 19.739 29.8803 19.3092 29.463 18.9997C29.1625 18.759 29.0123 18.4839 29.0123 18.1572C29.0123 17.8306 29.1792 17.4523 29.5297 17.2116C30.0472 16.8678 30.8986 16.6958 32.1005 16.6958C33.3024 16.6958 33.7697 16.885 34.2872 17.246C34.8047 17.6071 35.1386 18.14 35.3222 18.8278L39.5956 18.0197C39.1616 16.4723 38.377 15.3204 37.2419 14.5295C36.1068 13.7386 34.354 13.3432 32.017 13.3432C29.68 13.3432 27.7269 13.859 26.5584 14.9078C25.3899 15.9565 24.8057 17.2288 24.8057 18.759C24.8057 20.2892 25.4901 21.785 26.8422 22.7306C27.8271 23.4183 30.1474 24.1748 33.8031 25C34.5877 25.1892 35.0885 25.3955 35.3222 25.619C35.5392 25.8597 35.6394 26.152 35.6394 26.4958C35.6394 27.0116 35.439 27.4243 35.0384 27.7337C34.4375 28.1807 33.5694 28.4043 32.3842 28.4043C31.199 28.4043 30.4979 28.1636 29.897 27.6993C29.3127 27.2351 28.9121 26.5302 28.7118 25.6362L24.1546 26.3411C24.572 28.0088 25.4567 29.3327 26.8255 30.3127C28.1943 31.2927 30.0305 31.7741 32.3675 31.7741C34.7046 31.7741 36.8746 31.1895 38.1934 30.0376C39.5121 28.8685 40.1631 27.4758 40.1631 25.8597C40.1631 24.2436 39.6957 23.212 38.7442 22.3867H38.7609Z" fill="#232734"/>
  <path d="M87.2705 29.006C87.1203 28.2667 87.0535 27.132 87.0535 25.5674L87.1036 20.1172C87.1036 18.0884 86.9033 16.6958 86.5027 15.9393C86.102 15.1828 85.4009 14.5467 84.4161 14.0653C83.4312 13.5667 81.9121 13.326 79.8923 13.326C77.8724 13.326 75.9861 13.7386 74.851 14.5639C73.7159 15.3891 72.9313 16.6442 72.4639 18.3463L76.5704 19.1028C76.8542 18.2776 77.2214 17.7102 77.6721 17.3835C78.1228 17.0569 78.7572 16.8849 79.5584 16.8849C80.7603 16.8849 81.5616 17.0741 81.9956 17.4523C82.4296 17.8306 82.6466 18.4667 82.6466 19.3779V19.8421C81.8286 20.2032 80.3597 20.5814 78.2397 20.9941C76.6705 21.3035 75.4686 21.6646 74.634 22.0772C73.7994 22.4898 73.1483 23.0916 72.6809 23.8653C72.2135 24.6562 71.9965 25.533 71.9965 26.5302C71.9965 28.0432 72.4973 29.2811 73.5156 30.2783C74.5338 31.2583 75.9194 31.7569 77.6888 31.7569C79.4583 31.7569 79.6252 31.5677 80.5099 31.1723C81.3946 30.7769 82.2126 30.2095 82.9972 29.4186C83.0305 29.5046 83.0806 29.6937 83.1641 29.9688C83.331 30.5705 83.4812 31.0348 83.5981 31.3442H88.0885C87.6879 30.5018 87.4208 29.7109 87.2705 28.9716V29.006ZM82.6466 23.8309C82.6466 24.9484 82.5798 25.7049 82.463 26.1004C82.2961 26.7193 81.9288 27.2179 81.3779 27.6477C80.6435 28.1979 79.8589 28.473 79.0409 28.473C78.223 28.473 77.7055 28.2323 77.2381 27.7509C76.7707 27.2695 76.5203 26.7021 76.5203 26.0488C76.5203 25.3955 76.8208 24.8281 77.405 24.3983C77.789 24.1232 78.6069 23.8653 79.8756 23.5902C81.1275 23.3151 82.0623 23.0744 82.6299 22.8681V23.7965L82.6466 23.8309Z" fill="#232734"/>
  <path d="M98.3213 13.326C97.5868 13.326 96.9357 13.5151 96.3515 13.8934C95.7672 14.2716 95.1329 15.0453 94.3984 16.2316V13.7214H90.1918V31.4302H94.7323V25.9284C94.7323 22.9197 94.8658 20.9597 95.1162 20.0141C95.3666 19.0684 95.7172 18.4151 96.1512 18.0541C96.6019 17.693 97.1361 17.5211 97.7704 17.5211C98.4047 17.5211 99.1392 17.779 99.9071 18.2776L101.309 14.2028C100.358 13.6183 99.3562 13.326 98.3213 13.326Z" fill="#232734"/>
  <path d="M68.8583 7.06774V31.7912H64.1843V10.5235C64.1843 9.5951 64.6517 8.73545 65.4195 8.23686L68.0403 6.58633C68.3909 6.36282 68.8583 6.62072 68.8583 7.06774Z" fill="#232734"/>
  <path fill-rule="evenodd" clip-rule="evenodd" d="M20.7326 21.1144H15.9083C15.6413 21.1144 15.2907 21.3379 15.1405 21.613L14.0721 23.487C13.9052 23.7621 14.0053 23.9856 14.2724 23.9856H19.0967C19.3638 23.9856 19.7143 23.7621 19.8646 23.487L20.9329 21.613C21.0831 21.3379 20.9997 21.1144 20.7326 21.1144Z" fill="#232734"/>
  <path d="M49.6614 13.6355V13.7558H49.2608C49.3943 13.7215 49.5279 13.6699 49.6614 13.6355Z" fill="#232734"/>
  <path d="M50.5628 13.4464V13.5323L50.3458 13.7558H49.7282V13.6183C50.012 13.5495 50.279 13.4979 50.5628 13.4464Z" fill="#232734"/>
  <path d="M51.6813 13.3432V13.7558H51.0636L50.8466 13.5323V13.412C51.1137 13.3776 51.3975 13.3604 51.6813 13.3432Z" fill="#232734"/>
  <path d="M52.566 13.3432V13.7558H51.7313V13.3432C51.8649 13.3432 51.9817 13.3432 52.1153 13.3432C52.2488 13.3432 52.4157 13.3432 52.566 13.3432Z" fill="#232734"/>
  <path d="M53.4674 13.412V13.5151L53.2504 13.7386H52.6328V13.326C52.9165 13.326 53.2003 13.3604 53.4674 13.3948V13.412Z" fill="#232734"/>
  <path d="M54.5858 13.6183V13.7386H53.9682L53.7512 13.5151V13.4464C54.035 13.4979 54.3187 13.5495 54.5858 13.6183Z" fill="#232734"/>
  <path d="M55.0031 13.7387H54.6359V13.6355C54.7694 13.6699 54.8863 13.7043 55.0031 13.7387Z" fill="#232734"/>
  <path d="M45.8554 15.7675V16.6271H45.2378L45.171 16.5583C45.388 16.2832 45.6217 16.0082 45.8554 15.7675Z" fill="#232734"/>
  <path d="M46.7568 14.9938V16.6271H45.9222V15.7159C46.1893 15.458 46.4564 15.2173 46.7568 14.9938Z" fill="#232734"/>
  <path d="M47.6583 14.4264V16.4036L47.4413 16.6271H46.8236V14.9594C47.0573 14.7874 47.3077 14.6327 47.5748 14.478C47.6082 14.4608 47.6416 14.4436 47.675 14.4264H47.6583Z" fill="#232734"/>
  <path d="M48.7767 14.0309V16.6271H48.1591L47.942 16.4036V14.2888C48.1257 14.2029 48.3093 14.1169 48.4929 14.0309H48.7767Z" fill="#232734"/>
  <path d="M49.6614 14.0309H48.8268V16.6271H49.6614V14.0309Z" fill="#232734"/>
  <path d="M49.7282 14.0309V16.6271H50.3458L50.5628 16.4036V14.2545L50.3458 14.0309H49.7282Z" fill="#232734"/>
  <path d="M51.6812 16.6271V14.0309H51.0469L50.8299 14.2545V16.4036L51.0469 16.6271H51.6812Z" fill="#232734"/>
  <path d="M52.566 14.0309H51.7313V16.6271H52.566V14.0309Z" fill="#232734"/>
  <path d="M52.6327 14.0309V16.6271H53.2504L53.4674 16.4036V14.2545L53.2504 14.0309H52.6327Z" fill="#232734"/>
  <path d="M54.5858 16.6271V14.0309H53.9515L53.7345 14.2545V16.4036L53.9515 16.6271H54.5858Z" fill="#232734"/>
  <path d="M55.4705 14.0309H54.6359V16.6271H55.4705V14.0309Z" fill="#232734"/>
  <path d="M56.372 14.306V16.3864L56.155 16.6099H55.5373V14.0137H55.7877C55.988 14.0997 56.1883 14.2029 56.3887 14.306H56.372Z" fill="#232734"/>
  <path d="M57.4904 15.0281V16.6271H56.8728L56.6557 16.4036V14.4608C56.9562 14.6327 57.2233 14.8218 57.4904 15.0281Z" fill="#232734"/>
  <path d="M58.3751 15.819V16.6271H57.5405V15.0625C57.841 15.286 58.108 15.5439 58.3751 15.819Z" fill="#232734"/>
  <path d="M59.0762 16.6099H59.0595C59.0595 16.6271 58.4419 16.6271 58.4419 16.6271V15.8706C58.4586 15.8878 58.4753 15.905 58.492 15.9222C58.6923 16.1457 58.8926 16.3692 59.0762 16.5927V16.6099Z" fill="#232734"/>
  <path d="M43.8523 19.0857V19.5155H43.702C43.7521 19.378 43.7855 19.2232 43.8523 19.0857Z" fill="#232734"/>
  <path d="M44.7537 17.1945V19.292L44.5367 19.5155H43.9191V18.9309C44.0693 18.5527 44.2195 18.1745 44.4198 17.8134C44.52 17.6071 44.6368 17.4008 44.7704 17.1945H44.7537Z" fill="#232734"/>
  <path d="M45.8554 19.5155V16.9022H45.2378L45.0208 17.1257V19.292L45.2378 19.5155H45.8554Z" fill="#232734"/>
  <path d="M46.7568 16.9022H45.9222V19.4983H46.7568V16.9022Z" fill="#232734"/>
  <path d="M46.8069 16.9022V19.5155H47.4412L47.6583 19.292V17.1257L47.4412 16.9022H46.8069Z" fill="#232734"/>
  <path d="M48.7767 16.9022V19.0513C48.6932 19.1888 48.6098 19.3436 48.5263 19.5155H48.1591L47.942 19.292V17.1429L48.1591 16.9194H48.7767V16.9022Z" fill="#232734"/>
  <path d="M49.6614 16.9022V18.0197C49.4778 18.1744 49.3109 18.3464 49.1439 18.5355C49.0271 18.673 48.9102 18.8106 48.8101 18.9653V16.9022H49.6447H49.6614Z" fill="#232734"/>
  <path d="M50.5628 17.1257V17.4523C50.2624 17.5899 49.9786 17.7618 49.7282 17.9681V16.9022H50.3458L50.5628 17.1257Z" fill="#232734"/>
  <path d="M51.6813 16.9022V17.1601C51.3808 17.1944 51.1137 17.2632 50.8466 17.3492V17.1257L51.0636 16.9022H51.6813Z" fill="#232734"/>
  <path d="M52.566 16.9022V17.1429C52.4324 17.1429 52.2822 17.1257 52.132 17.1257C51.9817 17.1257 51.8649 17.1257 51.7313 17.1429V16.9022H52.566Z" fill="#232734"/>
  <path d="M53.4674 17.1257V17.3492C53.2003 17.246 52.9165 17.1772 52.6328 17.1601V16.9022H53.2504L53.4674 17.1257Z" fill="#232734"/>
  <path d="M54.5858 16.9022V18.0025C54.3187 17.779 54.035 17.6071 53.7512 17.4695V17.1257L53.9682 16.9022H54.5858Z" fill="#232734"/>
  <path d="M55.4705 16.9022V19.0169C55.3537 18.845 55.2368 18.673 55.1033 18.5183C54.9531 18.3464 54.7861 18.1744 54.6192 18.0369V16.9022H55.4538H55.4705Z" fill="#232734"/>
  <path d="M56.372 17.1257V19.2748L56.155 19.4983H55.7376C55.6709 19.3608 55.6041 19.2232 55.5206 19.1029V16.9022H56.1383L56.3553 17.1257H56.372Z" fill="#232734"/>
  <path d="M57.4904 19.5155V16.9022H56.8561L56.6391 17.1257V19.292L56.8561 19.5155H57.4904Z" fill="#232734"/>
  <path d="M58.3751 16.9022H57.5405V19.4983H58.3751V16.9022Z" fill="#232734"/>
  <path d="M58.4419 16.9022V19.5155H59.0595L59.2765 19.292V17.1257L59.0595 16.9022H58.4419Z" fill="#232734"/>
  <path d="M60.3949 18.9653V19.5155H59.7773L59.5603 19.292V17.2804C59.8942 17.8134 60.1779 18.3807 60.3949 18.9825V18.9653Z" fill="#232734"/>
  <path d="M60.5786 19.5155H60.4617V19.1201C60.5118 19.2576 60.5452 19.378 60.5786 19.5155Z" fill="#232734"/>
  <path d="M43.8523 19.7905V22.3867H43.2847C43.2847 22.3523 43.2847 22.3351 43.2847 22.3007C43.2847 21.4411 43.4016 20.6158 43.6186 19.7905H43.8356H43.8523Z" fill="#232734"/>
  <path d="M43.9024 19.7905V22.3867H44.5367L44.7537 22.1632V20.014L44.5367 19.7905H43.9024Z" fill="#232734"/>
  <path d="M45.8554 22.3867V19.7905H45.2378L45.0208 20.014V22.1632L45.2378 22.3867H45.8554Z" fill="#232734"/>
  <path d="M46.7568 19.7905H45.9222V22.3867H46.7568V19.7905Z" fill="#232734"/>
  <path d="M46.8069 19.7905V22.3867H47.4412L47.6583 22.1632V20.014L47.4412 19.7905H46.8069Z" fill="#232734"/>
  <path d="M48.3927 19.7905C48.1257 20.4611 47.9754 21.2691 47.942 22.1804H47.9253V20.014L48.1423 19.7905H48.3927Z" fill="#232734"/>
  <path d="M56.372 20.014V22.1632L56.3052 22.2319C56.2718 21.3035 56.1383 20.4782 55.8545 19.7905H56.1549L56.372 20.014Z" fill="#232734"/>
  <path d="M57.4904 22.3867V19.7905H56.856L56.639 20.014V22.1632L56.856 22.3867H57.4904Z" fill="#232734"/>
  <path d="M58.3751 19.7905H57.5405V22.3867H58.3751V19.7905Z" fill="#232734"/>
  <path d="M58.4419 19.7905V22.3867H59.0595L59.2765 22.1632V20.014L59.0595 19.7905H58.4419Z" fill="#232734"/>
  <path d="M60.3949 22.3867V19.7905H59.7606L59.5436 20.014V22.1632L59.7606 22.3867H60.3949Z" fill="#232734"/>
  <path d="M60.9792 22.3867H60.445V19.7905H60.6453C60.8623 20.5986 60.9625 21.4754 60.9792 22.3867Z" fill="#232734"/>
  <path d="M43.8523 22.679V25.2751H43.6019C43.4183 24.4842 43.3181 23.6074 43.3014 22.679H43.8523Z" fill="#232734"/>
  <path d="M43.9024 22.679V25.2751H44.5367L44.7537 25.0516V22.9025L44.5367 22.679H43.9024Z" fill="#232734"/>
  <path d="M45.8554 25.2751V22.679H45.2378L45.0208 22.9025V25.0516L45.2378 25.2751H45.8554Z" fill="#232734"/>
  <path d="M46.7568 22.679H45.9222V25.2751H46.7568V22.679Z" fill="#232734"/>
  <path d="M46.8069 22.679V25.2751H47.4412L47.6583 25.0516V22.9025L47.4412 22.679H46.8069Z" fill="#232734"/>
  <path d="M48.376 25.2751H48.1423L47.9253 25.0516V22.9025C47.9587 23.7965 48.0923 24.6046 48.3594 25.2751H48.376Z" fill="#232734"/>
  <path d="M56.372 22.9025V25.0516L56.1549 25.2751H55.8712C56.1383 24.5874 56.2885 23.7793 56.3052 22.8337L56.372 22.9025Z" fill="#232734"/>
  <path d="M57.4904 25.2751V22.679H56.856L56.639 22.9025V25.0516L56.856 25.2751H57.4904Z" fill="#232734"/>
  <path d="M58.3751 22.679H57.5405V25.2751H58.3751V22.679Z" fill="#232734"/>
  <path d="M58.4419 22.679V25.2751H59.0595L59.2765 25.0516V22.9025L59.0595 22.679H58.4419Z" fill="#232734"/>
  <path d="M60.3949 25.2751V22.679H59.7606L59.5436 22.9025V25.0516L59.7606 25.2751H60.3949Z" fill="#232734"/>
  <path d="M60.9792 22.679C60.9792 23.6074 60.8456 24.467 60.6453 25.2751H60.445V22.679H60.9792Z" fill="#232734"/>
  <path d="M43.8523 25.5502V26.152C43.7855 25.9629 43.7187 25.7565 43.6687 25.5502H43.8523Z" fill="#232734"/>
  <path d="M44.7537 25.7737V27.9229L44.7036 27.9744C44.6035 27.8025 44.5033 27.6306 44.4031 27.4587C44.2195 27.0976 44.0526 26.7194 43.9024 26.3239V25.5502H44.52L44.737 25.7737H44.7537Z" fill="#232734"/>
  <path d="M45.8554 28.1464V25.5502H45.2378L45.0208 25.7737V27.9229L45.2378 28.1464H45.8554Z" fill="#232734"/>
  <path d="M46.7568 25.5502H45.9222V28.1464H46.7568V25.5502Z" fill="#232734"/>
  <path d="M46.8069 25.5502V28.1464H47.4412L47.6583 27.9229V25.7737L47.4412 25.5502H46.8069Z" fill="#232734"/>
  <path d="M48.7767 26.066V28.1635H48.1591L47.942 27.94V25.7909L48.1591 25.5674H48.5096C48.5931 25.7393 48.6765 25.9112 48.7767 26.0832V26.066Z" fill="#232734"/>
  <path d="M49.6614 27.0804V28.1463H48.8268V26.1348C48.9269 26.2895 49.0271 26.427 49.1606 26.5646C49.3276 26.7537 49.4945 26.9256 49.6781 27.0804H49.6614Z" fill="#232734"/>
  <path d="M50.5628 27.6477V27.9228L50.3458 28.1463H49.7282V27.132C49.9953 27.3383 50.279 27.5274 50.5628 27.6477Z" fill="#232734"/>
  <path d="M51.6812 27.94V28.1464H51.0636L50.8466 27.9228V27.7509C51.1137 27.8369 51.3975 27.9057 51.6812 27.94Z" fill="#232734"/>
  <path d="M52.566 27.9572V28.1635H51.7313V27.9572C51.8649 27.9572 51.9984 27.9744 52.132 27.9744C52.2655 27.9744 52.4324 27.9744 52.566 27.9572Z" fill="#232734"/>
  <path d="M53.4674 27.7509V27.9228L53.2504 28.1464H52.6327V27.94C52.9332 27.9057 53.2003 27.8369 53.4674 27.7509Z" fill="#232734"/>
  <path d="M54.5858 27.0976V28.1464H53.9682L53.7512 27.9229V27.6306C54.0516 27.493 54.3354 27.3211 54.5858 27.0976Z" fill="#232734"/>
  <path d="M55.4705 26.0832V28.1463H54.6359V27.046C54.8028 26.9084 54.9698 26.7365 55.12 26.5646C55.2535 26.4098 55.3704 26.2379 55.4872 26.066L55.4705 26.0832Z" fill="#232734"/>
  <path d="M56.372 25.7737V27.9228L56.155 28.1464H55.5373V25.98C55.6208 25.8425 55.7043 25.6878 55.771 25.533H56.1717L56.3887 25.7565L56.372 25.7737Z" fill="#232734"/>
  <path d="M57.4904 28.1464V25.5502H56.8561L56.6391 25.7737V27.9229L56.8561 28.1464H57.4904Z" fill="#232734"/>
  <path d="M58.3751 25.5502H57.5405V28.1464H58.3751V25.5502Z" fill="#232734"/>
  <path d="M58.4419 25.5502V28.1464H59.0595L59.2765 27.9229V25.7737L59.0595 25.5502H58.4419Z" fill="#232734"/>
  <path d="M60.3949 25.5502V26.066C60.1779 26.6678 59.8942 27.2351 59.5603 27.7681V25.7737L59.7773 25.5502H60.3949Z" fill="#232734"/>
  <path d="M60.5619 25.5502C60.5285 25.6706 60.4951 25.7909 60.445 25.8941V25.5502H60.5619Z" fill="#232734"/>
  <path d="M45.8554 28.4387V29.4187C45.5883 29.1608 45.3213 28.8685 45.1042 28.5762L45.2378 28.4387H45.8554Z" fill="#232734"/>
  <path d="M46.7568 28.4387V30.158C46.4564 29.9516 46.1726 29.7281 45.9222 29.4702V28.4387H46.7568Z" fill="#232734"/>
  <path d="M47.6583 28.6622V30.6909C47.3578 30.5362 47.074 30.3643 46.8236 30.1923V28.4387H47.4412L47.6583 28.6622Z" fill="#232734"/>
  <path d="M48.7767 28.4387V31.0348H48.4261C48.2759 30.966 48.109 30.8973 47.9587 30.8285V28.6622L48.1757 28.4387H48.7934H48.7767Z" fill="#232734"/>
  <path d="M49.6614 28.4387H48.8268V31.0348H49.6614V28.4387Z" fill="#232734"/>
  <path d="M49.7282 28.4387V31.0348H50.3458L50.5628 30.8113V28.6622L50.3458 28.4387H49.7282Z" fill="#232734"/>
  <path d="M51.6812 31.0348V28.4387H51.0469L50.8299 28.6622V30.8113L51.0469 31.0348H51.6812Z" fill="#232734"/>
  <path d="M52.566 28.4387H51.7313V31.0348H52.566V28.4387Z" fill="#232734"/>
  <path d="M52.6327 28.4387V31.0348H53.2504L53.4674 30.8113V28.6622L53.2504 28.4387H52.6327Z" fill="#232734"/>
  <path d="M54.5858 31.0348V28.4387H53.9515L53.7345 28.6622V30.8113L53.9515 31.0348H54.5858Z" fill="#232734"/>
  <path d="M55.4705 28.4387H54.6359V31.0348H55.4705V28.4387Z" fill="#232734"/>
  <path d="M56.372 28.6622V30.7769C56.205 30.8629 56.0214 30.966 55.8378 31.0348H55.5206V28.4387H56.1383L56.3553 28.6622H56.372Z" fill="#232734"/>
  <path d="M57.4904 28.4386V30.0376C57.2233 30.2439 56.9395 30.433 56.6557 30.605V28.645L56.8728 28.4214H57.4904V28.4386Z" fill="#232734"/>
  <path d="M58.3751 28.4387V29.2467C58.108 29.5218 57.8242 29.7797 57.5405 30.0032V28.4387H58.3751Z" fill="#232734"/>
  <path d="M59.0762 28.4387C58.8926 28.6794 58.6923 28.9201 58.4753 29.1436L58.4419 29.178V28.4387H59.0762Z" fill="#232734"/>
  <path d="M49.6614 31.3099V31.4474C49.4945 31.413 49.3443 31.3615 49.1773 31.3099H49.6614Z" fill="#232734"/>
  <path d="M50.5628 31.5334V31.6365C50.279 31.585 49.9953 31.5334 49.7282 31.4646V31.3099H50.3458L50.5628 31.5334Z" fill="#232734"/>
  <path d="M51.6813 31.3099V31.7569C51.3975 31.7569 51.1137 31.7225 50.8466 31.6881V31.5334L51.0636 31.3099H51.6813Z" fill="#232734"/>
  <path d="M52.566 31.3099V31.7569C52.4324 31.7569 52.2822 31.7569 52.1487 31.7569C52.0151 31.7569 51.8649 31.7569 51.7313 31.7569V31.3099H52.566Z" fill="#232734"/>
  <path d="M53.4674 31.5334V31.6881C53.2003 31.7225 52.9165 31.7569 52.6328 31.7569V31.3099H53.2504L53.4674 31.5334Z" fill="#232734"/>
  <path d="M54.5858 31.3099V31.4818C54.3187 31.5506 54.035 31.6193 53.7512 31.6537V31.5334L53.9682 31.3099H54.5858Z" fill="#232734"/>
  <path d="M55.12 31.3099C54.9531 31.3615 54.8028 31.413 54.6359 31.4646V31.3099H55.12Z" fill="#232734"/>
  <path d="M55.6876 40.8004H55.0365V34.8688H55.7376V36.9835C56.0381 36.6053 56.422 36.399 56.8894 36.399C57.3568 36.399 57.3902 36.4505 57.6239 36.5537C57.8576 36.6568 58.0413 36.8116 58.1915 37.0007C58.3417 37.1898 58.4586 37.4305 58.542 37.7056C58.6255 37.9807 58.6756 38.273 58.6756 38.5825C58.6756 39.3218 58.492 39.8891 58.1414 40.2846C57.7909 40.68 57.3568 40.8863 56.8727 40.8863C56.3887 40.8863 55.988 40.68 55.7209 40.2502V40.7832L55.6876 40.8004ZM55.6709 38.6168C55.6709 39.1326 55.7376 39.5109 55.8712 39.7344C56.0882 40.1126 56.3887 40.3018 56.7726 40.3018C57.1565 40.3018 57.3568 40.1642 57.5738 39.8891C57.7909 39.614 57.9077 39.2014 57.9077 38.6512C57.9077 38.1011 57.8076 37.6712 57.5905 37.4133C57.3735 37.1382 57.1064 37.0179 56.806 37.0179C56.5055 37.0179 56.2217 37.1554 56.0047 37.4305C55.7877 37.7056 55.6709 38.1011 55.6709 38.634V38.6168Z" fill="#232734"/>
  <path d="M59.4768 42.4509L59.3934 41.7632C59.5436 41.7976 59.6772 41.832 59.794 41.832C59.9109 41.832 60.0778 41.7976 60.1779 41.746C60.2781 41.6944 60.3449 41.6085 60.4116 41.5225C60.4617 41.4537 60.5285 41.2646 60.6287 40.9723C60.6287 40.9379 60.662 40.8692 60.6954 40.8004L59.1096 36.5021H59.8775L60.7455 38.9951C60.8624 39.3046 60.9625 39.6485 61.046 39.9923C61.1294 39.6656 61.2296 39.339 61.3298 39.0123L62.2145 36.5021H62.9156L61.3298 40.8692C61.1628 41.3334 61.0293 41.66 60.9291 41.8492C60.7956 42.0899 60.662 42.2618 60.4951 42.3821C60.3282 42.5025 60.1446 42.5541 59.9109 42.5541C59.6772 42.5541 59.6271 42.5197 59.4602 42.4681L59.4768 42.4509Z" fill="#232734"/>
  <path d="M65.937 40.8004V37.0695H65.3194V36.5021H65.937V36.0379C65.937 35.7456 65.9537 35.5393 66.0038 35.4018C66.0705 35.2126 66.1874 35.0579 66.371 34.9376C66.538 34.8172 66.7883 34.7656 67.0888 34.7656C67.3893 34.7656 67.5061 34.7828 67.7565 34.8344L67.6564 35.4705C67.5061 35.4361 67.3726 35.4362 67.2391 35.4362C67.022 35.4362 66.8718 35.4877 66.7883 35.5737C66.7049 35.6769 66.6548 35.8488 66.6548 36.1067V36.5021H67.4728V37.0695H66.6548V40.8004H65.9537H65.937Z" fill="#232734"/>
  <path d="M70.7279 40.2673C70.4608 40.4909 70.2104 40.6628 69.9767 40.7488C69.7263 40.8347 69.4759 40.8863 69.1921 40.8863C68.7414 40.8863 68.3742 40.7659 68.1405 40.5424C67.8901 40.3189 67.7732 40.0095 67.7732 39.6656C67.7732 39.3217 67.8233 39.2702 67.9068 39.081C68.0069 38.9091 68.1238 38.7716 68.274 38.6684C68.4242 38.5652 68.5912 38.4793 68.7748 38.4277C68.9083 38.3933 69.1253 38.3589 69.4091 38.3245C69.9767 38.2558 70.394 38.1698 70.6778 38.0666C70.6778 37.9635 70.6778 37.9119 70.6778 37.8775C70.6778 37.5852 70.611 37.3789 70.4775 37.2586C70.2939 37.0866 70.0268 37.0179 69.6762 37.0179C69.3257 37.0179 69.092 37.0695 68.9417 37.1898C68.7748 37.3102 68.6579 37.5165 68.5912 37.8259L67.9068 37.7228C67.9735 37.4133 68.0737 37.1726 68.2239 36.9835C68.3742 36.7944 68.5745 36.6568 68.8416 36.5537C69.1087 36.4505 69.4258 36.3989 69.7931 36.3989C70.1603 36.3989 70.4441 36.4505 70.6611 36.5365C70.8781 36.6224 71.045 36.7256 71.1452 36.8631C71.2454 37.0007 71.3288 37.1554 71.3622 37.3617C71.3789 37.4821 71.3956 37.7056 71.3956 38.0323V39.0123C71.3956 39.6828 71.3956 40.1126 71.4457 40.3017C71.4791 40.4737 71.5291 40.6456 71.6293 40.8175H70.8948C70.828 40.6628 70.7779 40.4909 70.7613 40.2845L70.7279 40.2673ZM70.6611 38.6512C70.4107 38.7544 70.0268 38.8575 69.5093 38.9263C69.2255 38.9607 69.0085 39.0123 68.8917 39.0638C68.7748 39.1154 68.6746 39.2014 68.6079 39.3045C68.5411 39.4077 68.5077 39.528 68.5077 39.6484C68.5077 39.8375 68.5745 40.0095 68.7247 40.1298C68.875 40.2673 69.0753 40.3189 69.3591 40.3189C69.6428 40.3189 69.8765 40.2502 70.0935 40.1298C70.3105 40.0095 70.4608 39.8375 70.5609 39.6312C70.6444 39.4593 70.6778 39.2186 70.6778 38.9091V38.634L70.6611 38.6512Z" fill="#232734"/>
  <path d="M72.4639 40.8003V36.5021H73.0983V37.1554C73.2652 36.846 73.4154 36.6568 73.549 36.5537C73.6825 36.4505 73.8327 36.4161 73.9997 36.4161C74.2334 36.4161 74.4838 36.5021 74.7342 36.6568L74.4838 37.3274C74.3168 37.2242 74.1332 37.1726 73.9663 37.1726C73.7994 37.1726 73.6658 37.2242 73.549 37.3102C73.4321 37.3961 73.332 37.5337 73.2819 37.7056C73.1984 37.9635 73.165 38.2558 73.165 38.5481V40.8003H72.4639Z" fill="#232734"/>
  <path d="M75.1515 40.8003V36.5021H75.7858V37.1038C75.9194 36.8975 76.0863 36.7256 76.3033 36.588C76.5203 36.4677 76.7707 36.3989 77.0378 36.3989C77.3049 36.3989 77.6053 36.4677 77.8057 36.6052C78.006 36.7428 78.1395 36.9147 78.223 37.1554C78.5568 36.6568 78.9909 36.3989 79.5083 36.3989C80.0258 36.3989 80.2428 36.5193 80.4598 36.76C80.6768 37.0007 80.7937 37.3617 80.7937 37.8431V40.8003H80.0926V38.101C80.0926 37.8087 80.0759 37.6024 80.0258 37.4649C79.9757 37.3445 79.8923 37.2414 79.7754 37.1554C79.6586 37.0695 79.5083 37.0351 79.3581 37.0351C79.0576 37.0351 78.8239 37.1382 78.6236 37.3445C78.4233 37.5509 78.3398 37.8603 78.3398 38.3073V40.8003H77.6387V38.0151C77.6387 37.6884 77.5887 37.4477 77.4718 37.293C77.355 37.1382 77.1713 37.0523 76.9042 37.0523C76.6372 37.0523 76.5203 37.1038 76.3534 37.207C76.1864 37.3102 76.0696 37.4649 75.9861 37.6884C75.9027 37.8947 75.8693 38.187 75.8693 38.5824V40.8175H75.1682L75.1515 40.8003Z" fill="#232734"/>
  <path d="M81.862 40.8004V34.8688H82.5632V38.2558L84.2324 36.5021H85.1506L83.548 38.1011L85.3008 40.8004H84.4328L83.0472 38.5997L82.5465 39.0982V40.8004H81.8454H81.862Z" fill="#232734"/>
  <path d="M88.606 40.2673C88.3389 40.4909 88.0885 40.6628 87.8548 40.7488C87.6044 40.8347 87.354 40.8863 87.0702 40.8863C86.6195 40.8863 86.2523 40.7659 86.0186 40.5424C85.7682 40.3189 85.6513 40.0095 85.6513 39.6656C85.6513 39.3217 85.7014 39.2702 85.7849 39.081C85.885 38.9091 86.0019 38.7716 86.1521 38.6684C86.3024 38.5652 86.4693 38.4793 86.6529 38.4277C86.7865 38.3933 87.0035 38.3589 87.2873 38.3245C87.8548 38.2558 88.2721 38.1698 88.5559 38.0666C88.5559 37.9635 88.5559 37.9119 88.5559 37.8775C88.5559 37.5852 88.4891 37.3789 88.3556 37.2586C88.172 37.0866 87.9049 37.0179 87.5543 37.0179C87.2038 37.0179 86.9701 37.0695 86.8198 37.1898C86.6529 37.3102 86.5361 37.5165 86.4693 37.8259L85.7849 37.7228C85.8517 37.4133 85.9518 37.1726 86.102 36.9835C86.2523 36.7944 86.4526 36.6568 86.7197 36.5537C86.9868 36.4505 87.3039 36.3989 87.6712 36.3989C88.0384 36.3989 88.3222 36.4505 88.5392 36.5365C88.7562 36.6224 88.9231 36.7256 89.0233 36.8631C89.1235 37.0007 89.2069 37.1554 89.2403 37.3617C89.257 37.4821 89.2737 37.7056 89.2737 38.0323V39.0123C89.2737 39.6828 89.2737 40.1126 89.3238 40.3017C89.3572 40.4737 89.4072 40.6456 89.5074 40.8175H88.7729C88.7061 40.6628 88.6561 40.4909 88.6394 40.2845L88.606 40.2673ZM88.5392 38.6512C88.2888 38.7544 87.9049 38.8575 87.3874 38.9263C87.1036 38.9607 86.8866 39.0123 86.7698 39.0638C86.6529 39.1154 86.5528 39.2014 86.486 39.3045C86.4192 39.4077 86.3858 39.528 86.3858 39.6484C86.3858 39.8375 86.4526 40.0095 86.6028 40.1298C86.7531 40.2673 86.9534 40.3189 87.2372 40.3189C87.5209 40.3189 87.7546 40.2502 87.9717 40.1298C88.1887 40.0095 88.3389 39.8375 88.4391 39.6312C88.5225 39.4593 88.5559 39.2186 88.5559 38.9091V38.634L88.5392 38.6512Z" fill="#232734"/>
  <path d="M90.342 40.8003V36.5021H90.9764V37.1554C91.1433 36.846 91.2935 36.6568 91.4271 36.5537C91.5606 36.4505 91.7109 36.4161 91.8778 36.4161C92.1115 36.4161 92.3619 36.5021 92.6123 36.6568L92.3619 37.3274C92.195 37.2242 92.0113 37.1726 91.8444 37.1726C91.6775 37.1726 91.5439 37.2242 91.4271 37.3102C91.3102 37.3961 91.2101 37.5337 91.16 37.7056C91.0765 37.9635 91.0431 38.2558 91.0431 38.5481V40.8003H90.342Z" fill="#232734"/>
  <path d="M94.582 40.1471L94.6822 40.7832C94.4819 40.8348 94.2983 40.852 94.148 40.852C93.8976 40.852 93.6973 40.8176 93.5471 40.7316C93.3968 40.6456 93.3134 40.5425 93.2466 40.4049C93.1965 40.2674 93.1631 39.9751 93.1631 39.5453V37.0695H92.6457V36.5021H93.1631V35.4362L93.8642 35.0063V36.5021H94.582V37.0695H93.8642V39.5797C93.8642 39.786 93.8642 39.9235 93.8976 39.9751C93.9143 40.0267 93.9644 40.0783 94.0145 40.1127C94.0646 40.147 94.148 40.1642 94.2482 40.1642C94.3483 40.1642 94.4318 40.1642 94.5653 40.1299L94.582 40.1471Z" fill="#232734"/>
</svg>