<svg xmlns="http://www.w3.org/2000/svg" width="189" height="87" viewBox="0 0 189 87" fill="none">
  <path d="M19.1381 19.0789V12.6379C19.1381 11.7526 18.2154 11.2032 17.4713 11.6611L10.5363 15.8737C9.19697 16.6979 8.36359 18.1632 8.36359 19.7811V55.5274H19.1381V25.1537C20.8346 18.1632 31.6091 31.4726 37.5916 10.6537C30.6567 15.9958 22.4716 9.1579 19.1381 19.0789Z" fill="#74BD44"/>
  <path d="M69.1114 38.86C67.4149 37.3947 64.4087 36.1737 60.093 35.1663C55.7772 34.159 53.2771 33.3958 52.533 32.8463C51.9972 32.419 51.7294 31.9305 51.7294 31.3505C51.7294 30.7705 52.027 30.099 52.6521 29.6716C53.5747 29.0611 55.0927 28.7558 57.2357 28.7558C59.3787 28.7558 60.2121 29.0916 61.1347 29.7326C62.0574 30.3737 62.6527 31.32 62.9801 32.5411L70.5996 31.1063C69.8258 28.359 68.4269 26.3137 66.4029 24.9095C64.379 23.5053 61.2538 22.8032 57.0869 22.8032C52.9199 22.8032 49.4376 23.719 47.3541 25.5811C45.2706 27.4432 44.2289 29.7021 44.2289 32.419C44.2289 35.1358 45.4492 37.7916 47.8601 39.4705C49.6161 40.6916 53.7533 42.0347 60.2716 43.5C61.6705 43.8358 62.5634 44.2021 62.9801 44.599C63.367 45.0263 63.5456 45.5453 63.5456 46.1558C63.5456 47.0716 63.1884 47.8042 62.4741 48.3537C61.4026 49.1474 59.8549 49.5442 57.7417 49.5442C55.6284 49.5442 54.3784 49.1168 53.3069 48.2926C52.2651 47.4684 51.5508 46.2168 51.1936 44.6295L43.0681 45.8811C43.8122 48.8421 45.3897 51.1926 47.8303 52.9326C50.2709 54.6726 53.545 55.5274 57.7119 55.5274C61.8788 55.5274 65.7481 54.4895 68.0995 52.4442C70.4508 50.3684 71.6116 47.8958 71.6116 45.0263C71.6116 42.1568 70.7782 40.3253 69.0817 38.86H69.1114Z" fill="#232734"/>
  <path d="M155.605 50.6126C155.337 49.3 155.218 47.2853 155.218 44.5074L155.307 34.8305C155.307 31.2284 154.95 28.7558 154.236 27.4126C153.521 26.0695 152.271 24.94 150.515 24.0853C148.759 23.2 146.051 22.7726 142.449 22.7726C138.848 22.7726 135.485 23.5053 133.461 24.9705C131.437 26.4358 130.038 28.6642 129.204 31.6863L136.526 33.0295C137.032 31.5642 137.687 30.5569 138.491 29.9769C139.294 29.3969 140.425 29.0916 141.854 29.0916C143.997 29.0916 145.426 29.4274 146.2 30.099C146.973 30.7705 147.36 31.9 147.36 33.5179V34.3421C145.902 34.9832 143.283 35.6547 139.503 36.3874C136.705 36.9369 134.562 37.5779 133.074 38.3105C131.586 39.0432 130.425 40.1116 129.591 41.4853C128.758 42.8895 128.371 44.4463 128.371 46.2169C128.371 48.9032 129.264 51.1011 131.08 52.8716C132.895 54.6116 135.366 55.4969 138.521 55.4969C141.676 55.4969 141.973 55.1611 143.551 54.459C145.128 53.7569 146.587 52.7495 147.985 51.3453C148.045 51.4979 148.134 51.8337 148.283 52.3221C148.581 53.3905 148.849 54.2147 149.057 54.7642H157.063C156.349 53.2684 155.873 51.8642 155.605 50.5516V50.6126ZM147.36 41.4242C147.36 43.4084 147.241 44.7516 147.033 45.4537C146.735 46.5526 146.081 47.4379 145.098 48.2011C143.789 49.1779 142.39 49.6663 140.931 49.6663C139.473 49.6663 138.55 49.239 137.717 48.3842C136.884 47.5295 136.437 46.5221 136.437 45.3621C136.437 44.2021 136.973 43.1947 138.015 42.4316C138.699 41.9432 140.158 41.4853 142.42 40.9969C144.652 40.5084 146.319 40.0811 147.331 39.7148V41.3632L147.36 41.4242Z" fill="#232734"/>
  <path d="M175.309 22.7726C173.999 22.7726 172.838 23.1084 171.797 23.78C170.755 24.4516 169.624 25.8253 168.314 27.9316V23.4748H160.814V54.9169H168.909V45.1484C168.909 39.8063 169.148 36.3263 169.594 34.6474C170.04 32.9684 170.665 31.8084 171.439 31.1674C172.243 30.5263 173.195 30.2211 174.326 30.2211C175.457 30.2211 176.767 30.679 178.136 31.5642L180.636 24.3295C178.94 23.2916 177.154 22.7726 175.309 22.7726Z" fill="#232734"/>
  <path d="M122.776 11.661V55.5579H114.442V17.7968C114.442 16.1484 115.275 14.6221 116.644 13.7368L121.317 10.8063C121.942 10.4095 122.776 10.8674 122.776 11.661Z" fill="#232734"/>
  <path fill-rule="evenodd" clip-rule="evenodd" d="M36.9666 36.601H28.3648C27.8886 36.601 27.2636 36.9979 26.9957 37.4863L25.0908 40.8137C24.7932 41.3021 24.9718 41.6989 25.448 41.6989H34.0497C34.5259 41.6989 35.151 41.3021 35.4189 40.8137L37.3237 37.4863C37.5916 36.9979 37.4428 36.601 36.9666 36.601Z" fill="#232734"/>
  <path d="M88.5472 23.3221V23.5358H87.8329C88.071 23.4747 88.3091 23.3832 88.5472 23.3221Z" fill="#232734"/>
  <path d="M90.1544 22.9863V23.139L89.7675 23.5358H88.6663V23.2916C89.1722 23.1695 89.6485 23.0779 90.1544 22.9863Z" fill="#232734"/>
  <path d="M92.1487 22.8032V23.5358H91.0474L90.6605 23.139V22.9253C91.1367 22.8642 91.6427 22.8337 92.1487 22.8032Z" fill="#232734"/>
  <path d="M93.7261 22.8032V23.5358H92.2379V22.8032C92.476 22.8032 92.6844 22.8032 92.9225 22.8032C93.1606 22.8032 93.4582 22.8032 93.7261 22.8032Z" fill="#232734"/>
  <path d="M95.3333 22.9253V23.1084L94.9464 23.5053H93.8452V22.7726C94.3511 22.7726 94.8571 22.8337 95.3333 22.8947V22.9253Z" fill="#232734"/>
  <path d="M97.3275 23.2916V23.5053H96.2263L95.8394 23.1084V22.9863C96.3453 23.0779 96.8513 23.1695 97.3275 23.2916Z" fill="#232734"/>
  <path d="M98.0716 23.5053H97.4168V23.3221C97.6549 23.3832 97.8633 23.4442 98.0716 23.5053Z" fill="#232734"/>
  <path d="M81.7611 27.1074V28.6337H80.6598L80.5408 28.5116C80.9277 28.0231 81.3444 27.5347 81.7611 27.1074Z" fill="#232734"/>
  <path d="M83.3683 25.7337V28.6337H81.8801V27.0158C82.3563 26.5579 82.8326 26.1305 83.3683 25.7337Z" fill="#232734"/>
  <path d="M84.9756 24.7263V28.2368L84.5886 28.6337H83.4874V25.6726C83.9041 25.3674 84.3505 25.0926 84.8267 24.8179C84.8863 24.7874 84.9458 24.7568 85.0053 24.7263H84.9756Z" fill="#232734"/>
  <path d="M86.9698 24.0242V28.6337H85.8685L85.4816 28.2368V24.4821C85.809 24.3295 86.1364 24.1768 86.4638 24.0242H86.9698Z" fill="#232734"/>
  <path d="M88.5472 24.0242H87.059V28.6337H88.5472V24.0242Z" fill="#232734"/>
  <path d="M88.6663 24.0242V28.6337H89.7675L90.1544 28.2368V24.421L89.7675 24.0242H88.6663Z" fill="#232734"/>
  <path d="M92.1486 28.6337V24.0242H91.0176L90.6307 24.421V28.2368L91.0176 28.6337H92.1486Z" fill="#232734"/>
  <path d="M93.7261 24.0242H92.2379V28.6337H93.7261V24.0242Z" fill="#232734"/>
  <path d="M93.8452 24.0242V28.6337H94.9464L95.3333 28.2368V24.421L94.9464 24.0242H93.8452Z" fill="#232734"/>
  <path d="M97.3275 28.6337V24.0242H96.1965L95.8096 24.421V28.2368L96.1965 28.6337H97.3275Z" fill="#232734"/>
  <path d="M98.905 24.0242H97.4168V28.6337H98.905V24.0242Z" fill="#232734"/>
  <path d="M100.512 24.5126V28.2063L100.125 28.6032H99.024V23.9937H99.4705C99.8277 24.1463 100.185 24.3295 100.542 24.5126H100.512Z" fill="#232734"/>
  <path d="M102.506 25.7947V28.6337H101.405L101.018 28.2368V24.7874C101.554 25.0926 102.03 25.4284 102.506 25.7947Z" fill="#232734"/>
  <path d="M104.084 27.1989V28.6337H102.596V25.8558C103.132 26.2526 103.608 26.7105 104.084 27.1989Z" fill="#232734"/>
  <path d="M105.334 28.6032H105.304C105.304 28.6337 104.203 28.6337 104.203 28.6337V27.2905C104.233 27.3211 104.263 27.3516 104.292 27.3821C104.649 27.7789 105.007 28.1758 105.334 28.5726V28.6032Z" fill="#232734"/>
  <path d="M78.1894 32.999V33.7621H77.9215C78.0108 33.5179 78.0703 33.2432 78.1894 32.999Z" fill="#232734"/>
  <path d="M79.7967 29.6411V33.3653L79.4097 33.7621H78.3085V32.7242C78.5763 32.0527 78.8442 31.3811 79.2014 30.74C79.38 30.3737 79.5883 30.0074 79.8264 29.6411H79.7967Z" fill="#232734"/>
  <path d="M81.761 33.7621V29.1221H80.6598L80.2728 29.519V33.3653L80.6598 33.7621H81.761Z" fill="#232734"/>
  <path d="M83.3683 29.1221H81.8801V33.7316H83.3683V29.1221Z" fill="#232734"/>
  <path d="M83.4575 29.1221V33.7621H84.5885L84.9755 33.3653V29.519L84.5885 29.1221H83.4575Z" fill="#232734"/>
  <path d="M86.9697 29.1221V32.9379C86.8209 33.1821 86.6721 33.4569 86.5232 33.7621H85.8684L85.4815 33.3653V29.5495L85.8684 29.1527H86.9697V29.1221Z" fill="#232734"/>
  <path d="M88.5472 29.1221V31.1063C88.2198 31.3811 87.9221 31.6863 87.6245 32.0221C87.4162 32.2663 87.2078 32.5106 87.0292 32.7853V29.1221H88.5174H88.5472Z" fill="#232734"/>
  <path d="M90.1544 29.519V30.099C89.6186 30.3432 89.1127 30.6484 88.6662 31.0148V29.1221H89.7675L90.1544 29.519Z" fill="#232734"/>
  <path d="M92.1486 29.1221V29.58C91.6128 29.6411 91.1366 29.7632 90.6604 29.9158V29.519L91.0473 29.1221H92.1486Z" fill="#232734"/>
  <path d="M93.726 29.1221V29.5495C93.4879 29.5495 93.2201 29.519 92.9522 29.519C92.6843 29.519 92.476 29.519 92.2379 29.5495V29.1221H93.726Z" fill="#232734"/>
  <path d="M95.3333 29.519V29.9158C94.8571 29.7327 94.3511 29.6106 93.8451 29.58V29.1221H94.9464L95.3333 29.519Z" fill="#232734"/>
  <path d="M97.3275 29.1221V31.0758C96.8513 30.679 96.3453 30.3737 95.8393 30.1295V29.519L96.2262 29.1221H97.3275Z" fill="#232734"/>
  <path d="M98.905 29.1221V32.8769C98.6966 32.5716 98.4883 32.2663 98.2502 31.9916C97.9823 31.6863 97.6847 31.3811 97.387 31.1369V29.1221H98.8752H98.905Z" fill="#232734"/>
  <path d="M100.512 29.519V33.3348L100.125 33.7316H99.3812C99.2621 33.4874 99.1431 33.2432 98.9943 33.0295V29.1221H100.096L100.482 29.519H100.512Z" fill="#232734"/>
  <path d="M102.506 33.7621V29.1221H101.375L100.988 29.519V33.3653L101.375 33.7621H102.506Z" fill="#232734"/>
  <path d="M104.084 29.1221H102.596V33.7316H104.084V29.1221Z" fill="#232734"/>
  <path d="M104.203 29.1221V33.7621H105.304L105.691 33.3653V29.519L105.304 29.1221H104.203Z" fill="#232734"/>
  <path d="M107.685 32.7853V33.7621H106.584L106.197 33.3653V29.7937C106.792 30.74 107.298 31.7474 107.685 32.8158V32.7853Z" fill="#232734"/>
  <path d="M108.013 33.7621H107.804V33.06C107.894 33.3042 107.953 33.5179 108.013 33.7621Z" fill="#232734"/>
  <path d="M78.1894 34.2505V38.86H77.1774C77.1774 38.799 77.1774 38.7684 77.1774 38.7074C77.1774 37.1811 77.3858 35.7158 77.7727 34.2505H78.1596H78.1894Z" fill="#232734"/>
  <path d="M78.2787 34.2505V38.86H79.4097L79.7966 38.4632V34.6474L79.4097 34.2505H78.2787Z" fill="#232734"/>
  <path d="M81.7611 38.86V34.2505H80.6598L80.2729 34.6474V38.4632L80.6598 38.86H81.7611Z" fill="#232734"/>
  <path d="M83.3683 34.2505H81.8801V38.86H83.3683V34.2505Z" fill="#232734"/>
  <path d="M83.4576 34.2505V38.86H84.5886L84.9755 38.4632V34.6474L84.5886 34.2505H83.4576Z" fill="#232734"/>
  <path d="M86.2852 34.2505C85.8089 35.4411 85.5411 36.8758 85.4815 38.4937H85.4518V34.6474L85.8387 34.2505H86.2852Z" fill="#232734"/>
  <path d="M100.512 34.6474V38.4632L100.393 38.5853C100.334 36.9369 100.096 35.4716 99.5895 34.2505H100.125L100.512 34.6474Z" fill="#232734"/>
  <path d="M102.506 38.86V34.2505H101.375L100.988 34.6474V38.4632L101.375 38.86H102.506Z" fill="#232734"/>
  <path d="M104.084 34.2505H102.596V38.86H104.084V34.2505Z" fill="#232734"/>
  <path d="M104.203 34.2505V38.86H105.304L105.691 38.4632V34.6474L105.304 34.2505H104.203Z" fill="#232734"/>
  <path d="M107.685 38.86V34.2505H106.554L106.167 34.6474V38.4632L106.554 38.86H107.685Z" fill="#232734"/>
  <path d="M108.727 38.86H107.775V34.2505H108.132C108.519 35.6853 108.697 37.2421 108.727 38.86Z" fill="#232734"/>
  <path d="M78.1894 39.379V43.9884H77.743C77.4156 42.5842 77.237 41.0274 77.2072 39.379H78.1894Z" fill="#232734"/>
  <path d="M78.2787 39.379V43.9884H79.4097L79.7966 43.5916V39.7758L79.4097 39.379H78.2787Z" fill="#232734"/>
  <path d="M81.7611 43.9884V39.379H80.6598L80.2729 39.7758V43.5916L80.6598 43.9884H81.7611Z" fill="#232734"/>
  <path d="M83.3683 39.379H81.8801V43.9884H83.3683V39.379Z" fill="#232734"/>
  <path d="M83.4576 39.379V43.9884H84.5886L84.9755 43.5916V39.7758L84.5886 39.379H83.4576Z" fill="#232734"/>
  <path d="M86.2554 43.9885H85.8387L85.4518 43.5916V39.7758C85.5113 41.3632 85.7494 42.7979 86.2256 43.9885H86.2554Z" fill="#232734"/>
  <path d="M100.512 39.7758V43.5916L100.125 43.9884H99.6193C100.096 42.7674 100.363 41.3326 100.393 39.6537L100.512 39.7758Z" fill="#232734"/>
  <path d="M102.506 43.9884V39.379H101.375L100.988 39.7758V43.5916L101.375 43.9884H102.506Z" fill="#232734"/>
  <path d="M104.084 39.379H102.596V43.9884H104.084V39.379Z" fill="#232734"/>
  <path d="M104.203 39.379V43.9884H105.304L105.691 43.5916V39.7758L105.304 39.379H104.203Z" fill="#232734"/>
  <path d="M107.685 43.9884V39.379H106.554L106.167 39.7758V43.5916L106.554 43.9884H107.685Z" fill="#232734"/>
  <path d="M108.727 39.379C108.727 41.0274 108.489 42.5537 108.132 43.9884H107.775V39.379H108.727Z" fill="#232734"/>
  <path d="M78.1894 44.4769V45.5453C78.0703 45.2095 77.9513 44.8432 77.862 44.4769H78.1894Z" fill="#232734"/>
  <path d="M79.7966 44.8737V48.6895L79.7073 48.7811C79.5288 48.4758 79.3502 48.1706 79.1716 47.8653C78.8442 47.2242 78.5466 46.5527 78.2787 45.8506V44.4769H79.3799L79.7669 44.8737H79.7966Z" fill="#232734"/>
  <path d="M81.7611 49.0863V44.4769H80.6598L80.2729 44.8737V48.6895L80.6598 49.0863H81.7611Z" fill="#232734"/>
  <path d="M83.3683 44.4769H81.8801V49.0863H83.3683V44.4769Z" fill="#232734"/>
  <path d="M83.4576 44.4769V49.0863H84.5886L84.9755 48.6895V44.8737L84.5886 44.4769H83.4576Z" fill="#232734"/>
  <path d="M86.9697 45.3926V49.1169H85.8684L85.4815 48.72V44.9042L85.8684 44.5074H86.4935C86.6423 44.8126 86.7911 45.1179 86.9697 45.4232V45.3926Z" fill="#232734"/>
  <path d="M88.5471 47.1937V49.0863H87.059V45.5147C87.2375 45.7895 87.4161 46.0337 87.6542 46.2779C87.9519 46.6137 88.2495 46.919 88.5769 47.1937H88.5471Z" fill="#232734"/>
  <path d="M90.1544 48.2011V48.6895L89.7675 49.0863H88.6662V47.2853C89.1424 47.6516 89.6484 47.9874 90.1544 48.2011Z" fill="#232734"/>
  <path d="M92.1486 48.72V49.0864H91.0473L90.6604 48.6895V48.3842C91.1366 48.5369 91.6426 48.659 92.1486 48.72Z" fill="#232734"/>
  <path d="M93.726 48.7505V49.1169H92.2379V48.7505C92.476 48.7505 92.7141 48.7811 92.9522 48.7811C93.1903 48.7811 93.4879 48.7811 93.726 48.7505Z" fill="#232734"/>
  <path d="M95.3333 48.3842V48.6895L94.9464 49.0864H93.8451V48.72C94.3808 48.659 94.8571 48.5369 95.3333 48.3842Z" fill="#232734"/>
  <path d="M97.3275 47.2242V49.0864H96.2262L95.8393 48.6895V48.1706C96.375 47.9264 96.881 47.6211 97.3275 47.2242Z" fill="#232734"/>
  <path d="M98.9049 45.4232V49.0864H97.4167V47.1327C97.7144 46.8885 98.012 46.5832 98.2799 46.2779C98.518 46.0032 98.7264 45.6979 98.9347 45.3927L98.9049 45.4232Z" fill="#232734"/>
  <path d="M100.512 44.8737V48.6895L100.125 49.0863H99.024V45.24C99.1729 44.9958 99.3217 44.7211 99.4407 44.4464H100.155L100.542 44.8432L100.512 44.8737Z" fill="#232734"/>
  <path d="M102.506 49.0863V44.4769H101.375L100.988 44.8737V48.6895L101.375 49.0863H102.506Z" fill="#232734"/>
  <path d="M104.084 44.4769H102.596V49.0863H104.084V44.4769Z" fill="#232734"/>
  <path d="M104.203 44.4769V49.0863H105.304L105.691 48.6895V44.8737L105.304 44.4769H104.203Z" fill="#232734"/>
  <path d="M107.685 44.4769V45.3927C107.298 46.4611 106.792 47.4684 106.197 48.4148V44.8737L106.584 44.4769H107.685Z" fill="#232734"/>
  <path d="M107.983 44.4769C107.923 44.6906 107.864 44.9042 107.775 45.0874V44.4769H107.983Z" fill="#232734"/>
  <path d="M81.7611 49.6053V51.3453C81.2848 50.8874 80.8086 50.3684 80.4217 49.8495L80.6598 49.6053H81.7611Z" fill="#232734"/>
  <path d="M83.3683 49.6053V52.6579C82.8326 52.2916 82.3266 51.8947 81.8801 51.4368V49.6053H83.3683Z" fill="#232734"/>
  <path d="M84.9756 50.0021V53.6042C84.4398 53.3295 83.9338 53.0242 83.4874 52.7189V49.6053H84.5886L84.9756 50.0021Z" fill="#232734"/>
  <path d="M86.9697 49.6053V54.2147H86.3447C86.0768 54.0926 85.7792 53.9705 85.5113 53.8484V50.0021L85.8982 49.6053H86.9995H86.9697Z" fill="#232734"/>
  <path d="M88.5472 49.6053H87.059V54.2147H88.5472V49.6053Z" fill="#232734"/>
  <path d="M88.6663 49.6053V54.2147H89.7675L90.1544 53.8179V50.0021L89.7675 49.6053H88.6663Z" fill="#232734"/>
  <path d="M92.1486 54.2147V49.6053H91.0176L90.6307 50.0021V53.8179L91.0176 54.2147H92.1486Z" fill="#232734"/>
  <path d="M93.7261 49.6053H92.2379V54.2147H93.7261V49.6053Z" fill="#232734"/>
  <path d="M93.8452 49.6053V54.2147H94.9464L95.3333 53.8179V50.0021L94.9464 49.6053H93.8452Z" fill="#232734"/>
  <path d="M97.3275 54.2147V49.6053H96.1965L95.8096 50.0021V53.8179L96.1965 54.2147H97.3275Z" fill="#232734"/>
  <path d="M98.905 49.6053H97.4168V54.2147H98.905V49.6053Z" fill="#232734"/>
  <path d="M100.512 50.0021V53.7568C100.215 53.9095 99.8872 54.0926 99.5598 54.2147H98.9943V49.6053H100.096L100.483 50.0021H100.512Z" fill="#232734"/>
  <path d="M102.506 49.6053V52.4442C102.03 52.8105 101.524 53.1463 101.018 53.4516V49.9716L101.405 49.5747H102.506V49.6053Z" fill="#232734"/>
  <path d="M104.084 49.6053V51.04C103.608 51.5284 103.102 51.9863 102.596 52.3832V49.6053H104.084Z" fill="#232734"/>
  <path d="M105.334 49.6053C105.007 50.0326 104.649 50.46 104.263 50.8568L104.203 50.9179V49.6053H105.334Z" fill="#232734"/>
  <path d="M88.5472 54.7032V54.9474C88.2495 54.8863 87.9817 54.7948 87.684 54.7032H88.5472Z" fill="#232734"/>
  <path d="M90.1544 55.1V55.2832C89.6484 55.1916 89.1424 55.1 88.6662 54.9779V54.7032H89.7675L90.1544 55.1Z" fill="#232734"/>
  <path d="M92.1486 54.7032V55.4969C91.6426 55.4969 91.1366 55.4358 90.6604 55.3748V55.1L91.0473 54.7032H92.1486Z" fill="#232734"/>
  <path d="M93.726 54.7032V55.4969C93.4879 55.4969 93.2201 55.4969 92.9819 55.4969C92.7438 55.4969 92.476 55.4969 92.2379 55.4969V54.7032H93.726Z" fill="#232734"/>
  <path d="M95.3333 55.1V55.3748C94.8571 55.4358 94.3511 55.4969 93.8451 55.4969V54.7032H94.9464L95.3333 55.1Z" fill="#232734"/>
  <path d="M97.3275 54.7032V55.0084C96.8513 55.1306 96.3453 55.2527 95.8393 55.3137V55.1L96.2262 54.7032H97.3275Z" fill="#232734"/>
  <path d="M98.2799 54.7032C97.9823 54.7948 97.7144 54.8863 97.4167 54.9779V54.7032H98.2799Z" fill="#232734"/>
  <path d="M99.2919 71.5537H98.1312V61.0221H99.3812V64.7768C99.917 64.1053 100.602 63.7389 101.435 63.7389C102.268 63.7389 102.328 63.8305 102.745 64.0137C103.161 64.1968 103.489 64.4716 103.757 64.8074C104.024 65.1432 104.233 65.5705 104.382 66.0589C104.53 66.5474 104.62 67.0663 104.62 67.6158C104.62 68.9284 104.292 69.9358 103.667 70.6379C103.042 71.34 102.268 71.7063 101.405 71.7063C100.542 71.7063 99.8277 71.34 99.3515 70.5768V71.5232L99.2919 71.5537ZM99.2622 67.6768C99.2622 68.5926 99.3812 69.2642 99.6194 69.661C100.006 70.3326 100.542 70.6684 101.227 70.6684C101.911 70.6684 102.268 70.4242 102.655 69.9358C103.042 69.4474 103.251 68.7147 103.251 67.7379C103.251 66.761 103.072 65.9979 102.685 65.54C102.298 65.0516 101.822 64.8379 101.286 64.8379C100.75 64.8379 100.244 65.0821 99.8575 65.5705C99.4705 66.0589 99.2622 66.761 99.2622 67.7074V67.6768Z" fill="#232734"/>
  <path d="M106.048 74.4842L105.9 73.2632C106.167 73.3242 106.406 73.3853 106.614 73.3853C106.822 73.3853 107.12 73.3242 107.298 73.2326C107.477 73.1411 107.596 72.9884 107.715 72.8358C107.804 72.7137 107.923 72.3779 108.102 71.859C108.102 71.7979 108.162 71.6758 108.221 71.5537L105.394 63.9221H106.763L108.31 68.3484C108.519 68.8979 108.697 69.5084 108.846 70.119C108.995 69.539 109.174 68.959 109.352 68.379L110.93 63.9221H112.18L109.352 71.6758C109.054 72.5 108.816 73.08 108.638 73.4158C108.4 73.8432 108.162 74.1484 107.864 74.3621C107.566 74.5758 107.239 74.6674 106.822 74.6674C106.406 74.6674 106.316 74.6063 106.019 74.5148L106.048 74.4842Z" fill="#232734"/>
  <path d="M117.567 71.5537V64.9295H116.466V63.9221H117.567V63.0979C117.567 62.579 117.597 62.2126 117.686 61.9684C117.805 61.6326 118.013 61.3579 118.341 61.1442C118.638 60.9305 119.085 60.839 119.621 60.839C120.156 60.839 120.365 60.8695 120.811 60.9611L120.633 62.0905C120.365 62.0295 120.127 62.0295 119.888 62.0295C119.502 62.0295 119.234 62.1211 119.085 62.2737C118.936 62.4569 118.847 62.7621 118.847 63.22V63.9221H120.305V64.9295H118.847V71.5537H117.597H117.567Z" fill="#232734"/>
  <path d="M126.109 70.6074C125.633 71.0042 125.186 71.3095 124.77 71.4621C124.323 71.6147 123.877 71.7063 123.371 71.7063C122.567 71.7063 121.912 71.4926 121.496 71.0958C121.049 70.699 120.841 70.1495 120.841 69.539C120.841 68.9284 120.93 68.8368 121.079 68.5011C121.258 68.1958 121.466 67.9516 121.734 67.7684C122.002 67.5853 122.299 67.4326 122.627 67.3411C122.865 67.28 123.252 67.219 123.758 67.1579C124.77 67.0358 125.514 66.8832 126.02 66.7C126.02 66.5168 126.02 66.4253 126.02 66.3642C126.02 65.8453 125.901 65.479 125.663 65.2653C125.335 64.96 124.859 64.8379 124.234 64.8379C123.609 64.8379 123.192 64.9295 122.924 65.1432C122.627 65.3568 122.418 65.7232 122.299 66.2726L121.079 66.0895C121.198 65.54 121.377 65.1126 121.645 64.7768C121.912 64.4411 122.27 64.1968 122.746 64.0137C123.222 63.8305 123.788 63.739 124.442 63.739C125.097 63.739 125.603 63.8305 125.99 63.9832C126.377 64.1358 126.675 64.319 126.853 64.5632C127.032 64.8074 127.181 65.0821 127.24 65.4484C127.27 65.6621 127.3 66.059 127.3 66.639V68.379C127.3 69.5695 127.3 70.3326 127.389 70.6684C127.449 70.9737 127.538 71.279 127.716 71.5842H126.407C126.288 71.3095 126.198 71.0042 126.169 70.6379L126.109 70.6074ZM125.99 67.7379C125.544 67.9211 124.859 68.1042 123.936 68.2263C123.43 68.2874 123.043 68.379 122.835 68.4705C122.627 68.5621 122.448 68.7147 122.329 68.8979C122.21 69.0811 122.151 69.2947 122.151 69.5084C122.151 69.8442 122.27 70.1495 122.537 70.3632C122.805 70.6074 123.163 70.699 123.669 70.699C124.174 70.699 124.591 70.5768 124.978 70.3632C125.365 70.1495 125.633 69.8442 125.811 69.4779C125.96 69.1726 126.02 68.7453 126.02 68.1958V67.7074L125.99 67.7379Z" fill="#232734"/>
  <path d="M129.205 71.5537V63.9221H130.336V65.0821C130.633 64.5326 130.901 64.1968 131.139 64.0137C131.377 63.8305 131.645 63.7695 131.943 63.7695C132.359 63.7695 132.806 63.9221 133.252 64.1968L132.806 65.3874C132.508 65.2042 132.181 65.1126 131.883 65.1126C131.586 65.1126 131.348 65.2042 131.139 65.3568C130.931 65.5095 130.752 65.7537 130.663 66.0589C130.514 66.5168 130.455 67.0358 130.455 67.5547V71.5537H129.205Z" fill="#232734"/>
  <path d="M133.997 71.5537V63.9221H135.128V64.9905C135.366 64.6242 135.663 64.3189 136.05 64.0747C136.437 63.8611 136.884 63.739 137.36 63.739C137.836 63.739 138.372 63.8611 138.729 64.1053C139.086 64.3495 139.324 64.6547 139.473 65.0821C140.068 64.1968 140.842 63.739 141.765 63.739C142.688 63.739 143.074 63.9526 143.461 64.38C143.848 64.8074 144.057 65.4484 144.057 66.3032V71.5537H142.807V66.7611C142.807 66.2421 142.777 65.8758 142.688 65.6316C142.598 65.4179 142.449 65.2347 142.241 65.0821C142.033 64.9295 141.765 64.8684 141.497 64.8684C140.961 64.8684 140.545 65.0516 140.187 65.4179C139.83 65.7842 139.681 66.3337 139.681 67.1274V71.5537H138.431V66.6084C138.431 66.0284 138.342 65.6011 138.134 65.3263C137.925 65.0516 137.598 64.899 137.122 64.899C136.645 64.899 136.437 64.9905 136.14 65.1737C135.842 65.3568 135.634 65.6316 135.485 66.0284C135.336 66.3947 135.276 66.9137 135.276 67.6158V71.5842H134.026L133.997 71.5537Z" fill="#232734"/>
  <path d="M145.962 71.5537V61.0221H147.212V67.0358L150.188 63.9221H151.825L148.968 66.761L152.093 71.5537H150.545L148.075 67.6463L147.182 68.5316V71.5537H145.932H145.962Z" fill="#232734"/>
  <path d="M157.986 70.6074C157.51 71.0042 157.063 71.3095 156.647 71.4621C156.2 71.6147 155.754 71.7063 155.248 71.7063C154.444 71.7063 153.789 71.4926 153.373 71.0958C152.926 70.699 152.718 70.1495 152.718 69.539C152.718 68.9284 152.807 68.8368 152.956 68.5011C153.135 68.1958 153.343 67.9516 153.611 67.7684C153.879 67.5853 154.176 67.4326 154.504 67.3411C154.742 67.28 155.129 67.219 155.635 67.1579C156.647 67.0358 157.391 66.8832 157.897 66.7C157.897 66.5168 157.897 66.4253 157.897 66.3642C157.897 65.8453 157.778 65.479 157.54 65.2653C157.212 64.96 156.736 64.8379 156.111 64.8379C155.486 64.8379 155.069 64.9295 154.801 65.1432C154.504 65.3568 154.295 65.7232 154.176 66.2726L152.956 66.0895C153.075 65.54 153.254 65.1126 153.522 64.7768C153.789 64.4411 154.147 64.1968 154.623 64.0137C155.099 63.8305 155.665 63.739 156.319 63.739C156.974 63.739 157.48 63.8305 157.867 63.9832C158.254 64.1358 158.552 64.319 158.73 64.5632C158.909 64.8074 159.058 65.0821 159.117 65.4484C159.147 65.6621 159.177 66.059 159.177 66.639V68.379C159.177 69.5695 159.177 70.3326 159.266 70.6684C159.326 70.9737 159.415 71.279 159.593 71.5842H158.284C158.165 71.3095 158.075 71.0042 158.046 70.6379L157.986 70.6074ZM157.867 67.7379C157.421 67.9211 156.736 68.1042 155.813 68.2263C155.307 68.2874 154.92 68.379 154.712 68.4705C154.504 68.5621 154.325 68.7147 154.206 68.8979C154.087 69.0811 154.028 69.2947 154.028 69.5084C154.028 69.8442 154.147 70.1495 154.414 70.3632C154.682 70.6074 155.04 70.699 155.546 70.699C156.051 70.699 156.468 70.5768 156.855 70.3632C157.242 70.1495 157.51 69.8442 157.689 69.4779C157.837 69.1726 157.897 68.7453 157.897 68.1958V67.7074L157.867 67.7379Z" fill="#232734"/>
  <path d="M161.082 71.5537V63.9221H162.213V65.0821C162.51 64.5326 162.778 64.1968 163.016 64.0137C163.254 63.8305 163.522 63.7695 163.82 63.7695C164.237 63.7695 164.683 63.9221 165.129 64.1968L164.683 65.3874C164.385 65.2042 164.058 65.1126 163.76 65.1126C163.463 65.1126 163.225 65.2042 163.016 65.3568C162.808 65.5095 162.629 65.7537 162.54 66.0589C162.391 66.5168 162.332 67.0358 162.332 67.5547V71.5537H161.082Z" fill="#232734"/>
  <path d="M168.642 70.3937L168.82 71.5232C168.463 71.6147 168.136 71.6453 167.868 71.6453C167.421 71.6453 167.064 71.5842 166.796 71.4316C166.528 71.279 166.38 71.0958 166.26 70.8516C166.171 70.6074 166.112 70.0884 166.112 69.3253V64.9295H165.189V63.9221H166.112V62.0295L167.362 61.2663V63.9221H168.642V64.9295H167.362V69.3863C167.362 69.7526 167.362 69.9969 167.421 70.0884C167.451 70.18 167.54 70.2716 167.63 70.3326C167.719 70.3937 167.868 70.4242 168.046 70.4242C168.225 70.4242 168.374 70.4242 168.612 70.3632L168.642 70.3937Z" fill="#232734"/>
</svg>