<svg xmlns="http://www.w3.org/2000/svg" width="20" height="20" viewBox="0 0 20 20" fill="none">
<g id="search">
<mask id="mask0_4770_683" style="mask-type:alpha" maskUnits="userSpaceOnUse" x="0" y="0" width="20" height="20">
<rect id="Bounding box" width="20" height="20" fill="#D9D9D9"/>
</mask>
<g mask="url(#mask0_4770_683)">
<path id="search_2" d="M7.8889 13.2083C6.38277 13.2083 5.10809 12.6863 4.06485 11.6424C3.02162 10.5984 2.5 9.33334 2.5 7.84723C2.5 6.36112 3.02199 5.09607 4.06598 4.05208C5.10995 3.0081 6.37731 2.4861 7.86806 2.4861C9.3588 2.4861 10.6238 3.0081 11.6632 4.05208C12.7025 5.09607 13.2222 6.36181 13.2222 7.84931C13.2222 8.44977 13.125 9.02546 12.9306 9.57639C12.7361 10.1273 12.4537 10.6343 12.0833 11.0972L17 15.9861C17.1343 16.1163 17.2014 16.2819 17.2014 16.483C17.2014 16.6842 17.1343 16.8519 17 16.9861C16.8657 17.1204 16.698 17.1875 16.4969 17.1875C16.2958 17.1875 16.1302 17.1204 16 16.9861L11.0972 12.0833C10.6806 12.4352 10.197 12.7106 9.6464 12.9097C9.09585 13.1088 8.51002 13.2083 7.8889 13.2083ZM7.875 11.8195C8.97454 11.8195 9.90915 11.4317 10.6788 10.6562C11.4485 9.88079 11.8333 8.94445 11.8333 7.84723C11.8333 6.74999 11.4485 5.81364 10.6788 5.03819C9.90915 4.26273 8.97454 3.875 7.875 3.875C6.76775 3.875 5.82658 4.26273 5.0515 5.03819C4.27642 5.81364 3.88887 6.74999 3.88887 7.84723C3.88887 8.94445 4.27642 9.88079 5.0515 10.6562C5.82658 11.4317 6.76775 11.8195 7.875 11.8195Z" fill="#7E7E7E"/>
</g>
</g>
</svg>