<svg width="40" height="40" viewBox="0 0 40 40" fill="none" xmlns="http://www.w3.org/2000/svg">
<g id="Share">
<mask id="mask0_5886_173" style="mask-type:alpha" maskUnits="userSpaceOnUse" x="0" y="0" width="40" height="40">
<rect id="Bounding box" width="40" height="40" fill="#D9D9D9"/>
</mask>
<g mask="url(#mask0_5886_173)">
<path id="share" d="M30.1945 36.6663C28.8518 36.6663 27.7106 36.1955 26.7708 35.2539C25.831 34.3123 25.3611 33.169 25.3611 31.8238C25.3611 31.6355 25.3796 31.4173 25.4167 31.1693C25.4537 30.9213 25.5093 30.6981 25.5833 30.4997L13.25 23.333C12.8148 23.7867 12.2963 24.1501 11.6945 24.4233C11.0926 24.6964 10.4722 24.833 9.83333 24.833C8.49075 24.833 7.34954 24.3631 6.40971 23.4233C5.4699 22.4835 5 21.3423 5 19.9997C5 18.6571 5.4699 17.5159 6.40971 16.5761C7.34954 15.6362 8.49075 15.1663 9.83333 15.1663C10.4722 15.1663 11.0833 15.289 11.6667 15.5344C12.25 15.7798 12.7778 16.1293 13.25 16.583L25.5833 9.47188C25.5093 9.28538 25.4537 9.07556 25.4167 8.84243C25.3796 8.60929 25.3611 8.38392 25.3611 8.16634C25.3611 6.82376 25.831 5.68255 26.7708 4.74272C27.7106 3.80291 28.8518 3.33301 30.1945 3.33301C31.537 3.33301 32.6782 3.80291 33.618 4.74272C34.5579 5.68255 35.0278 6.82376 35.0278 8.16634C35.0278 9.50893 34.5579 10.6501 33.618 11.5899C32.6782 12.5298 31.537 12.9997 30.1945 12.9997C29.549 12.9997 28.9316 12.8909 28.3423 12.6733C27.753 12.4557 27.2407 12.12 26.8055 11.6663L14.4722 18.6108C14.5278 18.8145 14.5741 19.0483 14.6111 19.3122C14.6481 19.5761 14.6667 19.8075 14.6667 20.0064C14.6667 20.2053 14.6481 20.4113 14.6111 20.6244C14.5741 20.8376 14.5278 21.046 14.4722 21.2497L26.8055 28.3053C27.2407 27.9071 27.7407 27.59 28.3055 27.3538C28.8704 27.1177 29.5 26.9997 30.1945 26.9997C31.537 26.9997 32.6782 27.4696 33.618 28.4094C34.5579 29.3492 35.0278 30.4904 35.0278 31.833C35.0278 33.1756 34.5579 34.3168 33.618 35.2566C32.6782 36.1964 31.537 36.6663 30.1945 36.6663Z" fill="#242734"/>
</g>
</g>
</svg>
