<svg width="40" height="40" viewBox="0 0 40 40" fill="none" xmlns="http://www.w3.org/2000/svg">
<g id="Profile/Signup">
<mask id="mask0_5886_136" style="mask-type:alpha" maskUnits="userSpaceOnUse" x="0" y="0" width="40" height="40">
<rect id="Bounding box" width="40" height="40" fill="#D9D9D9"/>
</mask>
<g mask="url(#mask0_5886_136)">
<path id="person" d="M19.9998 19.9721C18.1665 19.9721 16.6434 19.3656 15.4304 18.1527C14.2174 16.9397 13.611 15.4165 13.611 13.5832C13.611 11.7499 14.2174 10.2267 15.4304 9.01379C16.6434 7.80082 18.1665 7.19434 19.9998 7.19434C21.8332 7.19434 23.3563 7.80082 24.5693 9.01379C25.7822 10.2267 26.3887 11.7499 26.3887 13.5832C26.3887 15.4165 25.7822 16.9397 24.5693 18.1527C23.3563 19.3656 21.8332 19.9721 19.9998 19.9721ZM6.6665 30.5555V29.1665C6.6665 28.148 6.92345 27.2569 7.43734 26.493C7.95123 25.7291 8.62021 25.148 9.4443 24.7499C11.2591 23.9073 13.0322 23.2754 14.7637 22.854C16.4952 22.4328 18.2406 22.2221 19.9998 22.2221C21.7591 22.2221 23.4998 22.4374 25.222 22.868C26.9443 23.2985 28.7128 23.9258 30.5276 24.7499C31.3702 25.148 32.0484 25.7291 32.5623 26.493C33.0762 27.2569 33.3332 28.148 33.3332 29.1665V30.5555C33.3332 31.324 33.0623 31.979 32.5207 32.5207C31.979 33.0624 31.3239 33.3332 30.5554 33.3332H9.44425C8.67575 33.3332 8.02067 33.0624 7.479 32.5207C6.93734 31.979 6.6665 31.324 6.6665 30.5555Z" fill="#242734"/>
</g>
</g>
</svg>
