<svg xmlns="http://www.w3.org/2000/svg" width="24" height="24" viewBox="0 0 40 40" fill="none">
  <mask id="mask0_1859_3046" style="mask-type:alpha" maskUnits="userSpaceOnUse" x="0" y="0" width="40" height="40">
    <rect width="40" height="40" fill="#D9D9D9"/>
  </mask>
  <g mask="url(#mask0_1859_3046)">
    <path d="M9.78977 29.2438C11.3717 28.181 12.9874 27.3583 14.6368 26.7758C16.286 26.1931 18.0735 25.9017 19.9993 25.9017C21.9252 25.9017 23.7156 26.1931 25.3706 26.7758C27.0256 27.3583 28.6441 28.181 30.226 29.2438C31.3791 27.9282 32.2528 26.5008 32.8473 24.9617C33.4414 23.4225 33.7385 21.7686 33.7385 20C33.7385 16.1475 32.4118 12.8945 29.7585 10.2408C27.1049 7.58751 23.8518 6.26084 19.9993 6.26084C16.1468 6.26084 12.8938 7.58751 10.2402 10.2408C7.58685 12.8945 6.26018 16.1475 6.26018 20C6.26018 21.7686 6.56018 23.4225 7.16018 24.9617C7.76018 26.5008 8.63671 27.9282 9.78977 29.2438ZM19.9943 21.0471C18.4877 21.0471 17.2193 20.5304 16.1893 19.4971C15.1596 18.4638 14.6448 17.1938 14.6448 15.6871C14.6448 14.1807 15.1614 12.9125 16.1948 11.8825C17.2281 10.8525 18.498 10.3375 20.0043 10.3375C21.511 10.3375 22.7793 10.8542 23.8093 11.8875C24.8391 12.9208 25.3539 14.1908 25.3539 15.6975C25.3539 17.2039 24.8373 18.4721 23.8039 19.5021C22.7706 20.5321 21.5007 21.0471 19.9943 21.0471ZM19.9881 35.8333C17.7939 35.8333 15.7324 35.4199 13.8035 34.5929C11.8749 33.766 10.1971 32.6353 8.77018 31.2008C7.34324 29.7664 6.21921 28.0893 5.3981 26.1696C4.57671 24.2499 4.16602 22.1888 4.16602 19.9863C4.16602 17.7907 4.57949 15.7313 5.40643 13.8079C6.23338 11.8846 7.36407 10.2104 8.79851 8.78542C10.233 7.36014 11.91 6.23403 13.8298 5.40709C15.7495 4.58014 17.8106 4.16667 20.0131 4.16667C22.2087 4.16667 24.2681 4.58014 26.1914 5.40709C28.1148 6.23403 29.7889 7.36014 31.2139 8.78542C32.6392 10.2104 33.7653 11.8861 34.5923 13.8125C35.4192 15.7389 35.8327 17.7989 35.8327 19.9925C35.8327 22.1936 35.4192 24.2533 34.5923 26.1717C33.7653 28.09 32.6392 29.7664 31.2139 31.2008C29.7889 32.6353 28.112 33.766 26.1831 34.5929C24.2545 35.4199 22.1895 35.8333 19.9881 35.8333Z" fill="currentColor"/>
  </g>
</svg>