<svg width="20" height="20" viewBox="0 0 20 20" fill="none" xmlns="http://www.w3.org/2000/svg">
<g id="Star">
<mask id="mask0_4970_9100" style="mask-type:alpha" maskUnits="userSpaceOnUse" x="0" y="0" width="20" height="20">
<rect id="Bounding box" width="20" height="20" fill="#D9D9D9"/>
</mask>
<g mask="url(#mask0_4970_9100)">
<path id="star_rate" d="M7.43084 13.7503L10.0002 11.792L12.5696 13.7503L11.5558 10.5003L13.9308 8.91695H11.0558L10.0002 5.65299L8.94459 8.91695H6.06959L8.44459 10.5003L7.43084 13.7503ZM10.0002 13.5836L6.56959 16.2017C6.43542 16.3081 6.29653 16.3556 6.15292 16.344C6.00945 16.3325 5.87751 16.2874 5.75709 16.2086C5.63681 16.1299 5.54772 16.0234 5.4898 15.8892C5.43188 15.7549 5.42841 15.6045 5.47938 15.4378L6.79188 11.167L3.42376 8.75716C3.28487 8.66466 3.19695 8.54431 3.16001 8.39612C3.12292 8.24792 3.12751 8.11133 3.17376 7.98633C3.22015 7.86133 3.2989 7.7491 3.41001 7.64966C3.52112 7.55008 3.66001 7.50029 3.82667 7.50029H8.00022L9.33355 3.05591C9.38452 2.88924 9.47362 2.76306 9.60084 2.67737C9.7282 2.59167 9.86133 2.54883 10.0002 2.54883C10.1391 2.54883 10.2722 2.59167 10.3996 2.67737C10.5268 2.76306 10.6159 2.88924 10.6669 3.05591L12.0002 7.50029H16.1738C16.3404 7.50029 16.4793 7.55008 16.5904 7.64966C16.7015 7.7491 16.7803 7.86133 16.8267 7.98633C16.8729 8.11133 16.8775 8.24792 16.8404 8.39612C16.8035 8.54431 16.7156 8.66466 16.5767 8.75716L13.2085 11.167L14.521 15.4378C14.572 15.6045 14.5685 15.7549 14.5106 15.8892C14.4527 16.0234 14.3636 16.1299 14.2433 16.2086C14.1229 16.2874 13.991 16.3325 13.8475 16.344C13.7039 16.3556 13.565 16.3081 13.4308 16.2017L10.0002 13.5836Z" fill="#242734"/>
</g>
</g>
</svg>
