<svg xmlns="http://www.w3.org/2000/svg" width="40" height="40" viewBox="0 0 40 40" fill="none">
  <mask id="mask0_366_14291" style="mask-type:alpha" maskUnits="userSpaceOnUse" x="0" y="0" width="40" height="40">
    <rect width="40" height="40" fill="#D9D9D9"/>
  </mask>
  <g mask="url(#mask0_366_14291)">
    <path d="M9.61109 33.3337C8.78692 33.3337 8.09012 33.0489 7.52067 32.4795C6.95123 31.91 6.6665 31.2132 6.6665 30.3891C6.6665 29.5652 6.95123 28.8685 7.52067 28.2991C8.09012 27.7296 8.78692 27.4449 9.61109 27.4449C10.435 27.4449 11.1316 27.7296 11.7011 28.2991C12.2705 28.8685 12.5553 29.5652 12.5553 30.3891C12.5553 31.2132 12.2705 31.91 11.7011 32.4795C11.1316 33.0489 10.435 33.3337 9.61109 33.3337ZM19.9998 33.3337C19.1757 33.3337 18.4789 33.0489 17.9094 32.4795C17.34 31.91 17.0553 31.2132 17.0553 30.3891C17.0553 29.5652 17.34 28.8685 17.9094 28.2991C18.4789 27.7296 19.1757 27.4449 19.9998 27.4449C20.824 27.4449 21.5208 27.7296 22.0903 28.2991C22.6597 28.8685 22.9444 29.5652 22.9444 30.3891C22.9444 31.2132 22.6597 31.91 22.0903 32.4795C21.5208 33.0489 20.824 33.3337 19.9998 33.3337ZM30.3886 33.3337C29.5647 33.3337 28.868 33.0489 28.2986 32.4795C27.7291 31.91 27.4444 31.2132 27.4444 30.3891C27.4444 29.5652 27.7291 28.8685 28.2986 28.2991C28.868 27.7296 29.5647 27.4449 30.3886 27.4449C31.2128 27.4449 31.9096 27.7296 32.479 28.2991C33.0484 28.8685 33.3332 29.5652 33.3332 30.3891C33.3332 31.2132 33.0484 31.91 32.479 32.4795C31.9096 33.0489 31.2128 33.3337 30.3886 33.3337ZM9.61109 22.9449C8.78692 22.9449 8.09012 22.6602 7.52067 22.0907C6.95123 21.5213 6.6665 20.8245 6.6665 20.0003C6.6665 19.1762 6.95123 18.4794 7.52067 17.9099C8.09012 17.3405 8.78692 17.0557 9.61109 17.0557C10.435 17.0557 11.1316 17.3405 11.7011 17.9099C12.2705 18.4794 12.5553 19.1762 12.5553 20.0003C12.5553 20.8245 12.2705 21.5213 11.7011 22.0907C11.1316 22.6602 10.435 22.9449 9.61109 22.9449ZM19.9998 22.9449C19.1757 22.9449 18.4789 22.6602 17.9094 22.0907C17.34 21.5213 17.0553 20.8245 17.0553 20.0003C17.0553 19.1762 17.34 18.4794 17.9094 17.9099C18.4789 17.3405 19.1757 17.0557 19.9998 17.0557C20.824 17.0557 21.5208 17.3405 22.0903 17.9099C22.6597 18.4794 22.9444 19.1762 22.9444 20.0003C22.9444 20.8245 22.6597 21.5213 22.0903 22.0907C21.5208 22.6602 20.824 22.9449 19.9998 22.9449ZM30.3886 22.9449C29.5647 22.9449 28.868 22.6602 28.2986 22.0907C27.7291 21.5213 27.4444 20.8245 27.4444 20.0003C27.4444 19.1762 27.7291 18.4794 28.2986 17.9099C28.868 17.3405 29.5647 17.0557 30.3886 17.0557C31.2128 17.0557 31.9096 17.3405 32.479 17.9099C33.0484 18.4794 33.3332 19.1762 33.3332 20.0003C33.3332 20.8245 33.0484 21.5213 32.479 22.0907C31.9096 22.6602 31.2128 22.9449 30.3886 22.9449ZM9.61109 12.5557C8.78692 12.5557 8.09012 12.271 7.52067 11.7016C6.95123 11.1321 6.6665 10.4355 6.6665 9.61157C6.6665 8.78741 6.95123 8.0906 7.52067 7.52116C8.09012 6.95171 8.78692 6.66699 9.61109 6.66699C10.435 6.66699 11.1316 6.95171 11.7011 7.52116C12.2705 8.0906 12.5553 8.78741 12.5553 9.61157C12.5553 10.4355 12.2705 11.1321 11.7011 11.7016C11.1316 12.271 10.435 12.5557 9.61109 12.5557ZM19.9998 12.5557C19.1757 12.5557 18.4789 12.271 17.9094 11.7016C17.34 11.1321 17.0553 10.4355 17.0553 9.61157C17.0553 8.78741 17.34 8.0906 17.9094 7.52116C18.4789 6.95171 19.1757 6.66699 19.9998 6.66699C20.824 6.66699 21.5208 6.95171 22.0903 7.52116C22.6597 8.0906 22.9444 8.78741 22.9444 9.61157C22.9444 10.4355 22.6597 11.1321 22.0903 11.7016C21.5208 12.271 20.824 12.5557 19.9998 12.5557ZM30.3886 12.5557C29.5647 12.5557 28.868 12.271 28.2986 11.7016C27.7291 11.1321 27.4444 10.4355 27.4444 9.61157C27.4444 8.78741 27.7291 8.0906 28.2986 7.52116C28.868 6.95171 29.5647 6.66699 30.3886 6.66699C31.2128 6.66699 31.9096 6.95171 32.479 7.52116C33.0484 8.0906 33.3332 8.78741 33.3332 9.61157C33.3332 10.4355 33.0484 11.1321 32.479 11.7016C31.9096 12.271 31.2128 12.5557 30.3886 12.5557Z" fill="#1C1B1F"/>
  </g>
</svg>