<svg xmlns="http://www.w3.org/2000/svg" width="16" height="16" viewBox="0 0 16 16" fill="none">
  <mask id="mask0_331_7701" style="mask-type:alpha" maskUnits="userSpaceOnUse" x="0" y="0" width="16" height="16">
    <rect width="16" height="16" fill="#D9D9D9"/>
  </mask>
  <g mask="url(#mask0_331_7701)">
    <path d="M13.2667 14C11.9444 14 10.6111 13.6917 9.26667 13.075C7.92222 12.4583 6.68333 11.5833 5.55 10.45C4.41667 9.31667 3.54167 8.07778 2.925 6.73333C2.30833 5.38889 2 4.05556 2 2.73333C2 2.52589 2.07039 2.35183 2.21117 2.21117C2.35183 2.07039 2.52589 2 2.73333 2H5.18883C5.34439 2 5.47961 2.05461 5.5945 2.16383C5.70928 2.27317 5.78517 2.40744 5.82217 2.56667L6.26667 4.7445C6.28889 4.90739 6.28517 5.05183 6.2555 5.17783C6.22594 5.30372 6.16672 5.41111 6.07783 5.5L4.42783 7.16667C4.6945 7.62967 4.98617 8.06578 5.30283 8.475C5.6195 8.88422 5.96856 9.27406 6.35 9.6445C6.73889 10.0407 7.14817 10.4046 7.57783 10.7362C8.00739 11.0676 8.45922 11.3629 8.93333 11.6222L10.5112 10.0112C10.6185 9.89628 10.7472 9.81572 10.8972 9.7695C11.0472 9.72317 11.1963 9.71111 11.3445 9.73333L13.4333 10.1778C13.5963 10.2223 13.7315 10.3084 13.8388 10.4362C13.9463 10.5639 14 10.7074 14 10.8667V13.2667C14 13.4741 13.9296 13.6482 13.7888 13.7888C13.6482 13.9296 13.4741 14 13.2667 14Z" fill="currentColor"/>
  </g>
</svg>