<svg xmlns="http://www.w3.org/2000/svg" width="25" height="22" viewBox="0 0 25 22" fill="none">
<path d="M3.85867 18.3334L1.35967 20.8324C1.1659 21.0262 0.946341 21.0737 0.701008 20.975C0.455674 20.8764 0.333008 20.6889 0.333008 20.4127V2.74371C0.333008 2.08082 0.569008 1.51337 1.04101 1.04137C1.51301 0.569374 2.08045 0.333374 2.74334 0.333374H18.5893C19.2522 0.333374 19.8197 0.569374 20.2917 1.04137C20.7637 1.51337 20.9997 2.08082 20.9997 2.74371V7.03333C20.9997 7.30867 20.9018 7.53856 20.706 7.723C20.5102 7.90767 20.2727 8 19.9933 8C19.7138 8 19.4783 7.90422 19.287 7.71267C19.0955 7.52089 18.9997 7.28333 18.9997 7V2.74371C18.9997 2.62393 18.9612 2.5256 18.8843 2.44871C18.8075 2.37182 18.7091 2.33337 18.5893 2.33337H2.74334C2.62356 2.33337 2.52523 2.37182 2.44834 2.44871C2.37145 2.5256 2.33301 2.62393 2.33301 2.74371V16.3334H10.9613C11.2365 16.3334 11.4719 16.4313 11.6677 16.627C11.8635 16.8228 11.9613 17.0604 11.9613 17.3397C11.9613 17.6193 11.8635 17.8547 11.6677 18.046C11.4719 18.2376 11.2365 18.3334 10.9613 18.3334H3.85867ZM6.41001 7.66671H14.9227C15.206 7.66671 15.4436 7.57082 15.6353 7.37904C15.8269 7.18726 15.9227 6.94971 15.9227 6.66637C15.9227 6.38282 15.8269 6.14537 15.6353 5.95404C15.4436 5.76249 15.206 5.66671 14.9227 5.66671H6.41001C6.12667 5.66671 5.88912 5.7626 5.69734 5.95437C5.50579 6.14615 5.41001 6.38371 5.41001 6.66704C5.41001 6.9506 5.50579 7.18804 5.69734 7.37937C5.88912 7.57093 6.12667 7.66671 6.41001 7.66671ZM6.41001 13H10.9227C11.206 13 11.4436 12.9042 11.6353 12.7124C11.8269 12.5206 11.9227 12.283 11.9227 11.9997C11.9227 11.7162 11.8269 11.4787 11.6353 11.2874C11.4436 11.0958 11.206 11 10.9227 11H6.41001C6.12667 11 5.88912 11.0959 5.69734 11.2877C5.50579 11.4795 5.41001 11.717 5.41001 12.0004C5.41001 12.2839 5.50579 12.5214 5.69734 12.7127C5.88912 12.9043 6.12667 13 6.41001 13Z" fill="white"/>
<path d="M13.7617 19.7947V17.9793C13.7617 17.8224 13.7907 17.6704 13.8487 17.5233C13.9069 17.3762 13.9983 17.2402 14.123 17.1153L21 10.2717C21.1658 10.1059 21.3448 9.98922 21.537 9.92167C21.7292 9.85433 21.9214 9.82067 22.1137 9.82067C22.3232 9.82067 22.526 9.85989 22.722 9.93833C22.918 10.017 23.0961 10.135 23.2563 10.2923L24.4897 11.5383C24.6332 11.7043 24.7443 11.8839 24.823 12.077C24.9017 12.2701 24.941 12.4632 24.941 12.6563C24.941 12.8494 24.9051 13.046 24.8333 13.246C24.7616 13.446 24.647 13.6289 24.4897 13.7947L17.646 20.6383C17.5213 20.7632 17.3854 20.8547 17.2383 20.9127C17.091 20.9709 16.9389 21 16.782 21H14.9667C14.6251 21 14.3389 20.8844 14.108 20.6533C13.8771 20.4224 13.7617 20.1362 13.7617 19.7947ZM15.3513 19.4103H16.618L20.946 15.0613L20.3333 14.428L19.7127 13.8027L15.3513 18.1437V19.4103ZM20.3333 14.428L19.7127 13.8027L20.946 15.0613L20.3333 14.428Z" fill="white"/>
</svg>