<svg xmlns="http://www.w3.org/2000/svg" width="17" height="16" viewBox="0 0 17 16" fill="none">
  <mask id="mask0_1535_5525" style="mask-type:alpha" maskUnits="userSpaceOnUse" x="0" y="0" width="17" height="16">
    <rect x="0.5" width="16" height="16" fill="#D9D9D9"/>
  </mask>
  <g mask="url(#mask0_1535_5525)">
    <path d="M6.49962 10.0005H4.22178C3.99956 10.0005 3.83567 9.90142 3.73012 9.70331C3.62456 9.50509 3.63845 9.31342 3.77178 9.12831L9.18845 1.31715C9.28478 1.18381 9.40701 1.09215 9.55512 1.04215C9.70334 0.992146 9.85334 0.996757 10.0051 1.05598C10.157 1.11531 10.2737 1.21348 10.3551 1.35048C10.4367 1.48748 10.4663 1.63565 10.4441 1.79498L9.83295 6.66715H12.6496C12.8866 6.66715 13.0542 6.7727 13.1525 6.98381C13.2506 7.19492 13.2237 7.39309 13.0718 7.57831L7.12178 14.7116C7.02178 14.8339 6.8959 14.9135 6.74412 14.9505C6.59223 14.9875 6.44778 14.9745 6.31078 14.9116C6.17367 14.8486 6.06534 14.7495 5.98578 14.6143C5.90612 14.4792 5.8774 14.332 5.89962 14.1726L6.49962 10.0005Z" fill="#232734"/>
  </g>
</svg>