<svg xmlns="http://www.w3.org/2000/svg" width="17" height="16" viewBox="0 0 17 16" fill="none">
  <mask id="mask0_1612_1994" style="mask-type:alpha" maskUnits="userSpaceOnUse" x="0" y="0" width="17" height="16">
    <rect x="0.5" width="16" height="16" fill="#D9D9D9"/>
  </mask>
  <g mask="url(#mask0_1612_1994)">
    <path d="M9.61149 8.88891C9.05594 8.88891 8.58371 8.69447 8.19483 8.30558C7.80594 7.91669 7.61149 7.44447 7.61149 6.88892C7.61149 6.33336 7.80594 5.86114 8.19483 5.47225C8.58371 5.08336 9.05594 4.88892 9.61149 4.88892C10.167 4.88892 10.6393 5.08336 11.0282 5.47225C11.417 5.86114 11.6115 6.33336 11.6115 6.88892C11.6115 7.44447 11.417 7.91669 11.0282 8.30558C10.6393 8.69447 10.167 8.88891 9.61149 8.88891ZM4.50033 11.1112C4.19477 11.1112 3.93321 11.0024 3.71566 10.7847C3.49799 10.5672 3.38916 10.3056 3.38916 10.0001V3.77791C3.38916 3.47236 3.49799 3.21075 3.71566 2.99308C3.93321 2.77553 4.19477 2.66675 4.50033 2.66675H14.7225C15.028 2.66675 15.2897 2.77553 15.5073 2.99308C15.7249 3.21075 15.8337 3.47236 15.8337 3.77791V10.0001C15.8337 10.3056 15.7249 10.5672 15.5073 10.7847C15.2897 11.0024 15.028 11.1112 14.7225 11.1112H4.50033ZM6.05583 10.0001H13.167C13.167 9.56675 13.3179 9.19914 13.6198 8.89725C13.9216 8.59547 14.2892 8.44458 14.7225 8.44458V5.33341C14.2892 5.33341 13.9216 5.18247 13.6198 4.88058C13.3179 4.5788 13.167 4.21125 13.167 3.77791H6.05583C6.05583 4.21125 5.90494 4.5788 5.60316 4.88058C5.30127 5.18247 4.93366 5.33341 4.50033 5.33341V8.44458C4.93366 8.44458 5.30127 8.59547 5.60316 8.89725C5.90494 9.19914 6.05583 9.56675 6.05583 10.0001ZM13.2782 13.3334H2.27816C1.9726 13.3334 1.71099 13.2246 1.49333 13.0071C1.27577 12.7894 1.16699 12.5278 1.16699 12.2222V5.22225C1.16699 5.06492 1.22044 4.93297 1.32733 4.82642C1.4341 4.71997 1.56649 4.66675 1.72449 4.66675C1.88249 4.66675 2.01427 4.71997 2.11983 4.82642C2.22538 4.93297 2.27816 5.06492 2.27816 5.22225V12.2222H13.2782C13.4355 12.2222 13.5674 12.2757 13.674 12.3826C13.7804 12.4895 13.8337 12.6219 13.8337 12.7797C13.8337 12.9377 13.7804 13.0695 13.674 13.1751C13.5674 13.2806 13.4355 13.3334 13.2782 13.3334Z" fill="white"/>
  </g>
</svg>