<svg xmlns="http://www.w3.org/2000/svg" width="24" height="24" viewBox="0 0 24 24" fill="none">
<mask id="mask0_4770_481" style="mask-type:alpha" maskUnits="userSpaceOnUse" x="0" y="0" width="24" height="24">
<rect width="24" height="24" fill="#D9D9D9"/>
</mask>
<g mask="url(#mask0_4770_481)">
<path d="M2.5999 17.675C2.43323 17.5083 2.35129 17.3097 2.35407 17.0792C2.35684 16.8486 2.43878 16.6528 2.5999 16.4917L8.15825 10.925C8.47416 10.6083 8.86564 10.45 9.33267 10.45C9.79971 10.45 10.1916 10.6083 10.5082 10.925L13.4499 13.875L19.1999 8.14166H17.0499C16.8138 8.14166 16.6159 8.06152 16.4561 7.90126C16.2964 7.74097 16.2166 7.54236 16.2166 7.30541C16.2166 7.06847 16.2964 6.87084 16.4561 6.71251C16.6159 6.55417 16.8138 6.47501 17.0499 6.47501H21.1666C21.4027 6.47501 21.6006 6.55486 21.7603 6.71458C21.92 6.87431 21.9999 7.07223 21.9999 7.30833V11.425C21.9999 11.6528 21.922 11.8486 21.7662 12.0125C21.6104 12.1764 21.4173 12.2583 21.187 12.2583C20.9567 12.2583 20.7596 12.1764 20.5957 12.0125C20.4318 11.8486 20.3499 11.6528 20.3499 11.425V9.34166L14.6082 15.0667C14.2923 15.3833 13.9008 15.5417 13.4338 15.5417C12.9668 15.5417 12.5749 15.3833 12.2582 15.0667L9.31657 12.1417L3.78322 17.675C3.62211 17.8361 3.42488 17.9167 3.19155 17.9167C2.95823 17.9167 2.76101 17.8361 2.5999 17.675Z" fill="#242734"/>
</g>
</svg>
