<svg xmlns="http://www.w3.org/2000/svg" width="41" height="40" viewBox="0 0 41 40" fill="none">
<g id="credit_card">
<mask id="mask0_7128_3290" style="mask-type:alpha" maskUnits="userSpaceOnUse" x="0" y="0" width="41" height="40">
<rect id="Bounding box" x="0.0517578" width="40" height="40" fill="#D9D9D9"/>
</mask>
<g mask="url(#mask0_7128_3290)">
<path id="Subtract" fill-rule="evenodd" clip-rule="evenodd" d="M6.16252 33.3332C5.41252 33.3332 4.76206 33.0577 4.21114 32.5068C3.66022 31.9559 3.38477 31.3054 3.38477 30.5554V9.44425C3.38477 8.69425 3.66022 8.0438 4.21114 7.49288C4.76206 6.94196 5.41252 6.6665 6.16252 6.6665H33.9404C34.6904 6.6665 35.3408 6.94196 35.8917 7.49288C36.4426 8.0438 36.7181 8.69425 36.7181 9.44425V30.5554C36.7181 31.3054 36.4426 31.9559 35.8917 32.5068C35.3408 33.0577 34.6904 33.3332 33.9404 33.3332H6.16252ZM6.16252 12.9859C6.16252 13.7607 6.79056 14.3887 7.56529 14.3887H32.5376C33.3123 14.3887 33.9404 13.7607 33.9404 12.9859C33.9404 12.2112 33.3123 11.5832 32.5376 11.5832H7.56529C6.79056 11.5832 6.16252 12.2112 6.16252 12.9859ZM33.2842 28.3076C32.716 28.9658 31.9425 29.2949 30.9636 29.2949C30.0354 29.2949 29.2675 29.0024 28.6599 28.4173C28.0523 27.8266 27.7485 27.0672 27.7485 26.1389C27.7485 25.1994 28.0551 24.4428 28.6683 23.869C29.2872 23.2895 30.0607 22.9998 30.9889 22.9998C31.4221 22.9998 31.8412 23.0786 32.2462 23.2361C32.6569 23.388 32.9832 23.6018 33.2251 23.8774L32.2462 24.8563C32.1169 24.6763 31.9425 24.5412 31.7231 24.4512C31.5093 24.3556 31.2814 24.3078 31.0395 24.3078C30.5389 24.3078 30.1254 24.4822 29.7991 24.831C29.4784 25.1741 29.3181 25.6101 29.3181 26.1389C29.3181 26.679 29.4756 27.1206 29.7906 27.4638C30.1057 27.8013 30.5135 27.9701 31.0142 27.9701C31.5712 27.9701 31.9931 27.7676 32.28 27.3625L33.2842 28.3076ZM26.792 29.1346H25.3406V23.1602H26.792V29.1346ZM23.4648 28.6283C23.9374 28.1839 24.1737 27.6016 24.1737 26.8815V23.1602H22.7307V26.7634C22.7307 27.1178 22.6379 27.4131 22.4522 27.6494C22.2722 27.8801 21.9909 27.9954 21.6084 27.9954C21.2315 27.9954 20.9502 27.8801 20.7645 27.6494C20.5789 27.4131 20.4861 27.1178 20.4861 26.7634V23.1602H19.0515V26.8815C19.0515 27.6072 19.2822 28.1923 19.7435 28.6367C20.2048 29.0755 20.8236 29.2949 21.5999 29.2949C22.3763 29.2949 22.9979 29.0727 23.4648 28.6283ZM7.56827 16.6062C6.79436 16.6062 6.16699 17.2336 6.16699 18.0075C6.16699 18.7814 6.79436 19.4088 7.56827 19.4088H22.6502C23.4241 19.4088 24.0515 18.7814 24.0515 18.0075C24.0515 17.2336 23.4241 16.6062 22.6502 16.6062H7.56827Z" fill="#242734"/>
</g>
</g>
</svg>