<svg xmlns="http://www.w3.org/2000/svg" width="41" height="40" viewBox="0 0 41 40" fill="none">
<g id="credit_card">
<mask id="mask0_4385_13141" style="mask-type:alpha" maskUnits="userSpaceOnUse" x="0" y="0" width="41" height="40">
<rect id="Bounding box" x="0.306885" width="40" height="40" fill="#D9D9D9"/>
</mask>
<g mask="url(#mask0_4385_13141)">
<path id="Subtract" fill-rule="evenodd" clip-rule="evenodd" d="M6.41789 33.3334C5.66789 33.3334 5.01743 33.0579 4.46651 32.507C3.9156 31.9561 3.64014 31.3056 3.64014 30.5556V9.44444C3.64014 8.69444 3.9156 8.04398 4.46651 7.49306C5.01743 6.94215 5.66789 6.66669 6.41789 6.66669H34.1957C34.9457 6.66669 35.5962 6.94215 36.1471 7.49306C36.698 8.04398 36.9735 8.69444 36.9735 9.44444V30.5556C36.9735 31.3056 36.698 31.9561 36.1471 32.507C35.5962 33.0579 34.9457 33.3334 34.1957 33.3334H6.41789ZM6.41789 12.9861C6.41789 13.7609 7.04593 14.3889 7.82066 14.3889H32.793C33.5677 14.3889 34.1957 13.7609 34.1957 12.9861C34.1957 12.2114 33.5677 11.5834 32.793 11.5834H7.82066C7.04593 11.5834 6.41789 12.2114 6.41789 12.9861ZM33.5395 28.3078C32.9714 28.966 32.1978 29.2951 31.219 29.2951C30.2907 29.2951 29.5228 29.0026 28.9153 28.4175C28.3077 27.8268 28.0039 27.0673 28.0039 26.1391C28.0039 25.1996 28.3105 24.443 28.9237 23.8692C29.5425 23.2897 30.316 23 31.2443 23C31.6775 23 32.0966 23.0788 32.5016 23.2363C32.9123 23.3882 33.2386 23.6019 33.4805 23.8776L32.5016 24.8565C32.3722 24.6764 32.1978 24.5414 31.9784 24.4514C31.7647 24.3558 31.5368 24.308 31.2949 24.308C30.7942 24.308 30.3807 24.4824 30.0545 24.8311C29.7338 25.1743 29.5735 25.6103 29.5735 26.1391C29.5735 26.6792 29.731 27.1208 30.046 27.464C30.3611 27.8015 30.7689 27.9703 31.2696 27.9703C31.8265 27.9703 32.2485 27.7677 32.5354 27.3627L33.5395 28.3078ZM27.0474 29.1348H25.5959V23.1603H27.0474V29.1348ZM23.7202 28.6285C24.1928 28.184 24.429 27.6018 24.429 26.8817V23.1603H22.9861V26.7636C22.9861 27.118 22.8932 27.4133 22.7076 27.6496C22.5276 27.8803 22.2463 27.9956 21.8637 27.9956C21.4868 27.9956 21.2055 27.8803 21.0199 27.6496C20.8342 27.4133 20.7414 27.118 20.7414 26.7636V23.1603H19.3069V26.8817C19.3069 27.6074 19.5375 28.1925 19.9988 28.6369C20.4601 29.0757 21.079 29.2951 21.8553 29.2951C22.6316 29.2951 23.2533 29.0729 23.7202 28.6285ZM7.82364 16.6064C7.04974 16.6064 6.42236 17.2338 6.42236 18.0077C6.42236 18.7816 7.04974 19.4089 7.82364 19.4089H22.9056C23.6795 19.4089 24.3069 18.7816 24.3069 18.0077C24.3069 17.2338 23.6795 16.6064 22.9056 16.6064H7.82364Z" fill="#A3A4AA"/>
</g>
</g>
</svg>