<svg xmlns="http://www.w3.org/2000/svg" width="16" height="16" viewBox="0 0 16 16" fill="none">
  <mask id="mask0_1612_1868" style="mask-type:alpha" maskUnits="userSpaceOnUse" x="0" y="0" width="16" height="16">
    <rect width="16" height="16" fill="#D9D9D9"/>
  </mask>
  <g mask="url(#mask0_1612_1868)">
    <path d="M8.00042 12.3778L9.78376 10.5945C9.89587 10.4834 10.0313 10.4278 10.1901 10.4278C10.3489 10.4278 10.4838 10.4838 10.5949 10.5957C10.706 10.7074 10.7616 10.8426 10.7616 11.0012C10.7616 11.1596 10.706 11.2944 10.5949 11.4055L8.38926 13.6112C8.33004 13.6704 8.26842 13.7121 8.20442 13.7362C8.14054 13.7602 8.07204 13.7722 7.99892 13.7722C7.92581 13.7722 7.85781 13.7602 7.79492 13.7362C7.73193 13.7121 7.67081 13.6704 7.61159 13.6112L5.40592 11.4055C5.29481 11.2935 5.23926 11.1581 5.23926 10.9993C5.23926 10.8406 5.2952 10.7056 5.40709 10.5945C5.51898 10.4834 5.6542 10.4278 5.81276 10.4278C5.9712 10.4278 6.10598 10.4834 6.21709 10.5945L8.00042 12.3778ZM8.00042 3.68883L6.21709 5.47216C6.10498 5.58327 5.96954 5.63883 5.81076 5.63883C5.65198 5.63883 5.51704 5.58288 5.40592 5.47099C5.29481 5.35922 5.23926 5.22405 5.23926 5.06549C5.23926 4.90705 5.29481 4.77227 5.40592 4.66116L7.61159 2.4555C7.67081 2.39627 7.73242 2.35461 7.79642 2.3305C7.86031 2.3065 7.92881 2.29449 8.00192 2.29449C8.07504 2.29449 8.14304 2.3065 8.20592 2.3305C8.26892 2.35461 8.33004 2.39627 8.38926 2.4555L10.5949 4.66116C10.706 4.77316 10.7616 4.90855 10.7616 5.06733C10.7616 5.22611 10.7056 5.36105 10.5938 5.47216C10.4819 5.58327 10.3466 5.63883 10.1881 5.63883C10.0296 5.63883 9.89487 5.58327 9.78376 5.47216L8.00042 3.68883Z" fill="white"/>
  </g>
</svg>