<svg width="24" height="24" viewBox="0 0 24 24" fill="none" xmlns="http://www.w3.org/2000/svg">
<mask id="mask0_4770_484" style="mask-type:alpha" maskUnits="userSpaceOnUse" x="0" y="0" width="24" height="24">
<rect width="24" height="24" fill="#D9D9D9"/>
</mask>
<g mask="url(#mask0_4770_484)">
<path d="M10.9333 13.0167L9.2333 11.275C9.07218 11.1028 8.87358 11.0167 8.63748 11.0167C8.40136 11.0167 8.19442 11.1 8.01665 11.2667C7.84442 11.4389 7.7583 11.6444 7.7583 11.8833C7.7583 12.1222 7.84442 12.3278 8.01665 12.5L10.35 14.8167C10.5166 14.9833 10.7111 15.0667 10.9333 15.0667C11.1555 15.0667 11.35 14.9833 11.5167 14.8167L15.9833 10.3666C16.15 10.2 16.2319 9.99998 16.2291 9.76666C16.2264 9.53333 16.1389 9.33332 15.9666 9.16666C15.8 9.01109 15.6014 8.9347 15.3708 8.93748C15.1403 8.94027 14.9472 9.01943 14.7917 9.17498L10.9333 13.0167ZM8.24998 21.85L6.7333 19.2667L3.74998 18.65C3.54443 18.6111 3.37498 18.5014 3.24165 18.3208C3.10832 18.1403 3.05832 17.9472 3.09165 17.7417L3.41665 14.8L1.47498 12.55C1.33053 12.4 1.2583 12.2167 1.2583 12C1.2583 11.7833 1.33053 11.6 1.47498 11.45L3.41665 9.21666L3.09165 6.27498C3.05832 6.06943 3.10832 5.87638 3.24165 5.69581C3.37498 5.51526 3.54443 5.40554 3.74998 5.36666L6.7333 4.74998L8.24998 2.14998C8.36109 1.96665 8.51665 1.84026 8.71665 1.77081C8.91665 1.70138 9.11665 1.7111 9.31665 1.79998L12 3.01666L14.6833 1.79998C14.8833 1.7111 15.0833 1.6986 15.2833 1.76248C15.4833 1.82637 15.6389 1.94998 15.75 2.13331L17.2833 4.74998L20.25 5.36666C20.4555 5.40554 20.625 5.51526 20.7583 5.69581C20.8916 5.87638 20.9416 6.06943 20.9083 6.27498L20.5833 9.21666L22.525 11.45C22.6694 11.6 22.7416 11.7833 22.7416 12C22.7416 12.2167 22.6694 12.4 22.525 12.55L20.5833 14.8L20.9083 17.7417C20.9416 17.9472 20.8916 18.1403 20.7583 18.3208C20.625 18.5014 20.4555 18.6111 20.25 18.65L17.2833 19.2667L15.75 21.8667C15.6389 22.05 15.4833 22.1736 15.2833 22.2375C15.0833 22.3014 14.8833 22.2889 14.6833 22.2L12 20.9833L9.31665 22.2C9.11665 22.2889 8.91665 22.2986 8.71665 22.2292C8.51665 22.1597 8.36109 22.0333 8.24998 21.85ZM9.36665 20.3333L12 19.2167L14.7 20.3333L16.2833 17.8667L19.15 17.15L18.8666 14.2333L20.8333 12L18.8666 9.71666L19.15 6.79998L16.2833 6.13331L14.65 3.66663L12 4.78331L9.29998 3.66663L7.71662 6.13331L4.84998 6.79998L5.1333 9.71666L3.16663 12L5.1333 14.2333L4.84998 17.2L7.71662 17.8667L9.36665 20.3333Z" fill="#242734"/>
</g>
</svg>
