<svg xmlns="http://www.w3.org/2000/svg" width="16" height="16" viewBox="0 0 16 16" fill="none">
  <mask id="mask0_1612_1873" style="mask-type:alpha" maskUnits="userSpaceOnUse" x="0" y="0" width="16" height="16">
    <rect width="16" height="16" fill="#D9D9D9"/>
  </mask>
  <g mask="url(#mask0_1612_1873)">
    <path d="M9.93895 13C8.5424 13 7.35945 12.5153 6.39012 11.546C5.4209 10.5768 4.93629 9.39383 4.93629 7.99717C4.93629 6.6065 5.4209 5.42594 6.39012 4.4555C7.35945 3.48517 8.5424 3 9.93895 3C11.3297 3 12.5103 3.48517 13.4806 4.4555C14.451 5.42594 14.9361 6.6065 14.9361 7.99717C14.9361 9.39383 14.451 10.5768 13.4806 11.546C12.5103 12.5153 11.3297 13 9.93895 13ZM9.93145 12.1623C11.0879 12.1623 12.0715 11.7585 12.8823 10.9508C13.6932 10.1433 14.0986 9.16128 14.0986 8.00483C14.0986 6.84839 13.6942 5.86472 12.8853 5.05383C12.0764 4.24306 11.0942 3.83767 9.93879 3.83767C8.7809 3.83767 7.79729 4.24206 6.98795 5.05083C6.17851 5.85972 5.77379 6.84189 5.77379 7.99733C5.77379 9.15522 6.17762 10.1389 6.98529 10.9483C7.79295 11.7577 8.77501 12.1623 9.93145 12.1623ZM10.355 7.82867V5.85467C10.355 5.73867 10.3148 5.63989 10.2345 5.55833C10.1541 5.47667 10.0546 5.43583 9.93595 5.43583C9.81729 5.43583 9.71784 5.4755 9.63762 5.55483C9.55751 5.63417 9.51745 5.73411 9.51745 5.85467V7.965C9.51745 8.02822 9.53023 8.09106 9.55579 8.1535C9.58145 8.21583 9.62123 8.27544 9.67512 8.33233L11.3101 9.96667C11.3925 10.0507 11.4902 10.0927 11.6033 10.0927C11.7164 10.0927 11.8164 10.0506 11.9033 9.96633C11.9902 9.882 12.0336 9.78411 12.0336 9.67267C12.0336 9.56122 11.9902 9.4615 11.9033 9.3735L10.355 7.82867ZM2.14995 5.75217C2.03129 5.75217 1.93179 5.71178 1.85145 5.631C1.77123 5.55033 1.73112 5.45039 1.73112 5.33117C1.73112 5.21183 1.77123 5.11256 1.85145 5.03333C1.93179 4.95411 2.03129 4.9145 2.14995 4.9145H3.85079C3.96945 4.9145 4.0689 4.95489 4.14912 5.03567C4.22945 5.11633 4.26962 5.21628 4.26962 5.3355C4.26962 5.45483 4.22945 5.55411 4.14912 5.63333C4.0689 5.71256 3.96945 5.75217 3.85079 5.75217H2.14995ZM1.48329 8.41883C1.36462 8.41883 1.26512 8.37844 1.18479 8.29767C1.10456 8.217 1.06445 8.11706 1.06445 7.99783C1.06445 7.8785 1.10456 7.77922 1.18479 7.7C1.26512 7.62078 1.36462 7.58117 1.48329 7.58117H3.85079C3.96945 7.58117 4.0689 7.62156 4.14912 7.70233C4.22945 7.783 4.26962 7.88294 4.26962 8.00217C4.26962 8.1215 4.22945 8.22078 4.14912 8.3C4.0689 8.37922 3.96945 8.41883 3.85079 8.41883H1.48329ZM2.14995 11.0855C2.03129 11.0855 1.93179 11.0451 1.85145 10.9643C1.77123 10.8837 1.73112 10.7837 1.73112 10.6645C1.73112 10.5452 1.77123 10.4459 1.85145 10.3667C1.93179 10.2874 2.03129 10.2478 2.14995 10.2478H3.85079C3.96945 10.2478 4.0689 10.2882 4.14912 10.369C4.22945 10.4497 4.26962 10.5496 4.26962 10.6688C4.26962 10.7882 4.22945 10.8874 4.14912 10.9667C4.0689 11.0459 3.96945 11.0855 3.85079 11.0855H2.14995Z" fill="white"/>
  </g>
</svg>