<svg xmlns="http://www.w3.org/2000/svg" width="32" height="32" viewBox="0 0 32 32" fill="none">
<mask id="mask0_4794_4107" style="mask-type:alpha" maskUnits="userSpaceOnUse" x="0" y="0" width="32" height="32">
<rect width="32" height="32" fill="#D9D9D9"/>
</mask>
<g mask="url(#mask0_4794_4107)">
<path d="M12.6222 21.1334C10.2124 21.1334 8.17295 20.2982 6.50377 18.6278C4.83459 16.9574 4 14.9334 4 12.5556C4 10.1778 4.83519 8.15373 6.50557 6.48335C8.17592 4.81297 10.2037 3.97778 12.5889 3.97778C14.9741 3.97778 16.9981 4.81297 18.6611 6.48335C20.3241 8.15373 21.1556 10.1789 21.1556 12.5589C21.1556 13.5197 21 14.4408 20.6889 15.3222C20.3778 16.2037 19.9259 17.0148 19.3333 17.7556L27.2 25.5778C27.4148 25.786 27.5222 26.0511 27.5222 26.3729C27.5222 26.6947 27.4148 26.963 27.2 27.1778C26.9852 27.3926 26.7169 27.5 26.3951 27.5C26.0733 27.5 25.8082 27.3926 25.6 27.1778L17.7556 19.3334C17.0889 19.8963 16.3151 20.337 15.4342 20.6556C14.5534 20.9741 13.616 21.1334 12.6222 21.1334ZM12.6 18.9112C14.3593 18.9112 15.8546 18.2908 17.0861 17.05C18.3176 15.8093 18.9333 14.3111 18.9333 12.5556C18.9333 10.8 18.3176 9.30185 17.0861 8.06112C15.8546 6.82038 14.3593 6.20002 12.6 6.20002C10.8284 6.20002 9.32253 6.82038 8.0824 8.06112C6.84227 9.30185 6.2222 10.8 6.2222 12.5556C6.2222 14.3111 6.84227 15.8093 8.0824 17.05C9.32253 18.2908 10.8284 18.9112 12.6 18.9112Z" fill="white"/>
</g>
</svg>
