<svg xmlns="http://www.w3.org/2000/svg" width="24" height="24" viewBox="0 0 24 24" fill="none">
  <g clip-path="url(#clip0_893_7035)">
    <rect width="24" height="24" rx="12" fill="#73BE44"/>
    <mask id="mask0_893_7035" style="mask-type:alpha" maskUnits="userSpaceOnUse" x="0" y="0" width="24" height="24">
      <rect width="24" height="24" fill="#D9D9D9"/>
    </mask>
    <g mask="url(#mask0_893_7035)">
      <path d="M8 16.1225V7.6451C8 7.45155 8.06667 7.29561 8.2 7.17729C8.33333 7.0591 8.48887 7 8.6666 7C8.72447 7 8.7834 7.00748 8.8434 7.02245C8.9034 7.03755 8.96227 7.06013 9.02 7.09019L15.9134 11.3419C16.0155 11.4106 16.0922 11.4902 16.1434 11.5805C16.1945 11.6708 16.22 11.7719 16.22 11.8838C16.22 11.9957 16.1945 12.0968 16.1434 12.1871C16.0922 12.2774 16.0155 12.357 15.9134 12.4257L9.02 16.6774C8.96227 16.7075 8.9034 16.7301 8.8434 16.7452C8.7834 16.7601 8.72447 16.7676 8.6666 16.7676C8.48887 16.7676 8.33333 16.7085 8.2 16.5903C8.06667 16.472 8 16.3161 8 16.1225Z" fill="white"/>
    </g>
  </g>
  <defs>
    <clipPath id="clip0_893_7035">
      <rect width="24" height="24" rx="12" fill="white"/>
    </clipPath>
  </defs>
</svg>